<?xml version="1.0" encoding="utf-8" standalone="no"?>
<!DOCTYPE svg PUBLIC "-//W3C//DTD SVG 1.1//EN"
  "http://www.w3.org/Graphics/SVG/1.1/DTD/svg11.dtd">
<svg xmlns:xlink="http://www.w3.org/1999/xlink" width="396.72pt" height="226.08pt" viewBox="0 0 396.72 226.08" xmlns="http://www.w3.org/2000/svg" version="1.1">
 <metadata>
  <rdf:RDF xmlns:dc="http://purl.org/dc/elements/1.1/" xmlns:cc="http://creativecommons.org/ns#" xmlns:rdf="http://www.w3.org/1999/02/22-rdf-syntax-ns#">
   <cc:Work>
    <dc:type rdf:resource="http://purl.org/dc/dcmitype/StillImage"/>
    <dc:date>2023-08-09T15:50:03.258935</dc:date>
    <dc:format>image/svg+xml</dc:format>
    <dc:creator>
     <cc:Agent>
      <dc:title>Matplotlib v3.7.1, https://matplotlib.org/</dc:title>
     </cc:Agent>
    </dc:creator>
   </cc:Work>
  </rdf:RDF>
 </metadata>
 <defs>
  <style type="text/css">*{stroke-linejoin: round; stroke-linecap: butt}</style>
 </defs>
 <g id="figure_1">
  <g id="patch_1">
   <path d="M 0 226.08 
L 396.72 226.08 
L 396.72 0 
L 0 0 
L 0 226.08 
z
" style="fill: none"/>
  </g>
  <g id="axes_1">
   <g id="line2d_1">
    <path d="M 397.72 57.620457 
L 396.996296 61.091806 
L 395.959157 70.166588 
L 394.922041 77.156101 
L 393.884947 95.325279 
L 392.847876 92.146554 
L 391.810828 89.502308 
L 390.773803 62.183192 
L 389.736801 68.406769 
L 388.699822 48.097913 
L 387.662865 57.685851 
L 386.625932 43.649787 
L 385.589021 48.894908 
L 384.552133 42.050864 
L 383.515268 43.251569 
L 382.478426 42.564981 
L 381.441607 46.581671 
L 380.40481 42.007119 
L 379.368037 44.954263 
L 378.331286 41.357576 
L 377.294558 47.673485 
L 376.257853 41.244419 
L 375.221171 43.184945 
L 374.184512 40.680089 
L 373.147875 43.254677 
L 372.111262 43.895337 
L 371.074671 39.364897 
L 370.038103 47.882669 
L 369.001558 42.035448 
L 367.965036 54.062367 
L 366.928536 43.800864 
L 365.89206 54.097721 
L 364.855606 39.675888 
L 363.819175 62.548791 
L 362.782767 47.431494 
L 361.746382 57.317713 
L 360.71002 49.971909 
L 359.673681 62.487327 
L 358.637364 50.15349 
L 357.60107 53.758487 
L 356.564799 54.316723 
L 355.528551 52.926012 
L 354.492326 60.345203 
L 353.456124 58.287346 
L 352.419944 56.843368 
L 351.383787 59.262357 
L 350.347653 60.011759 
L 348.275454 55.48981 
L 347.239389 58.928657 
L 346.203346 57.124086 
L 345.167326 61.148248 
L 344.131329 55.262133 
L 343.095355 57.304287 
L 342.059404 60.222531 
L 341.023476 50.58451 
L 339.98757 58.856391 
L 338.951687 50.509692 
L 337.915827 63.366326 
L 336.87999 48.602956 
L 335.844176 59.642781 
L 334.808385 53.609699 
L 333.772616 56.357234 
L 332.73687 47.873692 
L 331.701147 43.128256 
L 330.665447 54.646337 
L 329.62977 43.582205 
L 328.594115 47.339548 
L 327.558483 51.671129 
L 326.522874 48.415167 
L 325.487288 52.783488 
L 324.451725 38.184342 
L 323.416185 51.828798 
L 322.380667 40.401632 
L 321.345172 56.087594 
L 320.3097 36.341623 
L 319.274251 50.011412 
L 318.238825 33.39607 
L 317.203421 43.372643 
L 316.16804 39.303735 
L 315.132682 42.665839 
L 314.097347 45.225272 
L 313.062035 40.669005 
L 312.026745 41.868645 
L 310.991479 39.267286 
L 309.956235 50.862482 
L 308.921014 43.394083 
L 307.885815 41.852953 
L 306.85064 39.730103 
L 305.815487 44.663134 
L 304.780357 47.854823 
L 303.74525 48.774472 
L 302.710166 43.854139 
L 301.675104 54.01568 
L 300.640066 50.580202 
L 299.60505 64.173404 
L 298.570057 45.520644 
L 297.535086 60.049543 
L 296.500139 45.377141 
L 295.465214 65.794647 
L 294.430312 51.471504 
L 293.395433 56.392709 
L 292.360577 47.810548 
L 291.325743 57.260908 
L 290.290932 52.751553 
L 289.256144 53.769111 
L 288.221379 55.015746 
L 287.186637 58.305006 
L 286.151917 62.631016 
L 285.11722 59.412451 
L 284.082546 61.458371 
L 283.047895 62.772922 
L 282.013267 61.196732 
L 280.978661 63.48446 
L 279.944078 57.538226 
L 278.909518 62.102774 
L 277.874981 63.433598 
L 276.840466 61.408105 
L 275.805975 63.975918 
L 274.771506 58.945857 
L 273.737059 68.866847 
L 272.702636 48.933159 
L 271.668235 68.200167 
L 270.633857 51.111059 
L 269.599502 72.839449 
L 268.56517 56.345247 
L 267.530861 70.233588 
L 266.496574 59.772524 
L 265.46231 66.037094 
L 264.428069 65.139847 
L 263.39385 63.741435 
L 262.359655 59.808023 
L 261.325482 53.845672 
L 260.291332 59.074046 
L 259.257204 60.182854 
L 258.2231 59.755645 
L 257.189018 56.589344 
L 256.154959 54.487465 
L 255.120922 60.766478 
L 254.086909 53.132031 
L 253.052918 57.2894 
L 252.01895 50.511831 
L 250.985005 56.676131 
L 249.951082 53.850113 
L 248.917183 54.756496 
L 247.883306 50.250827 
L 246.849452 54.132836 
L 245.81562 67.485346 
L 244.781811 61.668875 
L 243.748026 80.998987 
L 242.714262 69.215375 
L 241.680522 106.882509 
L 240.646804 129.835337 
L 239.613109 173.037563 
L 238.579437 167.410296 
L 237.545788 139.779525 
L 236.512161 101.369712 
L 234.444976 66.526886 
L 233.411418 59.065791 
L 232.377882 63.913757 
L 231.344369 64.139018 
L 230.310879 56.764186 
L 229.277412 61.986666 
L 228.243967 54.240756 
L 227.210545 66.042991 
L 226.177146 53.237392 
L 225.14377 57.593744 
L 224.110416 55.758411 
L 223.077085 59.754251 
L 222.043777 64.568091 
L 221.010492 60.623773 
L 219.977229 62.030739 
L 218.943989 61.343896 
L 217.910772 73.498681 
L 216.877577 63.86464 
L 215.844405 75.777761 
L 214.811256 69.048158 
L 213.77813 81.273031 
L 212.745027 83.123933 
L 211.711946 101.08544 
L 210.678888 115.535658 
L 209.645852 146.099129 
L 208.61284 191.91398 
L 207.57985 197.677929 
L 206.546883 159.032635 
L 205.513938 126.654594 
L 204.481017 107.350286 
L 203.448118 114.598028 
L 202.415242 115.55281 
L 201.382388 138.220014 
L 200.349557 142.153497 
L 199.316749 139.310251 
L 198.283964 107.110114 
L 196.218461 81.288329 
L 195.185744 84.916518 
L 194.15305 70.875912 
L 193.120378 72.819922 
L 192.087729 68.697788 
L 191.055103 69.024625 
L 188.989918 67.472101 
L 187.95736 65.947873 
L 186.924825 63.170924 
L 185.892312 66.130855 
L 184.859822 63.732154 
L 183.827355 59.161636 
L 182.79491 61.63051 
L 181.762489 61.810822 
L 180.73009 52.811634 
L 179.697713 58.228789 
L 178.665359 48.527531 
L 177.633028 62.475124 
L 176.60072 48.098021 
L 175.568435 61.498946 
L 174.536172 44.602031 
L 173.503932 59.312807 
L 172.471714 49.757847 
L 171.439519 62.008841 
L 170.407347 47.968541 
L 169.375198 55.713939 
L 168.343071 48.908856 
L 167.310967 50.930385 
L 166.278886 55.921706 
L 165.246828 50.814304 
L 164.214792 55.597899 
L 163.182779 49.530146 
L 162.150788 54.827497 
L 161.11882 48.906637 
L 160.086875 54.656153 
L 159.054953 59.678382 
L 158.023053 62.241012 
L 156.991176 54.258137 
L 155.959322 55.279122 
L 154.927491 57.815299 
L 153.895682 62.639731 
L 152.863896 58.650085 
L 151.832132 64.282104 
L 150.800391 59.434007 
L 149.768673 66.267506 
L 148.736978 62.027233 
L 147.705305 75.487753 
L 146.673655 62.060279 
L 145.642028 65.905949 
L 144.610423 67.34867 
L 143.578841 66.001348 
L 142.547282 68.627218 
L 141.515745 69.429736 
L 140.484231 74.957222 
L 139.45274 71.87472 
L 138.421271 84.414464 
L 137.389825 82.278261 
L 136.358402 81.877333 
L 135.327001 85.500186 
L 134.295624 90.132705 
L 133.264268 99.161596 
L 132.232936 105.118151 
L 131.201626 140.750167 
L 130.170339 155.076396 
L 129.139074 156.631775 
L 127.076613 117.664608 
L 126.045417 111.038666 
L 123.983092 92.2587 
L 122.951964 79.068255 
L 121.920858 81.512175 
L 120.889775 72.81164 
L 119.858714 78.70271 
L 118.827676 68.960836 
L 117.796661 71.362356 
L 116.765669 69.706668 
L 115.734699 72.093697 
L 114.703752 63.764823 
L 113.672828 61.453846 
L 112.641926 69.130903 
L 111.611047 63.900001 
L 110.58019 61.670333 
L 109.549356 69.837012 
L 108.518545 60.046739 
L 107.487757 63.981957 
L 106.456991 53.785432 
L 105.426248 63.529708 
L 104.395527 55.399258 
L 103.364829 68.269939 
L 102.334154 54.939253 
L 101.303501 61.686948 
L 100.272872 61.474637 
L 99.242264 53.332766 
L 98.21168 59.271735 
L 97.181118 53.38609 
L 96.150578 61.845946 
L 95.120062 49.273423 
L 94.089568 61.501047 
L 93.059096 50.731514 
L 92.028648 63.055133 
L 90.998222 57.64717 
L 89.967818 61.249723 
L 88.937437 59.052501 
L 87.907079 64.339568 
L 86.876744 65.326837 
L 85.846431 74.415781 
L 84.816141 75.382426 
L 83.785873 96.945287 
L 82.755628 104.815576 
L 81.725406 105.934909 
L 80.695206 88.666905 
L 79.665029 79.783185 
L 78.634875 72.22176 
L 77.604743 75.343885 
L 76.574634 69.110153 
L 75.544548 74.0402 
L 74.514484 71.931445 
L 73.484443 70.211765 
L 72.454424 76.628424 
L 71.424428 71.686846 
L 70.394455 76.587595 
L 69.364504 70.055922 
L 68.334576 71.335056 
L 67.304671 72.901268 
L 66.274788 75.225434 
L 65.244928 75.469562 
L 64.215091 77.7677 
L 63.185276 74.952682 
L 62.155484 80.004876 
L 61.125714 77.083991 
L 60.095967 79.695348 
L 59.066243 77.623487 
L 58.036541 75.886237 
L 57.006862 76.165698 
L 55.977205 81.612938 
L 54.947571 72.646093 
L 53.91796 77.002359 
L 52.888371 67.052524 
L 51.858805 82.104326 
L 50.829262 68.290404 
L 49.799741 81.370885 
L 48.770243 68.749481 
L 47.740767 77.551728 
L 46.711314 71.518244 
L 45.681884 73.883652 
L 44.652476 68.559374 
L 43.623091 68.086613 
L 42.593729 78.116714 
L 41.564389 70.407073 
L 40.535071 71.981506 
L 39.505777 70.879557 
L 38.476505 64.158431 
L 37.447255 66.280431 
L 36.418028 63.029634 
L 35.388824 67.099979 
L 34.359642 64.89717 
L 32.301347 63.271335 
L 31.272233 57.274088 
L 30.243142 56.682752 
L 29.214073 58.979815 
L 28.185027 67.853892 
L 27.156004 54.146642 
L 26.127003 67.761436 
L 25.098025 55.572291 
L 24.069069 61.789733 
L 23.040136 52.157673 
L 22.011226 66.822447 
L 20.982338 60.040474 
L 19.953473 61.213114 
L 18.92463 60.011681 
L 17.89581 62.558837 
L 16.867013 60.641734 
L 15.838238 63.645422 
L 14.809485 61.734133 
L 13.780756 64.835549 
L 12.752049 61.841749 
L 11.723364 70.410397 
L 10.694702 58.904442 
L 9.666063 77.253906 
L 8.637446 64.075014 
L 7.608852 74.790842 
L 6.58028 70.438386 
L 5.551731 71.942547 
L 4.523205 70.818048 
L 3.494701 73.571935 
L 2.46622 75.895775 
L 1.437761 71.807865 
L 0.409325 86.838406 
L -0.619088 79.382891 
L -1 84.064497 
L -1 84.064497 
" clip-path="url(#p5121140aa6)" style="fill: none; stroke: #d62728; stroke-width: 3; stroke-linecap: square"/>
   </g>
  </g>
 </g>
 <defs>
  <clipPath id="p5121140aa6">
   <rect x="10.8" y="10.8" width="375.12" height="204.48"/>
  </clipPath>
 </defs>
</svg>
