<?xml version="1.0" encoding="UTF-8" standalone="no"?>
<svg
   width="311.35904pt"
   height="230.84787pt"
   viewBox="0 0 311.35905 230.84788"
   version="1.1"
   id="svg851"
   sodipodi:docname="clipboard_4.svg"
   inkscape:export-filename="clipboard_4.png"
   inkscape:export-xdpi="300"
   inkscape:export-ydpi="300"
   inkscape:version="1.2.1 (9c6d41e, 2022-07-14)"
   xmlns:inkscape="http://www.inkscape.org/namespaces/inkscape"
   xmlns:sodipodi="http://sodipodi.sourceforge.net/DTD/sodipodi-0.dtd"
   xmlns:xlink="http://www.w3.org/1999/xlink"
   xmlns="http://www.w3.org/2000/svg"
   xmlns:svg="http://www.w3.org/2000/svg"
   xmlns:rdf="http://www.w3.org/1999/02/22-rdf-syntax-ns#"
   xmlns:cc="http://creativecommons.org/ns#"
   xmlns:dc="http://purl.org/dc/elements/1.1/">
  <sodipodi:namedview
     id="namedview853"
     pagecolor="#ffffff"
     bordercolor="#000000"
     borderopacity="0.25"
     inkscape:showpageshadow="2"
     inkscape:pageopacity="0.0"
     inkscape:pagecheckerboard="0"
     inkscape:deskcolor="#d1d1d1"
     inkscape:document-units="pt"
     showgrid="false"
     inkscape:zoom="2.8427813"
     inkscape:cx="207.54323"
     inkscape:cy="153.89858"
     inkscape:window-width="1920"
     inkscape:window-height="1027"
     inkscape:window-x="0"
     inkscape:window-y="25"
     inkscape:window-maximized="0"
     inkscape:current-layer="svg851" />
  <metadata
     id="metadata132">
    <rdf:RDF>
      <cc:Work>
        <dc:type
           rdf:resource="http://purl.org/dc/dcmitype/StillImage" />
        <dc:date>2023-12-07T14:01:32.380863</dc:date>
        <dc:format>image/svg+xml</dc:format>
        <dc:creator>
          <cc:Agent>
            <dc:title>Matplotlib v3.7.1, https://matplotlib.org/</dc:title>
          </cc:Agent>
        </dc:creator>
      </cc:Work>
    </rdf:RDF>
  </metadata>
  <defs
     id="defs136">
    <style
       type="text/css"
       id="style134">*{stroke-linejoin: round; stroke-linecap: butt}</style>
  </defs>
  <g
     id="axes_2"
     transform="translate(-11.600971,-14.835437)">
    <g
       id="patch_3">
      <path
         d="M 55.779096,43.112 H 322.56 v 0 z"
         style="fill:#ffffff"
         id="path144" />
    </g>
    <g
       id="matplotlib.axis_1">
      <g
         id="xtick_1">
        <g
           id="line2d_1">
          <defs
             id="defs148">
            <path
               id="me36782b5df"
               d="M 0,0 V -3.5"
               style="stroke:#000000;stroke-width:0.8" />
          </defs>
          <g
             id="g152">
            <use
               xlink:href="#me36782b5df"
               x="62.779976"
               y="43.112"
               style="stroke:#000000;stroke-width:0.8"
               id="use150" />
          </g>
        </g>
        <g
           id="text_1">
          <!-- $\mathdefault{10^{1}}$ -->
          <g
             transform="matrix(0.1,0,0,-0.1,53.979977,34.032313)"
             id="g165">
            <defs
               id="defs157">
              <path
                 id="DejaVuSans-31"
                 d="M 794,531 H 1825 V 4091 L 703,3866 v 575 l 1116,225 h 631 V 531 H 3481 V 0 H 794 Z"
                 transform="scale(0.015625)" />
              <path
                 id="DejaVuSans-30"
                 d="m 2034,4250 q -487,0 -733,-480 -245,-479 -245,-1442 0,-959 245,-1439 246,-480 733,-480 491,0 736,480 246,480 246,1439 0,963 -246,1442 -245,480 -736,480 z m 0,500 q 785,0 1199,-621 414,-620 414,-1801 0,-1178 -414,-1799 -414,-620 -1199,-620 -784,0 -1198,620 -414,621 -414,1799 0,1181 414,1801 414,621 1198,621 z"
                 transform="scale(0.015625)" />
            </defs>
            <use
               xlink:href="#DejaVuSans-31"
               transform="translate(0,0.684375)"
               id="use159" />
            <use
               xlink:href="#DejaVuSans-30"
               transform="translate(63.623047,0.684375)"
               id="use161" />
            <use
               xlink:href="#DejaVuSans-31"
               transform="matrix(0.7,0,0,0.7,128.20312,38.965625)"
               id="use163" />
          </g>
        </g>
      </g>
      <g
         id="xtick_2">
        <g
           id="line2d_2">
          <g
             id="g171">
            <use
               xlink:href="#me36782b5df"
               x="186.60678"
               y="43.112"
               style="stroke:#000000;stroke-width:0.8"
               id="use169" />
          </g>
        </g>
        <g
           id="text_2">
          <!-- $\mathdefault{10^{2}}$ -->
          <g
             transform="matrix(0.1,0,0,-0.1,177.80679,34.032313)"
             id="g183">
            <defs
               id="defs175">
              <path
                 id="DejaVuSans-32"
                 d="M 1228,531 H 3431 V 0 H 469 v 531 q 359,372 979,998 621,627 780,809 303,340 423,576 121,236 121,464 0,372 -261,606 -261,235 -680,235 -297,0 -627,-103 -329,-103 -704,-313 v 638 q 381,153 712,231 332,78 607,78 725,0 1156,-363 431,-362 431,-968 0,-288 -108,-546 -107,-257 -392,-607 -78,-91 -497,-524 Q 1991,1309 1228,531 Z"
                 transform="scale(0.015625)" />
            </defs>
            <use
               xlink:href="#DejaVuSans-31"
               transform="translate(0,0.765625)"
               id="use177" />
            <use
               xlink:href="#DejaVuSans-30"
               transform="translate(63.623047,0.765625)"
               id="use179" />
            <use
               xlink:href="#DejaVuSans-32"
               transform="matrix(0.7,0,0,0.7,128.20312,39.046875)"
               id="use181" />
          </g>
        </g>
      </g>
      <g
         id="xtick_3">
        <g
           id="line2d_3">
          <g
             id="g189">
            <use
               xlink:href="#me36782b5df"
               x="310.43359"
               y="43.112"
               style="stroke:#000000;stroke-width:0.8"
               id="use187" />
          </g>
        </g>
        <g
           id="text_3">
          <!-- $\mathdefault{10^{3}}$ -->
          <g
             transform="matrix(0.1,0,0,-0.1,301.6336,34.032313)"
             id="g201">
            <defs
               id="defs193">
              <path
                 id="DejaVuSans-33"
                 d="m 2597,2516 q 453,-97 707,-404 255,-306 255,-756 0,-690 -475,-1069 -475,-378 -1350,-378 -293,0 -604,58 -311,58 -642,174 v 609 q 262,-153 574,-231 313,-78 654,-78 593,0 904,234 311,234 311,681 0,413 -289,645 -289,233 -804,233 h -544 v 519 h 569 q 465,0 712,186 247,186 247,536 0,359 -255,551 -254,193 -729,193 -260,0 -557,-57 -297,-56 -653,-174 v 562 q 360,100 674,150 314,50 592,50 719,0 1137,-327 419,-326 419,-882 0,-388 -222,-655 -222,-267 -631,-370 z"
                 transform="scale(0.015625)" />
            </defs>
            <use
               xlink:href="#DejaVuSans-31"
               transform="translate(0,0.765625)"
               id="use195" />
            <use
               xlink:href="#DejaVuSans-30"
               transform="translate(63.623047,0.765625)"
               id="use197" />
            <use
               xlink:href="#DejaVuSans-33"
               transform="matrix(0.7,0,0,0.7,128.20312,39.046875)"
               id="use199" />
          </g>
        </g>
      </g>
      <g
         id="xtick_4">
        <g
           id="line2d_4">
          <defs
             id="defs206">
            <path
               id="m3ce9589eba"
               d="M 0,0 V -2"
               style="stroke:#000000;stroke-width:0.6" />
          </defs>
          <g
             id="g210">
            <use
               xlink:href="#m3ce9589eba"
               x="57.113972"
               y="43.112"
               style="stroke:#000000;stroke-width:0.6"
               id="use208" />
          </g>
        </g>
      </g>
      <g
         id="xtick_5">
        <g
           id="line2d_5">
          <g
             id="g216">
            <use
               xlink:href="#m3ce9589eba"
               x="100.05556"
               y="43.112"
               style="stroke:#000000;stroke-width:0.6"
               id="use214" />
          </g>
        </g>
      </g>
      <g
         id="xtick_6">
        <g
           id="line2d_6">
          <g
             id="g222">
            <use
               xlink:href="#m3ce9589eba"
               x="121.86038"
               y="43.112"
               style="stroke:#000000;stroke-width:0.6"
               id="use220" />
          </g>
        </g>
      </g>
      <g
         id="xtick_7">
        <g
           id="line2d_7">
          <g
             id="g228">
            <use
               xlink:href="#m3ce9589eba"
               x="137.33115"
               y="43.112"
               style="stroke:#000000;stroke-width:0.6"
               id="use226" />
          </g>
        </g>
      </g>
      <g
         id="xtick_8">
        <g
           id="line2d_8">
          <g
             id="g234">
            <use
               xlink:href="#m3ce9589eba"
               x="149.33121"
               y="43.112"
               style="stroke:#000000;stroke-width:0.6"
               id="use232" />
          </g>
        </g>
      </g>
      <g
         id="xtick_9">
        <g
           id="line2d_9">
          <g
             id="g240">
            <use
               xlink:href="#m3ce9589eba"
               x="159.13596"
               y="43.112"
               style="stroke:#000000;stroke-width:0.6"
               id="use238" />
          </g>
        </g>
      </g>
      <g
         id="xtick_10">
        <g
           id="line2d_10">
          <g
             id="g246">
            <use
               xlink:href="#m3ce9589eba"
               x="167.42577"
               y="43.112"
               style="stroke:#000000;stroke-width:0.6"
               id="use244" />
          </g>
        </g>
      </g>
      <g
         id="xtick_11">
        <g
           id="line2d_11">
          <g
             id="g252">
            <use
               xlink:href="#m3ce9589eba"
               x="174.60674"
               y="43.112"
               style="stroke:#000000;stroke-width:0.6"
               id="use250" />
          </g>
        </g>
      </g>
      <g
         id="xtick_12">
        <g
           id="line2d_12">
          <g
             id="g258">
            <use
               xlink:href="#m3ce9589eba"
               x="180.94078"
               y="43.112"
               style="stroke:#000000;stroke-width:0.6"
               id="use256" />
          </g>
        </g>
      </g>
      <g
         id="xtick_13">
        <g
           id="line2d_13">
          <g
             id="g264">
            <use
               xlink:href="#m3ce9589eba"
               x="223.88237"
               y="43.112"
               style="stroke:#000000;stroke-width:0.6"
               id="use262" />
          </g>
        </g>
      </g>
      <g
         id="xtick_14">
        <g
           id="line2d_14">
          <g
             id="g270">
            <use
               xlink:href="#m3ce9589eba"
               x="245.68719"
               y="43.112"
               style="stroke:#000000;stroke-width:0.6"
               id="use268" />
          </g>
        </g>
      </g>
      <g
         id="xtick_15">
        <g
           id="line2d_15">
          <g
             id="g276">
            <use
               xlink:href="#m3ce9589eba"
               x="261.15796"
               y="43.112"
               style="stroke:#000000;stroke-width:0.6"
               id="use274" />
          </g>
        </g>
      </g>
      <g
         id="xtick_16">
        <g
           id="line2d_16">
          <g
             id="g282">
            <use
               xlink:href="#m3ce9589eba"
               x="273.15802"
               y="43.112"
               style="stroke:#000000;stroke-width:0.6"
               id="use280" />
          </g>
        </g>
      </g>
      <g
         id="xtick_17">
        <g
           id="line2d_17">
          <g
             id="g288">
            <use
               xlink:href="#m3ce9589eba"
               x="282.96277"
               y="43.112"
               style="stroke:#000000;stroke-width:0.6"
               id="use286" />
          </g>
        </g>
      </g>
      <g
         id="xtick_18">
        <g
           id="line2d_18">
          <g
             id="g294">
            <use
               xlink:href="#m3ce9589eba"
               x="291.25259"
               y="43.112"
               style="stroke:#000000;stroke-width:0.6"
               id="use292" />
          </g>
        </g>
      </g>
      <g
         id="xtick_19">
        <g
           id="line2d_19">
          <g
             id="g300">
            <use
               xlink:href="#m3ce9589eba"
               x="298.43353"
               y="43.112"
               style="stroke:#000000;stroke-width:0.6"
               id="use298" />
          </g>
        </g>
      </g>
      <g
         id="xtick_20">
        <g
           id="line2d_20">
          <g
             id="g306">
            <use
               xlink:href="#m3ce9589eba"
               x="304.76758"
               y="43.112"
               style="stroke:#000000;stroke-width:0.6"
               id="use304" />
          </g>
        </g>
      </g>
      <g
         id="text_4">
        <!-- # of averaged spectra -->
        <g
           transform="matrix(0.1,0,0,-0.1,133.06408,22.433875)"
           id="g368">
          <defs
             id="defs324">
            <path
               id="DejaVuSans-23"
               d="M 3272,2816 H 2363 L 2100,1772 h 916 z M 2803,4594 2478,3297 h 913 l 328,1297 h 500 L 3897,3297 h 975 V 2816 H 3775 L 3519,1772 h 994 V 1294 H 3397 L 3072,0 h -500 l 322,1294 H 1978 L 1656,0 h -503 l 325,1294 H 494 v 478 h 1100 l 262,1044 H 850 v 481 h 1128 l 319,1297 z"
               transform="scale(0.015625)" />
            <path
               id="DejaVuSans-20"
               transform="scale(0.015625)"
               d="" />
            <path
               id="DejaVuSans-6f"
               d="m 1959,3097 q -462,0 -731,-361 -269,-361 -269,-989 0,-628 267,-989 268,-361 733,-361 460,0 728,362 269,363 269,988 0,622 -269,986 -268,364 -728,364 z m 0,487 q 750,0 1178,-488 429,-487 429,-1349 Q 3566,888 3137,398 2709,-91 1959,-91 1206,-91 779,398 353,888 353,1747 q 0,862 426,1349 427,488 1180,488 z"
               transform="scale(0.015625)" />
            <path
               id="DejaVuSans-66"
               d="m 2375,4863 v -479 h -550 q -309,0 -430,-125 -120,-125 -120,-450 v -309 h 947 V 3053 H 1275 V 0 H 697 V 3053 H 147 v 447 h 550 v 244 q 0,584 272,851 272,268 862,268 z"
               transform="scale(0.015625)" />
            <path
               id="DejaVuSans-61"
               d="m 2194,1759 q -697,0 -966,-159 -269,-159 -269,-544 0,-306 202,-486 202,-179 548,-179 479,0 768,339 289,339 289,901 v 128 z m 1147,238 V 0 H 2766 V 531 Q 2569,213 2275,61 1981,-91 1556,-91 q -537,0 -855,302 -317,302 -317,808 0,590 395,890 396,300 1180,300 h 807 v 57 q 0,397 -261,614 -261,217 -733,217 -300,0 -585,-72 -284,-72 -546,-216 v 532 q 315,122 612,182 297,61 578,61 760,0 1135,-394 375,-393 375,-1193 z"
               transform="scale(0.015625)" />
            <path
               id="DejaVuSans-76"
               d="M 191,3500 H 800 L 1894,563 2988,3500 h 609 L 2284,0 h -781 z"
               transform="scale(0.015625)" />
            <path
               id="DejaVuSans-65"
               d="M 3597,1894 V 1613 H 953 q 38,-594 358,-905 320,-311 892,-311 331,0 642,81 311,81 618,244 V 178 Q 3153,47 2828,-22 2503,-91 2169,-91 1331,-91 842,396 353,884 353,1716 q 0,859 464,1363 464,505 1252,505 706,0 1117,-455 411,-454 411,-1235 z m -575,169 q -6,471 -264,752 -258,282 -683,282 -481,0 -770,-272 -289,-272 -333,-766 z"
               transform="scale(0.015625)" />
            <path
               id="DejaVuSans-72"
               d="m 2631,2963 q -97,56 -211,82 -114,27 -251,27 -488,0 -749,-317 -261,-317 -261,-911 V 0 H 581 v 3500 h 578 v -544 q 182,319 472,473 291,155 707,155 59,0 131,-8 72,-7 159,-23 z"
               transform="scale(0.015625)" />
            <path
               id="DejaVuSans-67"
               d="m 2906,1791 q 0,625 -258,968 -257,344 -723,344 -462,0 -720,-344 -258,-343 -258,-968 0,-622 258,-966 258,-344 720,-344 466,0 723,344 258,344 258,966 z M 3481,434 q 0,-893 -397,-1329 -396,-436 -1215,-436 -303,0 -572,45 -269,45 -522,139 v 559 q 253,-137 500,-202 247,-66 503,-66 566,0 847,295 281,295 281,892 V 616 Q 2728,306 2450,153 2172,0 1784,0 1141,0 747,490 353,981 353,1791 q 0,812 394,1302 394,491 1037,491 388,0 666,-153 278,-153 456,-462 v 531 h 575 z"
               transform="scale(0.015625)" />
            <path
               id="DejaVuSans-64"
               d="m 2906,2969 v 1894 h 575 V 0 H 2906 V 525 Q 2725,213 2448,61 2172,-91 1784,-91 1150,-91 751,415 353,922 353,1747 q 0,825 398,1331 399,506 1033,506 388,0 664,-152 277,-151 458,-463 z M 947,1747 q 0,-634 261,-995 261,-361 717,-361 456,0 718,361 263,361 263,995 0,634 -263,995 -262,361 -718,361 -456,0 -717,-361 -261,-361 -261,-995 z"
               transform="scale(0.015625)" />
            <path
               id="DejaVuSans-73"
               d="m 2834,3397 v -544 q -243,125 -506,187 -262,63 -544,63 -428,0 -642,-131 -214,-131 -214,-394 0,-200 153,-314 153,-114 616,-217 l 197,-44 q 612,-131 870,-370 258,-239 258,-667 0,-488 -386,-773 Q 2250,-91 1575,-91 1294,-91 989,-36 684,19 347,128 v 594 q 319,-166 628,-249 309,-82 613,-82 406,0 624,139 219,139 219,392 0,234 -158,359 -157,125 -692,241 l -200,47 q -534,112 -772,345 -237,233 -237,639 0,494 350,762 350,269 994,269 318,0 599,-47 282,-46 519,-140 z"
               transform="scale(0.015625)" />
            <path
               id="DejaVuSans-70"
               d="M 1159,525 V -1331 H 581 v 4831 h 578 v -531 q 182,312 458,463 277,152 661,152 638,0 1036,-506 399,-506 399,-1331 0,-825 -399,-1332 -398,-506 -1036,-506 -384,0 -661,152 -276,152 -458,464 z m 1957,1222 q 0,634 -261,995 -261,361 -717,361 -457,0 -718,-361 -261,-361 -261,-995 0,-634 261,-995 261,-361 718,-361 456,0 717,361 261,361 261,995 z"
               transform="scale(0.015625)" />
            <path
               id="DejaVuSans-63"
               d="m 3122,3366 v -538 q -244,135 -489,202 -245,67 -495,67 -560,0 -870,-355 -309,-354 -309,-995 0,-641 309,-996 310,-354 870,-354 250,0 495,67 245,67 489,202 V 134 Q 2881,22 2623,-34 2366,-91 2075,-91 1284,-91 818,406 353,903 353,1747 q 0,856 470,1346 471,491 1290,491 265,0 518,-55 253,-54 491,-163 z"
               transform="scale(0.015625)" />
            <path
               id="DejaVuSans-74"
               d="M 1172,4494 V 3500 H 2356 V 3053 H 1172 V 1153 q 0,-428 117,-550 117,-122 477,-122 h 590 V 0 H 1766 Q 1100,0 847,248 594,497 594,1153 V 3053 H 172 v 447 h 422 v 994 z"
               transform="scale(0.015625)" />
          </defs>
          <use
             xlink:href="#DejaVuSans-23"
             id="use326" />
          <use
             xlink:href="#DejaVuSans-20"
             x="83.789062"
             id="use328" />
          <use
             xlink:href="#DejaVuSans-6f"
             x="115.57617"
             id="use330" />
          <use
             xlink:href="#DejaVuSans-66"
             x="176.75781"
             id="use332" />
          <use
             xlink:href="#DejaVuSans-20"
             x="211.96289"
             id="use334" />
          <use
             xlink:href="#DejaVuSans-61"
             x="243.75"
             id="use336" />
          <use
             xlink:href="#DejaVuSans-76"
             x="305.0293"
             id="use338" />
          <use
             xlink:href="#DejaVuSans-65"
             x="364.20898"
             id="use340" />
          <use
             xlink:href="#DejaVuSans-72"
             x="425.73242"
             id="use342" />
          <use
             xlink:href="#DejaVuSans-61"
             x="466.8457"
             id="use344" />
          <use
             xlink:href="#DejaVuSans-67"
             x="528.125"
             id="use346" />
          <use
             xlink:href="#DejaVuSans-65"
             x="591.60156"
             id="use348" />
          <use
             xlink:href="#DejaVuSans-64"
             x="653.125"
             id="use350" />
          <use
             xlink:href="#DejaVuSans-20"
             x="716.60156"
             id="use352" />
          <use
             xlink:href="#DejaVuSans-73"
             x="748.38867"
             id="use354" />
          <use
             xlink:href="#DejaVuSans-70"
             x="800.48828"
             id="use356" />
          <use
             xlink:href="#DejaVuSans-65"
             x="863.96484"
             id="use358" />
          <use
             xlink:href="#DejaVuSans-63"
             x="925.48828"
             id="use360" />
          <use
             xlink:href="#DejaVuSans-74"
             x="980.46875"
             id="use362" />
          <use
             xlink:href="#DejaVuSans-72"
             x="1019.6777"
             id="use364" />
          <use
             xlink:href="#DejaVuSans-61"
             x="1060.791"
             id="use366" />
        </g>
      </g>
    </g>
    <g
       id="matplotlib.axis_2" />
    <g
       id="patch_4">
      <path
         d="M 55.779096,43.112 H 322.56"
         style="fill:none;stroke:#000000;stroke-width:0.8;stroke-linecap:square;stroke-linejoin:miter"
         id="path373" />
    </g>
  </g>
  <g
     id="matplotlib.axis_3"
     transform="translate(-11.600971,-14.835437)">
    <g
       id="xtick_21">
      <g
         id="line2d_21">
        <defs
           id="defs378">
          <path
             id="mdbeb08cf4f"
             d="M 0,0 V 3.5"
             style="stroke:#000000;stroke-width:0.8" />
        </defs>
        <g
           id="g382">
          <use
             xlink:href="#mdbeb08cf4f"
             x="76.307281"
             y="216.088"
             style="stroke:#000000;stroke-width:0.8"
             id="use380" />
        </g>
      </g>
      <g
         id="text_5">
        <!-- $\mathdefault{10^{-3}}$ -->
        <g
           transform="matrix(0.1,0,0,-0.1,64.557281,230.68644)"
           id="g396">
          <defs
             id="defs386">
            <path
               id="DejaVuSans-2212"
               d="M 678,2272 H 4684 V 1741 H 678 Z"
               transform="scale(0.015625)" />
          </defs>
          <use
             xlink:href="#DejaVuSans-31"
             transform="translate(0,0.765625)"
             id="use388" />
          <use
             xlink:href="#DejaVuSans-30"
             transform="translate(63.623047,0.765625)"
             id="use390" />
          <use
             xlink:href="#DejaVuSans-2212"
             transform="matrix(0.7,0,0,0.7,128.20312,39.046875)"
             id="use392" />
          <use
             xlink:href="#DejaVuSans-33"
             transform="matrix(0.7,0,0,0.7,186.85547,39.046875)"
             id="use394" />
        </g>
      </g>
    </g>
    <g
       id="xtick_22">
      <g
         id="line2d_22">
        <g
           id="g402">
          <use
             xlink:href="#mdbeb08cf4f"
             x="200.13409"
             y="216.088"
             style="stroke:#000000;stroke-width:0.8"
             id="use400" />
        </g>
      </g>
      <g
         id="text_6">
        <!-- $\mathdefault{10^{-2}}$ -->
        <g
           transform="matrix(0.1,0,0,-0.1,188.38409,230.68644)"
           id="g413">
          <use
             xlink:href="#DejaVuSans-31"
             transform="translate(0,0.765625)"
             id="use405" />
          <use
             xlink:href="#DejaVuSans-30"
             transform="translate(63.623047,0.765625)"
             id="use407" />
          <use
             xlink:href="#DejaVuSans-2212"
             transform="matrix(0.7,0,0,0.7,128.20312,39.046875)"
             id="use409" />
          <use
             xlink:href="#DejaVuSans-32"
             transform="matrix(0.7,0,0,0.7,186.85547,39.046875)"
             id="use411" />
        </g>
      </g>
    </g>
    <g
       id="xtick_23">
      <g
         id="line2d_23">
        <defs
           id="defs418">
          <path
             id="m590eff7539"
             d="M 0,0 V 2"
             style="stroke:#000000;stroke-width:0.6" />
        </defs>
        <g
           id="g422">
          <use
             xlink:href="#m590eff7539"
             x="57.126266"
             y="216.088"
             style="stroke:#000000;stroke-width:0.6"
             id="use420" />
        </g>
      </g>
    </g>
    <g
       id="xtick_24">
      <g
         id="line2d_24">
        <g
           id="g428">
          <use
             xlink:href="#m590eff7539"
             x="64.30722"
             y="216.088"
             style="stroke:#000000;stroke-width:0.6"
             id="use426" />
        </g>
      </g>
    </g>
    <g
       id="xtick_25">
      <g
         id="line2d_25">
        <g
           id="g434">
          <use
             xlink:href="#m590eff7539"
             x="70.641273"
             y="216.088"
             style="stroke:#000000;stroke-width:0.6"
             id="use432" />
        </g>
      </g>
    </g>
    <g
       id="xtick_26">
      <g
         id="line2d_26">
        <g
           id="g440">
          <use
             xlink:href="#m590eff7539"
             x="113.58286"
             y="216.088"
             style="stroke:#000000;stroke-width:0.6"
             id="use438" />
        </g>
      </g>
    </g>
    <g
       id="xtick_27">
      <g
         id="line2d_27">
        <g
           id="g446">
          <use
             xlink:href="#m590eff7539"
             x="135.38768"
             y="216.088"
             style="stroke:#000000;stroke-width:0.6"
             id="use444" />
        </g>
      </g>
    </g>
    <g
       id="xtick_28">
      <g
         id="line2d_28">
        <g
           id="g452">
          <use
             xlink:href="#m590eff7539"
             x="150.85844"
             y="216.088"
             style="stroke:#000000;stroke-width:0.6"
             id="use450" />
        </g>
      </g>
    </g>
    <g
       id="xtick_29">
      <g
         id="line2d_29">
        <g
           id="g458">
          <use
             xlink:href="#m590eff7539"
             x="162.85851"
             y="216.088"
             style="stroke:#000000;stroke-width:0.6"
             id="use456" />
        </g>
      </g>
    </g>
    <g
       id="xtick_30">
      <g
         id="line2d_30">
        <g
           id="g464">
          <use
             xlink:href="#m590eff7539"
             x="172.66327"
             y="216.088"
             style="stroke:#000000;stroke-width:0.6"
             id="use462" />
        </g>
      </g>
    </g>
    <g
       id="xtick_31">
      <g
         id="line2d_31">
        <g
           id="g470">
          <use
             xlink:href="#m590eff7539"
             x="180.95308"
             y="216.088"
             style="stroke:#000000;stroke-width:0.6"
             id="use468" />
        </g>
      </g>
    </g>
    <g
       id="xtick_32">
      <g
         id="line2d_32">
        <g
           id="g476">
          <use
             xlink:href="#m590eff7539"
             x="188.13403"
             y="216.088"
             style="stroke:#000000;stroke-width:0.6"
             id="use474" />
        </g>
      </g>
    </g>
    <g
       id="xtick_33">
      <g
         id="line2d_33">
        <g
           id="g482">
          <use
             xlink:href="#m590eff7539"
             x="194.46809"
             y="216.088"
             style="stroke:#000000;stroke-width:0.6"
             id="use480" />
        </g>
      </g>
    </g>
    <g
       id="xtick_34">
      <g
         id="line2d_34">
        <g
           id="g488">
          <use
             xlink:href="#m590eff7539"
             x="237.40967"
             y="216.088"
             style="stroke:#000000;stroke-width:0.6"
             id="use486" />
        </g>
      </g>
    </g>
    <g
       id="xtick_35">
      <g
         id="line2d_35">
        <g
           id="g494">
          <use
             xlink:href="#m590eff7539"
             x="259.21451"
             y="216.088"
             style="stroke:#000000;stroke-width:0.6"
             id="use492" />
        </g>
      </g>
    </g>
    <g
       id="xtick_36">
      <g
         id="line2d_36">
        <g
           id="g500">
          <use
             xlink:href="#m590eff7539"
             x="274.68527"
             y="216.088"
             style="stroke:#000000;stroke-width:0.6"
             id="use498" />
        </g>
      </g>
    </g>
    <g
       id="xtick_37">
      <g
         id="line2d_37">
        <g
           id="g506">
          <use
             xlink:href="#m590eff7539"
             x="286.6853"
             y="216.088"
             style="stroke:#000000;stroke-width:0.6"
             id="use504" />
        </g>
      </g>
    </g>
    <g
       id="xtick_38">
      <g
         id="line2d_38">
        <g
           id="g512">
          <use
             xlink:href="#m590eff7539"
             x="296.49008"
             y="216.088"
             style="stroke:#000000;stroke-width:0.6"
             id="use510" />
        </g>
      </g>
    </g>
    <g
       id="xtick_39">
      <g
         id="line2d_39">
        <g
           id="g518">
          <use
             xlink:href="#m590eff7539"
             x="304.77988"
             y="216.088"
             style="stroke:#000000;stroke-width:0.6"
             id="use516" />
        </g>
      </g>
    </g>
    <g
       id="xtick_40">
      <g
         id="line2d_40">
        <g
           id="g524">
          <use
             xlink:href="#m590eff7539"
             x="311.96085"
             y="216.088"
             style="stroke:#000000;stroke-width:0.6"
             id="use522" />
        </g>
      </g>
    </g>
    <g
       id="xtick_41">
      <g
         id="line2d_41">
        <g
           id="g530">
          <use
             xlink:href="#m590eff7539"
             x="318.29489"
             y="216.088"
             style="stroke:#000000;stroke-width:0.6"
             id="use528" />
        </g>
      </g>
    </g>
    <g
       id="text_7">
      <!-- time (s) -->
      <g
         transform="matrix(0.1,0,0,-0.1,169.77814,244.36456)"
         id="g556">
        <defs
           id="defs538">
          <path
             id="DejaVuSans-69"
             d="m 603,3500 h 575 V 0 H 603 Z m 0,1363 h 575 V 4134 H 603 Z"
             transform="scale(0.015625)" />
          <path
             id="DejaVuSans-6d"
             d="m 3328,2828 q 216,388 516,572 300,184 706,184 547,0 844,-383 297,-382 297,-1088 V 0 h -578 v 2094 q 0,503 -179,746 -178,244 -543,244 -447,0 -707,-297 -259,-296 -259,-809 V 0 h -578 v 2094 q 0,506 -178,748 -178,242 -550,242 -441,0 -701,-298 -259,-298 -259,-808 V 0 H 581 v 3500 h 578 v -544 q 197,322 472,475 275,153 653,153 382,0 649,-194 267,-193 395,-562 z"
             transform="scale(0.015625)" />
          <path
             id="DejaVuSans-28"
             d="m 1984,4856 q -418,-718 -622,-1422 -203,-703 -203,-1425 0,-721 205,-1429 205,-708 620,-1424 h -500 q -468,735 -701,1444 -233,709 -233,1409 0,697 231,1403 232,707 703,1444 z"
             transform="scale(0.015625)" />
          <path
             id="DejaVuSans-29"
             d="m 513,4856 h 500 q 468,-737 701,-1444 233,-706 233,-1403 0,-700 -233,-1409 -233,-709 -701,-1444 H 513 q 415,716 620,1424 205,708 205,1429 0,722 -205,1425 -205,704 -620,1422 z"
             transform="scale(0.015625)" />
        </defs>
        <use
           xlink:href="#DejaVuSans-74"
           id="use540" />
        <use
           xlink:href="#DejaVuSans-69"
           x="39.208984"
           id="use542" />
        <use
           xlink:href="#DejaVuSans-6d"
           x="66.992188"
           id="use544" />
        <use
           xlink:href="#DejaVuSans-65"
           x="164.4043"
           id="use546" />
        <use
           xlink:href="#DejaVuSans-20"
           x="225.92773"
           id="use548" />
        <use
           xlink:href="#DejaVuSans-28"
           x="257.71484"
           id="use550" />
        <use
           xlink:href="#DejaVuSans-73"
           x="296.72852"
           id="use552" />
        <use
           xlink:href="#DejaVuSans-29"
           x="348.82812"
           id="use554" />
      </g>
    </g>
  </g>
  <g
     id="matplotlib.axis_4"
     transform="translate(-11.600971,-14.835437)">
    <g
       id="ytick_1">
      <g
         id="line2d_42">
        <defs
           id="defs561">
          <path
             id="m6705d49645"
             d="M 0,0 H -3.5"
             style="stroke:#000000;stroke-width:0.8" />
        </defs>
        <g
           id="g565">
          <use
             xlink:href="#m6705d49645"
             x="55.779095"
             y="156.62178"
             style="stroke:#000000;stroke-width:0.8"
             id="use563" />
        </g>
      </g>
      <g
         id="text_8">
        <!-- $\mathdefault{10^{-2}}$ -->
        <g
           transform="matrix(0.1,0,0,-0.1,25.279096,160.421)"
           id="g576">
          <use
             xlink:href="#DejaVuSans-31"
             transform="translate(0,0.765625)"
             id="use568" />
          <use
             xlink:href="#DejaVuSans-30"
             transform="translate(63.623047,0.765625)"
             id="use570" />
          <use
             xlink:href="#DejaVuSans-2212"
             transform="matrix(0.7,0,0,0.7,128.20312,39.046875)"
             id="use572" />
          <use
             xlink:href="#DejaVuSans-32"
             transform="matrix(0.7,0,0,0.7,186.85547,39.046875)"
             id="use574" />
        </g>
      </g>
    </g>
    <g
       id="ytick_2">
      <g
         id="line2d_43">
        <g
           id="g582">
          <use
             xlink:href="#m6705d49645"
             x="55.779095"
             y="76.036522"
             style="stroke:#000000;stroke-width:0.8"
             id="use580" />
        </g>
      </g>
      <g
         id="text_9">
        <!-- $\mathdefault{10^{-1}}$ -->
        <g
           transform="matrix(0.1,0,0,-0.1,25.279096,79.835739)"
           id="g593">
          <use
             xlink:href="#DejaVuSans-31"
             transform="translate(0,0.684375)"
             id="use585" />
          <use
             xlink:href="#DejaVuSans-30"
             transform="translate(63.623047,0.684375)"
             id="use587" />
          <use
             xlink:href="#DejaVuSans-2212"
             transform="matrix(0.7,0,0,0.7,128.20312,38.965625)"
             id="use589" />
          <use
             xlink:href="#DejaVuSans-31"
             transform="matrix(0.7,0,0,0.7,186.85547,38.965625)"
             id="use591" />
        </g>
      </g>
    </g>
    <g
       id="ytick_3">
      <g
         id="line2d_44">
        <defs
           id="defs598">
          <path
             id="m2abe2c13bc"
             d="M 0,0 H -2"
             style="stroke:#000000;stroke-width:0.6" />
        </defs>
        <g
           id="g602">
          <use
             xlink:href="#m2abe2c13bc"
             x="55.779095"
             y="212.94846"
             style="stroke:#000000;stroke-width:0.6"
             id="use600" />
        </g>
      </g>
    </g>
    <g
       id="ytick_4">
      <g
         id="line2d_45">
        <g
           id="g608">
          <use
             xlink:href="#m2abe2c13bc"
             x="55.779095"
             y="198.7581"
             style="stroke:#000000;stroke-width:0.6"
             id="use606" />
        </g>
      </g>
    </g>
    <g
       id="ytick_5">
      <g
         id="line2d_46">
        <g
           id="g614">
          <use
             xlink:href="#m2abe2c13bc"
             x="55.779095"
             y="188.68988"
             style="stroke:#000000;stroke-width:0.6"
             id="use612" />
        </g>
      </g>
    </g>
    <g
       id="ytick_6">
      <g
         id="line2d_47">
        <g
           id="g620">
          <use
             xlink:href="#m2abe2c13bc"
             x="55.779095"
             y="180.88036"
             style="stroke:#000000;stroke-width:0.6"
             id="use618" />
        </g>
      </g>
    </g>
    <g
       id="ytick_7">
      <g
         id="line2d_48">
        <g
           id="g626">
          <use
             xlink:href="#m2abe2c13bc"
             x="55.779095"
             y="174.49951"
             style="stroke:#000000;stroke-width:0.6"
             id="use624" />
        </g>
      </g>
    </g>
    <g
       id="ytick_8">
      <g
         id="line2d_49">
        <g
           id="g632">
          <use
             xlink:href="#m2abe2c13bc"
             x="55.779095"
             y="169.1046"
             style="stroke:#000000;stroke-width:0.6"
             id="use630" />
        </g>
      </g>
    </g>
    <g
       id="ytick_9">
      <g
         id="line2d_50">
        <g
           id="g638">
          <use
             xlink:href="#m2abe2c13bc"
             x="55.779095"
             y="164.43129"
             style="stroke:#000000;stroke-width:0.6"
             id="use636" />
        </g>
      </g>
    </g>
    <g
       id="ytick_10">
      <g
         id="line2d_51">
        <g
           id="g644">
          <use
             xlink:href="#m2abe2c13bc"
             x="55.779095"
             y="160.30916"
             style="stroke:#000000;stroke-width:0.6"
             id="use642" />
        </g>
      </g>
    </g>
    <g
       id="ytick_11">
      <g
         id="line2d_52">
        <g
           id="g650">
          <use
             xlink:href="#m2abe2c13bc"
             x="55.779095"
             y="132.3632"
             style="stroke:#000000;stroke-width:0.6"
             id="use648" />
        </g>
      </g>
    </g>
    <g
       id="ytick_12">
      <g
         id="line2d_53">
        <g
           id="g656">
          <use
             xlink:href="#m2abe2c13bc"
             x="55.779095"
             y="118.17284"
             style="stroke:#000000;stroke-width:0.6"
             id="use654" />
        </g>
      </g>
    </g>
    <g
       id="ytick_13">
      <g
         id="line2d_54">
        <g
           id="g662">
          <use
             xlink:href="#m2abe2c13bc"
             x="55.779095"
             y="108.10461"
             style="stroke:#000000;stroke-width:0.6"
             id="use660" />
        </g>
      </g>
    </g>
    <g
       id="ytick_14">
      <g
         id="line2d_55">
        <g
           id="g668">
          <use
             xlink:href="#m2abe2c13bc"
             x="55.779095"
             y="100.2951"
             style="stroke:#000000;stroke-width:0.6"
             id="use666" />
        </g>
      </g>
    </g>
    <g
       id="ytick_15">
      <g
         id="line2d_56">
        <g
           id="g674">
          <use
             xlink:href="#m2abe2c13bc"
             x="55.779095"
             y="93.914261"
             style="stroke:#000000;stroke-width:0.6"
             id="use672" />
        </g>
      </g>
    </g>
    <g
       id="ytick_16">
      <g
         id="line2d_57">
        <g
           id="g680">
          <use
             xlink:href="#m2abe2c13bc"
             x="55.779095"
             y="88.519333"
             style="stroke:#000000;stroke-width:0.6"
             id="use678" />
        </g>
      </g>
    </g>
    <g
       id="ytick_17">
      <g
         id="line2d_58">
        <g
           id="g686">
          <use
             xlink:href="#m2abe2c13bc"
             x="55.779095"
             y="83.846039"
             style="stroke:#000000;stroke-width:0.6"
             id="use684" />
        </g>
      </g>
    </g>
    <g
       id="ytick_18">
      <g
         id="line2d_59">
        <g
           id="g692">
          <use
             xlink:href="#m2abe2c13bc"
             x="55.779095"
             y="79.7239"
             style="stroke:#000000;stroke-width:0.6"
             id="use690" />
        </g>
      </g>
    </g>
    <g
       id="ytick_19">
      <g
         id="line2d_60">
        <g
           id="g698">
          <use
             xlink:href="#m2abe2c13bc"
             x="55.779095"
             y="51.777943"
             style="stroke:#000000;stroke-width:0.6"
             id="use696" />
        </g>
      </g>
    </g>
    <g
       id="text_10">
      <!-- resolution (GHz) -->
      <g
         transform="matrix(0,-0.1,-0.1,0,19.199409,170.16797)"
         id="g742">
        <defs
           id="defs708">
          <path
             id="DejaVuSans-6c"
             d="m 603,4863 h 575 V 0 H 603 Z"
             transform="scale(0.015625)" />
          <path
             id="DejaVuSans-75"
             d="m 544,1381 v 2119 h 575 V 1403 q 0,-497 193,-746 194,-248 582,-248 465,0 735,297 271,297 271,810 v 1984 h 575 V 0 H 2900 V 538 Q 2691,219 2414,64 2138,-91 1772,-91 1169,-91 856,284 544,659 544,1381 Z m 1447,2203 z"
             transform="scale(0.015625)" />
          <path
             id="DejaVuSans-6e"
             d="M 3513,2113 V 0 h -575 v 2094 q 0,497 -194,743 -194,247 -581,247 -466,0 -735,-297 -269,-296 -269,-809 V 0 H 581 v 3500 h 578 v -544 q 207,316 486,472 280,156 646,156 603,0 912,-373 310,-373 310,-1098 z"
             transform="scale(0.015625)" />
          <path
             id="DejaVuSans-47"
             d="M 3809,666 V 1919 H 2778 v 519 H 4434 V 434 Q 4069,175 3628,42 3188,-91 2688,-91 1594,-91 976,548 359,1188 359,2328 q 0,1144 617,1783 618,639 1712,639 456,0 867,-113 411,-112 758,-331 v -672 q -350,297 -744,447 -394,150 -828,150 -857,0 -1287,-478 -429,-478 -429,-1425 0,-944 429,-1422 430,-478 1287,-478 334,0 596,58 263,58 472,180 z"
             transform="scale(0.015625)" />
          <path
             id="DejaVuSans-48"
             d="m 628,4666 h 631 V 2753 h 2294 v 1913 h 631 V 0 H 3553 V 2222 H 1259 V 0 H 628 Z"
             transform="scale(0.015625)" />
          <path
             id="DejaVuSans-7a"
             d="M 353,3500 H 3084 V 2975 L 922,459 H 3084 V 0 H 275 V 525 L 2438,3041 H 353 Z"
             transform="scale(0.015625)" />
        </defs>
        <use
           xlink:href="#DejaVuSans-72"
           id="use710" />
        <use
           xlink:href="#DejaVuSans-65"
           x="38.863281"
           id="use712" />
        <use
           xlink:href="#DejaVuSans-73"
           x="100.38672"
           id="use714" />
        <use
           xlink:href="#DejaVuSans-6f"
           x="152.48633"
           id="use716" />
        <use
           xlink:href="#DejaVuSans-6c"
           x="213.66797"
           id="use718" />
        <use
           xlink:href="#DejaVuSans-75"
           x="241.45117"
           id="use720" />
        <use
           xlink:href="#DejaVuSans-74"
           x="304.83008"
           id="use722" />
        <use
           xlink:href="#DejaVuSans-69"
           x="344.03906"
           id="use724" />
        <use
           xlink:href="#DejaVuSans-6f"
           x="371.82227"
           id="use726" />
        <use
           xlink:href="#DejaVuSans-6e"
           x="433.00391"
           id="use728" />
        <use
           xlink:href="#DejaVuSans-20"
           x="496.38281"
           id="use730" />
        <use
           xlink:href="#DejaVuSans-28"
           x="528.16992"
           id="use732" />
        <use
           xlink:href="#DejaVuSans-47"
           x="567.18359"
           id="use734" />
        <use
           xlink:href="#DejaVuSans-48"
           x="644.67383"
           id="use736" />
        <use
           xlink:href="#DejaVuSans-7a"
           x="719.86914"
           id="use738" />
        <use
           xlink:href="#DejaVuSans-29"
           x="772.35938"
           id="use740" />
      </g>
    </g>
  </g>
  <g
     id="line2d_61"
     transform="translate(-11.600971,-14.835437)">
    <path
       d="m 67.905501,50.974545 8.983717,3.154727 11.166285,3.789853 3.260228,1.108995 8.739829,2.727148 2.6238,0.893968 7.18096,2.728158 4.30448,1.501084 5.87245,2.015113 1.82313,0.45593 1.76335,0.56201 3.36217,1.302798 3.16429,0.996942 1.51495,0.614745 1.47344,0.464617 2.83104,1.04178 5.25073,1.693875 4.78336,1.685302 4.39242,1.257645 5.02958,1.725103 5.4736,1.832382 1.70736,0.587844 7.8075,2.591028 0.72185,0.124666 3.47071,1.132923 0.66805,0.163579 1.3117,0.520139 2.53117,0.697236 5.85112,2.052416 0.55157,0.07226 4.72494,1.645568 5.71624,1.798735 1.77793,0.589443 1.2959,0.396405 4.89222,1.618221 0.77378,0.185767 1.1402,0.495417 1.48361,0.404842 1.44377,0.55216 4.11237,1.322664 2.89022,1.032807 2.74278,0.85526 3.17277,1.1844 0.83378,0.30499 2.16219,0.73622 0.78892,0.31716 4.02261,1.28668 0.72185,0.29144 0.7123,0.20671 3.2047,1.11307 1.53347,0.35577 1.06916,0.38869 1.25556,0.40503 2.42646,0.95808 0.58988,0.11922 14.03398,4.74451 0.59919,0.18273 1.90253,0.5439 0.85589,0.26021 1.39689,0.49507 0.27508,0.0583 1.48827,0.48634 0.39884,0.0668 2.33288,0.90185 1.00521,0.30307 0.61885,0.25765 1.93377,0.65487 0.11859,0.0999 0.11832,-0.0516 0.23586,0.15088 1.04878,0.42403 0.57394,0.18353 3.74829,1.28266 0.10639,-0.0204 0.42344,0.28649 2.16999,0.81868 0.30297,0.0661 1.09651,0.35005 0.49113,0.21825 0.29253,0.20462 0.19414,0.0235 0.67403,0.20949 0.19104,-0.0112 1.03875,0.485 0.74305,0.17326 0.55063,0.11342 0.27321,0.16007 0.63215,0.23596 0.71347,0.28307 3.76338,1.25849 0.24726,0.12536 0.49112,0.22011 0.0814,-0.0209 0.24352,0.16171 0.72401,0.30252 0.31868,0.006 2.33175,0.79665 1.42614,0.49791 1.82067,0.65006 0.28567,0.12387 0.28416,0.0594 0.42344,0.13204 1.04425,0.43491 0.20644,0.10645 0.20565,0.094 0.20487,0.0464 0.27194,0.0435 0.20307,0.10206 0.73806,0.23153 0.33217,0.20181 0.26426,0.0664 0.13164,0.0558 1.10617,0.39547 0.19287,0.0531 0.63793,0.27612 0.50496,0.14762 0.0628,-0.0576 0.0627,0.0787 0.4991,0.13274 0.24782,0.0522 0.43096,0.20741 0.1225,0.005 0.36583,0.14187 0.12139,0.0495 0.78245,0.19824 0.17896,0.0836 0.11898,0.0188 0.29629,0.17812 0.29467,0.053 0.17603,0.14445 0.52466,0.14718 0.17376,-0.028 0.57516,0.29933 0.17136,0.0144 0.17081,0.0182 0.67788,0.25062 0.50285,0.16718 0.16658,0.0108 0.60641,0.29462 0.21884,0.11702 0.10908,0.0374 0.70369,0.30569 v 0"
       clip-path="url(#p9442335f24)"
       style="fill:none;stroke:#1f77b4;stroke-width:3;stroke-linecap:square"
       id="path746" />
  </g>
  <g
     id="line2d_62"
     transform="translate(-11.600971,-14.835437)">
    <path
       d="m 67.905501,75.119654 4.679237,1.425528 8.289807,2.868371 3.71025,1.331108 9.804762,2.702854 17.666063,6.363022 6.09451,1.996237 1.88712,0.803096 3.58648,0.745089 4.96758,1.935477 1.55888,0.399384 4.42254,1.61931 1.39689,0.655071 1.36152,0.488476 2.62381,0.514592 1.2654,0.534907 2.44485,0.576834 1.18196,0.24697 2.28875,0.86395 3.26022,1.02269 2.06862,1.01009 1.00521,0.19448 1.95575,0.69493 0.95184,0.39002 1.85457,0.55112 8.41986,3.24279 1.5366,0.44512 2.22559,0.92282 0.72185,0.0962 1.41527,0.51681 2.05544,0.52876 0.66805,0.0768 1.95575,0.64571 3.10938,0.95596 1.78284,0.75334 0.58138,0.0906 0.57516,0.34251 0.56908,0.0689 1.1204,0.42748 0.55157,0.002 5.2252,2.05637 0.98677,0.13458 3.31771,1.32764 0.9115,0.13868 1.33893,0.31812 3.41558,0.91463 0.82104,0.42466 0.40587,0.0153 0.80266,0.31722 1.57025,0.28531 1.5257,0.62627 0.37476,0.0269 0.74177,0.25389 1.45352,0.60422 0.35733,-0.0395 3.44844,0.91809 0.66393,0.16332 0.65583,0.29251 1.28814,0.38138 0.31727,0.27603 0.31541,-0.0312 0.62532,0.21969 0.30996,-0.0252 0.30818,0.21784 0.91409,0.14656 0.30127,-0.0135 5.69604,1.97653 0.53778,0.15587 1.84096,0.87756 0.51462,0.1446 0.76281,0.2672 0.5026,0.23284 0.49794,0.17999 0.73837,0.17117 1.20853,0.41668 0.23848,-0.0172 0.70917,0.28582 0.69993,0.22478 1.14668,0.5307 0.45191,0.0661 0.22454,0.10829 0.22361,-0.0397 0.88524,0.22272 0.21905,-0.001 0.21817,0.14225 0.43369,-1.7e-4 0.21554,0.098 0.21468,-0.0638 0.63894,0.32109 0.42179,0.11066 0.20966,0.15582 0.41688,-0.0746 0.41367,0.32712 0.81792,0.42 0.40434,0.16734 0.20104,0.11662 0.20029,-0.0274 0.59643,0.24378 0.39397,0.0281 0.19591,0.17293 0.1952,-0.0374 0.96551,0.30092 0.19104,-0.0532 0.75744,0.3561 0.56115,0.0347 1.64918,0.67398 0.18016,-0.01 0.17956,0.16612 0.35732,0.0555 0.53158,0.0977 0.35149,0.1341 1.72378,0.51272 0.16937,-0.0797 0.67223,0.45628 0.16675,-0.0483 0.16624,0.15113 0.16572,-0.10362 0.16521,0.21455 0.16471,-0.0417 0.16421,0.14544 0.1637,-0.0142 0.16321,0.13916 0.32494,0.0551 0.48376,0.10196 0.47944,0.0538 0.15887,-0.0201 0.1584,0.16153 0.94074,0.0216 0.46427,0.22193 0.15387,-0.10383 0.30642,0.20068 0.60766,0.0815 0.15085,-0.0631 1.04425,0.49361 0.4414,0.0584 0.72772,0.4209 1.56713,0.28134 0.69751,0.24817 1.09753,0.38717 0.40587,0.13852 0.40283,0.0516 0.39983,0.2045 0.26492,0.0487 2.70553,0.94531 0.25071,0.0659 0.24955,0.10634 0.74177,0.37062 2.04776,0.65113 0.11806,0.17814 0.1178,-0.10991 0.93326,0.43251 0.2308,-0.005 0.68653,0.45336 0.22691,-0.0888 0.33857,0.26677 0.11239,-0.007 0.22407,0.1457 0.11169,0.0497 0.11146,-0.0826 0.22222,0.14083 0.2213,-0.007 0.2204,0.007 1.73141,0.66109 0.10639,-0.007 0.21214,0.19487 0.42178,0.28397 0.10493,0.13316 0.20925,-0.0177 0.31236,0.16218 0.31055,0.0191 0.81948,0.29259 0.20294,0.0167 0.504,0.1956 0.10024,-0.0409 0.2996,0.31742 0.19881,-0.04 0.0991,-0.01 0.19771,0.12167 0.0986,-0.0263 0.29467,0.1584 0.0979,0.01 0.19519,0.20868 0.38829,0.0779 1.24291,0.31835 0.47049,0.26713 0.28034,0.004 0.18608,0.008 0.0928,-0.0131 0.18512,0.13345 0.18448,0.0223 0.91305,0.33483 0.18077,0.048 0.18015,0.0492 0.44778,0.2058 0.17807,0.0762 0.0888,0.10083 0.1772,-0.0954 0.35263,0.29182 0.17546,-0.0474 0.60963,0.38887 0.17292,0.0314 0.25833,0.15445 0.25711,0.22954 0.17072,-0.12619 1.26342,0.55425 0.16624,-0.093 0.16572,0.12614 0.0827,-0.0324 0.0826,0.16638 0.16471,-0.0197 0.49112,0.26451 0.0814,-0.0256 0.24352,0.20814 0.16173,-0.0295 0.0807,0.1479 0.0806,-0.0775 0.40103,0.25876 0.31868,-0.13044 0.15864,0.0492 0.0791,-0.13267 0.079,0.15421 0.0789,-0.0433 0.23603,0.12649 0.54676,0.19292 0.1552,0.0401 0.38606,0.14917 0.15365,-0.0702 0.22965,0.22132 0.0763,-0.0313 0.30425,0.23157 0.0758,0.0178 0.0757,0.15751 0.0756,-0.11817 0.0755,0.0572 0.0754,-0.0687 0.30043,0.24944 0.3732,0.12836 0.0743,-0.0302 0.14835,0.0819 0.14794,0.0783 0.66076,0.18394 0.3636,0.0915 0.50496,0.40191 0.78404,0.21543 0.21186,0.18463 0.14078,-0.0831 0.35034,0.29131 0.48668,0.0507 0.34495,0.17376 0.27437,0.0104 0.20487,0.0472 0.20409,0.15862 0.20332,0.22532 0.20255,-0.11379 0.0673,-0.028 0.20154,0.27051 0.20079,-0.008 0.13344,0.17414 0.13311,0.13293 0.0664,-0.0329 0.1988,0.14617 0.13213,-0.0477 0.13181,0.0378 0.19711,0.22614 0.131,0.0225 0.65028,0.22523 0.12912,0.18384 0.12881,-0.15746 0.57584,0.0853 0.0636,-0.0289 0.19036,0.24103 0.44158,0.10134 0.1255,-0.004 0.12521,0.11179 0.0625,-0.0744 0.0624,0.0532 0.18683,0.13665 0.0621,-0.13231 0.0621,0.0903 0.18576,-0.0653 0.85849,0.42531 0.12153,-0.1071 0.18178,0.12961 0.12085,0.0146 0.48069,0.1687 0.0598,0.002 0.17896,0.18217 0.82736,0.22265 0.17565,0.14307 0.2333,-0.0562 0.29022,0.1349 0.17338,-0.009 0.45964,0.21116 0.1143,-0.0652 0.11406,0.14697 0.0569,-0.17253 0.0569,0.0666 0.17027,-0.0737 0.11322,-0.0644 0.0565,0.13749 0.0565,-0.0709 0.0564,-0.0791 0.33716,0.50953 0.3907,0.21585 0.16658,-0.0381 0.16607,0.12269 0.11042,0.041 0.16522,-0.0429 0.32891,0.33718 0.43545,0.10229 0.43195,0.37046 v 0"
       clip-path="url(#p9442335f24)"
       style="fill:none;stroke:#ff7f0e;stroke-width:3;stroke-linecap:square"
       id="path749" />
  </g>
  <g
     id="line2d_63"
     transform="translate(-11.600971,-14.835437)">
    <path
       d="m 67.905501,102.02354 4.679237,1.96878 4.30448,1.33555 7.695577,2.83644 3.470708,1.31922 3.260228,0.16601 3.073826,0.43946 2.907589,1.30599 5.382214,2.6503 2.50172,1.08918 2.3905,0.53526 2.28874,1.35483 2.1953,0.70477 2.10918,0.852 2.02957,0.65828 3.84288,1.57348 1.82313,-0.0836 1.76335,0.1789 4.96758,2.8139 1.55888,0.0718 1.51495,0.23256 1.47344,0.53246 1.43415,0.17775 2.75841,0.53569 2.62381,0.003 3.71025,1.21519 1.18196,-0.0398 1.15655,0.55741 1.1322,0.32765 1.10884,0.99874 1.08645,0.61257 1.06493,0.17496 1.04426,0.45564 1.02436,0.56895 1.00521,0.20513 1.95575,1.14451 2.80641,0.81243 0.90384,0.66397 0.8889,0.34694 0.87445,0.0974 0.86046,0.57097 0.8469,-0.005 0.83377,0.69502 1.62974,0.3261 0.79672,0.283 0.78508,0.42269 1.5366,-0.0482 0.75214,0.44479 0.74177,-0.0424 0.73168,0.49034 0.72185,0.2635 0.71229,0.58309 0.70298,0.0747 0.69391,0.21581 0.68507,0.38043 0.67646,0.0552 0.66805,-0.1495 0.65985,0.12431 0.65185,0.31322 0.64405,-0.0527 1.88712,0.98579 0.6146,-0.0921 0.60766,0.41789 0.60087,-0.003 0.59423,0.39168 2.31336,0.27987 1.1204,0.57464 0.55157,-0.23654 0.54597,0.23506 0.54048,0.4427 0.5351,0.14542 0.52983,-0.002 1.04425,0.17788 0.51462,0.0967 1.01469,0.43056 1.48703,-0.0653 0.48668,0.0745 0.48231,0.34141 0.47802,0.0324 0.47381,0.31828 0.46968,0.0137 0.4656,0.41043 0.46161,-0.15632 0.45769,0.19828 0.45381,-0.0483 0.45003,0.28301 0.44628,-0.0891 0.88162,0.23227 0.86739,-0.15547 0.42851,0.33108 0.8469,0.1768 0.41851,-0.10197 0.41527,0.16303 0.82104,0.8017 0.40587,-0.25594 0.40283,0.25051 0.79671,-0.0842 0.78509,0.12845 0.38828,-0.002 1.14832,0.28446 0.37738,0.42592 0.37476,0.16073 0.37216,0.31789 0.36961,0.15198 0.36708,-0.0448 1.79874,0.41909 0.35264,0.3407 0.69841,0.0707 0.34584,0.33199 0.34362,-0.09 1.0179,0.52561 0.33506,0.30256 0.33299,-0.16366 0.98677,0.17744 0.32494,-0.10612 0.64404,0.42929 0.31916,-0.0632 0.31727,0.44492 0.31541,-0.25845 0.31357,0.25152 0.92989,-0.016 0.30643,0.0962 0.90893,-0.23335 0.59753,-0.0882 0.2963,0.0782 0.29467,0.286 0.29306,-0.0266 0.58138,0.22814 0.28835,-0.0621 0.28682,0.26962 0.28529,0.0709 0.28378,0.22571 0.2823,0.0568 0.28082,0.3471 0.55729,-0.09 0.27649,0.25414 0.27507,-0.10333 0.27368,0.34293 0.27229,0.003 0.27092,0.21807 0.26956,-0.11392 0.5351,0.15437 0.52983,0.15637 0.52466,0.25939 0.26043,-0.12411 0.25916,0.22672 0.25793,-0.21796 0.76643,0.28495 0.25307,0.20473 0.25189,-0.0789 0.25071,0.38126 0.49794,0.19625 0.24725,-0.12245 0.24612,0.16011 0.245,-0.0341 0.72838,0.49639 0.71863,0.0123 0.47382,0.24634 0.46967,-0.30739 0.23331,0.002 0.92323,0.36575 0.22836,0.0669 0.22739,0.19658 0.22643,-0.14426 0.22548,0.22165 0.44815,-0.34695 0.44444,0.18944 0.22085,0.11617 0.439,-0.01 0.21817,0.3314 0.43369,-0.14524 0.21554,0.25145 0.21468,-0.29733 0.63894,0.4381 0.21131,0.005 0.62898,0.59399 0.20804,-0.0297 0.82419,0.67807 0.20408,0.0784 0.20332,-0.13166 0.40434,0.10717 0.20104,0.24545 0.20029,-0.0308 0.19954,0.13228 0.19881,-0.11587 0.59205,0.27129 0.19591,0.089 0.38969,-0.33699 0.1938,-0.0133 0.19309,0.20624 0.38413,-0.11686 0.19104,0.0117 0.38005,0.29579 0.18902,0.0579 0.18837,0.39733 0.37475,-0.21478 0.1864,-0.0311 0.18576,0.23861 0.18512,-0.18938 0.18449,0.16561 0.36708,0.0647 0.18261,0.25082 0.18198,-0.0898 0.18138,0.20906 0.36092,-0.0115 0.17956,0.20492 0.35732,0.0123 0.17778,0.0742 0.17719,0.21123 0.17661,-0.0894 0.17603,0.44125 0.35034,-0.22988 0.17432,0.10721 0.17376,-0.0875 0.34583,0.36201 0.17209,-0.005 0.34253,0.29308 0.17045,-0.0622 0.16992,-0.19787 0.16937,0.0531 0.50496,0.60152 0.16727,-0.1582 0.33299,0.0993 0.16572,-0.29046 0.16521,0.2349 0.16471,-0.071 0.16421,0.1726 0.32691,-0.1975 0.64793,0.2203 0.32106,0.24907 0.47802,-0.29192 0.47381,0.35109 0.15702,-0.18178 0.15656,0.0983 0.1561,-0.20997 0.46561,0.26192 0.15431,-0.0467 0.15387,-0.20408 0.15343,0.35497 0.15299,-0.0935 0.30469,-0.0151 0.1517,-0.0483 0.30212,0.0801 0.15042,-0.0662 0.59754,0.38309 0.29629,0.009 0.14754,-0.0445 1.16595,0.67505 0.43079,0.054 0.14284,0.11562 0.14245,-0.0484 0.14208,0.10965 0.28304,-0.16836 0.42179,0.53127 0.13986,-0.11056 0.27864,0.42068 0.2772,-0.0936 0.27578,0.0506 0.13737,-0.0562 0.40999,0.4742 0.2716,-0.10345 0.40485,0.29811 0.53511,0.16791 0.39786,0.18205 0.26361,-0.17214 0.26233,0.2202 0.39111,0.0769 0.12974,0.15038 0.25854,-0.10174 0.38551,0.24444 0.12789,-0.0877 0.38185,0.25596 0.37916,0.0481 0.25129,0.14216 0.25013,0.38647 0.24897,0.17024 0.24782,0.13041 0.24669,0.0766 0.73334,-0.11126 0.12125,0.14124 0.2417,-0.28777 0.12044,0.0573 0.12017,-0.0882 0.11991,0.22636 0.11964,-0.21368 0.35732,0.32617 0.11859,-0.0655 0.23638,0.33803 0.1178,-0.31467 0.11755,0.17381 0.11729,-0.0603 0.35034,0.27672 0.2323,-0.0563 0.11578,0.18633 0.11552,-0.0952 0.11528,0.19379 0.11503,-0.0799 0.5715,0.40921 0.22691,-0.18008 0.22595,0.3665 0.22501,-0.13043 0.22407,0.13987 0.44537,0.22513 0.11076,0.25357 0.22086,-0.1234 0.11008,-0.0604 0.2195,0.47864 0.21861,-0.031 0.32625,0.41083 0.10832,-0.15657 0.10809,0.16306 0.21554,0.007 0.10745,-0.004 0.10723,-0.13976 0.10702,0.11296 0.10681,-0.31144 0.10659,0.3195 0.10639,-0.0583 0.21214,0.14349 0.10575,-0.0242 0.2109,0.2163 0.10513,-0.18618 0.10493,0.33638 0.20925,-0.12957 0.31236,0.46092 0.20724,-0.28455 0.41208,0.2537 0.30701,0.0429 0.2037,0.22056 0.30412,0.27394 0.20179,0.0521 0.20103,0.22517 0.10024,-0.21293 0.19992,0.18782 0.0997,0.22077 0.0995,-0.12069 0.39615,0.27972 0.0986,-0.12924 0.29467,0.52108 0.0979,-0.0558 0.0977,0.22243 0.19485,-0.10118 0.0972,0.0662 0.097,-0.15058 0.0968,0.13023 0.1931,-0.21811 0.38412,-0.0947 0.19104,-0.0918 0.19036,0.19634 0.28429,0.084 0.28279,0.29859 0.1877,0.14465 0.18706,0.32244 0.0933,-0.028 0.18608,0.28562 0.0928,-0.15455 0.0926,0.13318 0.36897,-0.16701 0.18354,0.18134 0.18292,-0.26888 0.0912,0.19307 0.0911,-0.34306 0.0909,0.0757 0.0908,0.0361 0.18107,0.20085 0.18046,-0.0114 0.09,-0.0871 0.17956,0.0866 0.0896,0.35343 0.0894,-0.18612 0.0893,0.065 0.0891,-0.025 0.17777,0.22716 0.1772,-0.23677 0.1766,0.22547 0.0881,-0.0546 0.17574,0.17293 0.0877,-0.13361 0.17489,0.14497 0.0872,-0.0823 0.17403,0.42449 0.0868,-0.21058 0.25959,0.32545 0.0863,-0.1037 0.17208,0.24397 0.0858,0.0573 0.17127,0.36402 0.17072,-0.28108 0.0852,0.0836 0.085,0.15499 0.0849,-0.10198 0.0847,0.29005 0.16912,-0.20683 0.16858,0.079 0.0841,-0.1443 0.084,0.22724 0.16753,-0.27264 0.25032,0.27725 0.16624,-0.0366 0.0829,0.46961 0.0828,-0.0383 0.0827,-0.0406 0.0826,0.1023 0.0824,-0.0831 0.16446,0.35775 0.24575,0.009 0.24463,0.0644 0.16246,0.13459 0.0811,0.14067 0.16173,-0.17347 0.0807,0.28111 0.0806,-0.0441 0.24098,0.20328 0.0801,-0.16553 0.08,0.0859 0.15958,-0.006 0.1591,-0.17448 0.15864,-0.0831 0.0791,-0.0401 0.079,0.32226 0.0789,-0.28855 0.0788,0.0682 0.39225,0.0731 0.23398,0.26886 0.38773,0.16634 0.0772,-0.0699 0.15409,0.25584 0.0769,-0.29396 0.0768,0.0684 0.0767,0.007 0.0765,0.20779 0.15278,-0.17036 0.15234,0.24853 0.45446,0.46596 0.0754,-0.35545 0.22548,0.40991 0.1498,0.15097 0.0747,-0.1302 0.14918,0.0845 0.0744,-0.14984 0.22268,0.39038 0.074,-0.22501 0.0739,0.0685 0.36809,0.0656 0.21965,0.23563 0.43662,0.0922 0.14476,0.13009 0.0722,-0.1204 0.0721,0.2691 0.072,-0.0314 0.21554,0.10106 0.35733,0.0503 0.0712,0.007 0.0711,0.15451 0.071,-0.17539 0.21242,0.2113 0.28192,-0.25463 0.21048,0.48108 0.07,-0.21688 0.0699,0.11142 0.0698,0.0603 0.0697,-0.17548 0.0696,0.0679 0.0695,0.0425 0.0694,-0.14177 0.20777,0.23546 0.0691,-0.18421 0.20671,0.3941 0.13736,-0.28846 0.0686,0.0482 0.13684,0.22515 0.0683,-0.12602 0.0682,0.11274 0.0681,-0.0827 0.13597,0.0776 0.0679,0.21749 0.0678,-0.13259 0.2028,0.18174 0.13478,-0.19167 0.20154,0.42061 0.20079,-0.26487 0.13344,0.20873 0.2659,0.4158 0.0663,-0.2096 0.0662,0.0294 0.13213,0.0113 0.0659,-0.16664 0.0659,0.071 0.19711,0.22171 0.0655,-0.12855 0.0655,0.21916 0.13069,-0.26172 0.13037,0.23121 0.0651,-0.2197 0.065,0.20315 0.0649,-0.12849 0.12959,0.21655 0.0647,-0.27425 0.0646,0.12136 0.0645,0.34306 0.0644,-0.21578 0.0644,0.12974 0.0643,-0.0359 0.12835,-0.13574 0.0641,0.32458 0.064,-0.056 0.19149,0.17001 0.12729,-0.24366 0.12698,0.35097 0.12669,0.052 0.18946,0.19157 0.12595,-0.0419 0.18836,0.26199 0.1877,-0.15346 0.24926,0.33386 0.0621,-0.1453 0.0621,0.15281 0.18576,-0.35716 0.0618,0.2094 0.0617,-0.0231 0.1232,0.0623 0.0615,0.26047 0.0614,-0.023 0.0614,-0.15121 0.0613,0.091 0.0612,-0.0583 0.24416,0.68958 0.1824,-0.31999 0.0607,0.34219 0.0606,-0.0802 0.30195,-1.6e-4 0.1203,0.19715 0.23981,-0.12645 0.0598,-0.0821 0.17896,0.33886 0.0595,0.1081 0.0595,-0.18753 0.17797,0.26662 0.11832,-0.15047 0.0591,0.0793 0.17681,0.19273 0.11754,-0.0135 0.0587,-0.0639 0.17565,0.28729 0.2333,-0.0565 0.11628,0.32175 0.11602,-0.2642 0.0579,0.23753 0.0579,-0.0941 0.11552,0.12251 0.0577,0.13914 0.0576,-0.0667 0.0576,-0.0135 0.11491,0.25181 0.11466,-0.1759 0.17154,0.1405 0.0571,-0.0868 0.057,0.22309 0.0569,-0.0691 0.28379,-0.38157 0.0566,0.0168 0.0565,0.30541 0.0565,-0.0824 0.0564,-0.16032 0.0563,0.13098 0.22477,0.53726 0.22384,0.27099 0.11157,-0.1791 0.0557,0.35385 0.0556,-0.32171 0.0556,0.26617 0.0555,-0.0776 0.27678,-0.0111 0.2204,0.53984 0.055,-0.15777 0.0549,0.2585 0.0548,-0.20807 0.21884,0.18736 0.27229,0.10778 0.16271,0.20627 0.0541,0.0351 0.0541,-0.14767 0.054,0.10285 0.054,0.003 0.16158,0.46394 v 0"
       clip-path="url(#p9442335f24)"
       style="fill:none;stroke:#2ca02c;stroke-width:3;stroke-linecap:square"
       id="path752" />
  </g>
  <g
     id="line2d_64"
     transform="translate(-11.600971,-14.835437)">
    <path
       d="m 67.905501,140.71419 4.679237,2.5872 4.30448,-0.21051 3.985327,0.0384 7.180958,1.50251 3.260228,-1.79012 3.073826,1.35993 2.907589,1.41569 2.758414,2.74367 2.6238,0.041 2.50172,0.87847 2.3905,0.99676 2.28874,2.16569 2.1953,0.43345 2.10918,0.67406 2.02957,0.20786 3.84288,1.58 1.82313,-0.69529 1.76335,0.80649 1.70736,0.93821 3.26022,5.04844 1.55888,1.42877 1.51495,0.95713 1.47344,0.44413 1.43415,0.0246 1.39689,-1.29576 1.36152,0.52634 1.32791,-0.43086 1.2959,-0.83784 1.2654,1.4145 1.23632,-0.009 1.20853,1.35679 1.18196,-0.51404 1.15655,0.94589 1.1322,-0.70976 1.10884,0.72558 1.08645,1.07663 1.06493,1.74849 1.04426,0.33812 1.02436,1.01164 1.00521,-0.17795 0.98677,0.54101 0.96898,1.27839 0.95184,-0.98934 0.93528,1.08868 0.91929,-1.55982 0.90384,-0.67444 0.8889,1.15475 0.87445,0.23995 0.86046,1.07517 0.8469,-0.91571 0.83377,0.3174 0.82105,0.49167 0.80869,-0.92731 0.79672,-0.42071 0.78508,1.00641 0.77379,-1.05161 0.76281,-0.0664 1.49391,-0.79222 0.73168,1.395 0.72185,0.45013 0.71229,0.88921 0.70298,0.0186 0.69391,0.22213 0.68507,0.4934 0.67646,-0.21132 1.3279,-1.81338 1.2959,0.49547 0.63643,0.76069 0.62898,-0.63023 0.62171,0.81411 0.6146,-0.4642 0.60766,0.11228 0.60087,-0.30275 0.59423,0.28783 1.16912,-1.10957 0.57516,1.29621 0.56908,-0.51131 0.56312,1.14278 0.55728,0.059 0.55157,-0.52175 0.54597,1.26435 0.54048,0.22623 0.5351,0.36729 0.52983,-0.67006 0.52466,0.61661 0.51959,-0.3156 0.51462,0.24108 0.50974,-0.26486 0.50495,0.22016 0.50026,-1.17427 0.49565,-0.28761 0.49112,0.71007 0.48668,-0.27008 0.48231,0.86184 0.47802,-1.16308 0.47381,0.89548 0.46968,-0.26232 0.4656,0.52403 0.46161,-0.61934 0.45769,0.38649 0.45381,-0.005 0.45003,-0.1377 0.8889,0.53116 0.439,0.75415 0.43544,-1.05654 0.43195,-0.0543 0.42851,0.32461 0.42512,0.0732 0.42178,-0.38396 0.41851,0.19407 1.23631,1.12945 0.40587,-0.81795 0.40283,0.44247 0.39983,-0.58316 0.39688,0.5229 0.39398,-0.26086 0.39111,0.38908 0.38828,0.0945 0.76826,-0.0826 0.38006,0.42833 0.37738,0.98022 0.37476,-0.45355 0.37216,0.54383 0.73669,-0.52607 0.36459,0.001 0.36214,0.30945 0.35971,-0.20952 0.35733,-0.74885 0.35497,0.17933 0.35264,-0.31884 0.35034,0.33667 0.34807,0.16718 0.34584,-0.0391 0.34362,-0.27021 0.34145,0.37502 0.33929,0.80875 0.67222,0.82535 0.33299,-0.22301 0.65985,-0.0361 0.32692,-0.20831 0.64793,-0.65248 0.32105,0.0999 0.31916,-0.24035 0.31727,0.38514 0.31541,-0.57107 0.31357,0.41934 0.31175,-0.29167 0.30996,0.0947 0.30818,-0.4263 0.30643,0.50661 0.30468,-0.18935 0.30298,0.47373 0.30127,0.0473 0.2996,-0.16125 0.29793,-0.37325 0.2963,0.15457 0.29467,0.72917 0.29306,-0.41917 0.29148,-0.18277 0.2899,0.1108 0.28835,-0.57624 0.28682,0.43444 0.56907,0.004 0.2823,-0.3916 0.28082,0.36267 0.27937,-0.38329 0.27792,0.0944 0.27649,0.30957 0.27507,-0.0518 0.27368,0.53121 0.27229,-0.10036 0.27092,0.18537 0.26956,-0.35495 0.26822,0.0759 0.26688,-0.17649 0.52983,0.36947 0.26297,0.042 0.26169,0.37356 0.26043,-0.524 0.25916,0.69071 0.25793,-0.75046 0.25669,0.48801 0.25548,-0.0328 0.25426,0.83336 0.25307,-0.0342 0.25189,-0.18387 0.25071,0.563 0.74519,0.28995 0.24612,0.67695 0.245,-0.0351 0.24389,0.32514 0.24279,0.5461 0.48231,0.12554 0.23954,0.19113 0.47591,-0.45561 0.23639,-0.57655 0.23535,0.16064 0.23432,-0.13328 0.46561,-0.64253 0.2313,-0.2673 0.23031,0.30205 0.22932,0.0413 0.45575,0.22035 0.22643,-0.5358 0.22548,0.0612 0.22454,-0.10599 0.22361,-0.59872 0.22268,-0.12171 0.22176,0.15318 0.22085,0.43628 0.439,-0.0471 0.21817,0.20044 0.43369,-0.22838 0.21554,0.29 0.21468,-0.3945 0.63894,0.95622 0.21131,-0.33114 0.21048,-0.0541 0.4185,0.62227 0.20804,-0.16455 0.20723,0.0834 0.20644,0.22401 0.20565,0.0326 0.20487,0.2388 0.81174,-0.17912 0.20104,0.53265 0.20029,-0.0425 0.19954,0.12655 0.19881,-0.16731 0.39543,0.0741 0.19662,0.13323 0.19591,0.61204 0.38969,-0.14146 0.1938,-0.46189 0.19309,0.40489 0.38413,-0.63975 0.19104,-0.0506 0.19036,0.19811 0.18969,-0.17391 0.18902,0.0528 0.18837,0.67559 0.1877,-0.63134 0.18705,0.43923 0.1864,-0.0655 0.18576,0.30606 0.18512,-0.29223 0.36834,0.28985 0.18323,-0.0467 0.18261,0.22205 0.18198,-0.52694 0.18138,0.57001 0.18076,-0.17933 0.18016,-0.0146 0.17956,0.19381 0.17896,-0.50489 0.17836,0.35564 0.17778,-0.10001 0.3538,0.1308 0.17603,0.93841 0.35034,-0.81962 0.17432,0.32759 0.17376,-0.0656 0.34583,0.21043 0.17209,-0.32041 0.34253,0.94485 0.34037,-0.84436 0.67433,0.81693 0.16727,-0.0352 0.33299,-0.32456 0.16572,-0.72427 0.16521,0.83632 0.16471,-0.47937 0.16421,0.22295 0.32691,-0.53518 0.16272,-0.26796 0.16222,0.0624 0.16174,-0.44023 0.16125,0.0472 0.16077,0.3132 0.16029,-0.0295 0.15981,0.10484 0.15934,-0.56359 0.31727,0.1446 0.15794,-0.27621 0.15747,0.56074 0.15702,-0.59103 0.15656,0.25877 0.31175,-0.27338 0.1552,0.43915 0.46294,-0.58026 0.15343,0.21997 0.15299,-0.0163 0.15256,0.21302 0.30383,0.01 0.15127,-0.23856 0.15085,0.13182 0.15042,-0.072 0.15001,0.18388 0.14959,-0.16731 0.29794,0.14202 0.14835,-0.4464 0.14794,0.14368 0.14754,-0.24507 0.14713,0.32653 0.14673,-0.017 0.14634,0.11501 0.58138,1.23562 0.28835,-0.58165 0.28681,0.0632 0.28529,-0.0673 0.14208,0.23869 0.14171,-0.35664 0.14133,0.10802 0.14096,0.35801 0.1406,-0.0988 0.14023,0.55816 0.13986,-0.0508 0.27864,0.60623 0.13878,-0.24385 0.13842,-0.52804 0.13807,0.27723 0.27508,0.0762 0.27367,0.59579 0.13632,-0.14244 0.2716,-0.73384 0.13529,0.30861 0.13495,-0.24287 0.13461,0.30651 0.13428,-0.12791 0.13394,0.21777 0.13361,-0.12172 0.13328,0.17285 0.26556,-0.46929 0.1323,0.23169 0.26361,-0.11719 0.13133,-0.0353 0.131,0.46706 0.13069,-0.24457 0.13037,0.50847 0.13005,-0.16548 0.12974,0.30989 0.12943,-0.10925 0.12911,-0.27897 0.12881,0.50318 0.1285,-0.23405 0.1282,0.65444 0.12789,-0.52376 0.25486,0.22389 0.12699,-0.22613 0.25307,0.35938 0.12609,-0.14906 0.12579,0.072 0.1255,-0.0668 0.37476,0.71299 0.12434,-0.0915 0.24782,0.21515 0.36961,-0.17069 0.12264,0.14722 0.48778,-0.28302 0.60356,-0.36437 0.11991,0.41428 0.11964,-0.22538 0.11937,0.0342 0.11911,-0.20794 0.11884,0.19399 0.11859,-0.039 0.11832,0.16167 0.11806,0.43943 0.1178,-0.55841 0.11755,0.30635 0.11729,-0.0252 0.23381,0.23108 0.11653,0.19604 0.11628,-0.33466 0.11602,0.47135 0.11578,-0.11607 0.11552,0.0474 0.23031,-0.37145 0.11479,0.40312 0.11454,-0.24075 0.1143,0.33323 0.11405,-0.38312 0.11382,0.24533 0.11357,-0.0474 0.11334,-0.30172 0.22595,0.49428 0.22501,-0.26966 0.11215,0.3176 0.22361,-0.13955 0.33368,0.85577 0.11076,0.48143 0.22086,-0.42471 0.11008,-0.0859 0.2195,0.47711 0.10942,-0.18413 0.43544,0.78748 0.10832,-0.31114 0.10809,0.22015 0.32299,-0.6396 0.21425,0.33354 0.10681,-0.30308 0.10659,0.45175 0.10639,-0.42899 0.21214,0.35411 0.2113,-0.0795 0.10535,0.28202 0.10513,-0.48936 0.10493,0.5419 0.20925,-0.54871 0.31236,1.11398 0.20724,-0.24568 0.41208,0.40722 0.20487,0.52205 0.10214,-0.14619 0.30527,0.41885 0.20255,0.44638 0.10099,0.06 0.1008,-0.0773 0.20103,0.20483 0.10024,-0.24161 0.2996,0.58358 0.0995,-0.26962 0.19844,0.28016 0.099,0.32673 0.0988,-0.33053 0.0986,0.11413 0.19662,0.7679 0.19592,-0.40436 0.0977,0.36218 0.0975,-0.22438 0.1945,0.3855 0.097,-0.31514 0.0968,0.15431 0.3855,-0.49595 0.19172,0.34006 0.19104,-0.11126 0.0953,0.40044 0.19002,-0.48889 0.0948,0.17632 0.18903,0.3347 0.28229,-0.0996 0.0938,0.16991 0.0936,-0.0582 0.0934,0.14849 0.1864,-0.0866 0.093,0.29819 0.0928,-0.22541 0.0926,0.14824 0.0925,-0.13878 0.0923,0.26112 0.0922,-0.0834 0.27555,0.72546 0.18292,-0.58023 0.0912,0.43138 0.0911,-0.36025 0.36275,0.55028 0.27046,-0.37428 0.0899,0.40194 0.0897,-0.0505 0.0896,0.32838 0.0894,-0.35811 0.0893,0.3424 0.0891,-0.23809 0.17777,0.85603 0.0887,-0.12513 0.1769,-0.0264 0.26426,0.54043 0.17546,0.0733 0.17489,-0.21164 0.17431,0.0923 0.087,0.41125 0.0868,-0.17095 0.0867,0.57898 0.0865,-0.0796 0.0864,0.21987 0.0863,-0.5393 0.17208,0.606 0.0858,-0.0998 0.17127,0.27511 0.0854,-0.0328 0.0853,-0.44163 0.0852,0.0319 0.085,0.48979 0.0849,-0.25926 0.0847,0.54521 0.16912,-0.33675 0.0843,0.0995 0.16832,-0.5357 0.084,0.14944 0.16753,-0.59607 0.16701,0.36797 0.1665,0.23261 0.0831,-0.20221 0.0829,0.67911 0.0828,-0.12668 0.16522,0.41923 0.0824,-0.12801 0.2465,0.40009 0.16371,-0.0115 0.0817,0.39667 0.0815,-0.30475 0.0814,0.0684 0.24352,0.41106 0.0809,-0.52892 0.0808,0.0803 0.16125,0.9148 0.0804,-0.14894 0.16053,0.21862 0.0801,-0.41884 0.08,0.26565 0.23919,-0.7144 0.15887,0.18898 0.0793,-0.11562 0.0791,0.002 0.079,0.69591 0.0789,-1.08535 0.0788,0.56831 0.0787,-0.15547 0.0786,-0.46017 0.15679,0.47079 0.0782,-0.18616 0.0781,0.70371 0.078,-0.28416 0.0779,0.0103 0.15543,0.54282 0.0775,-0.16508 0.0774,0.22195 0.0773,-0.2661 0.0772,0.11831 0.0771,0.49461 0.077,-0.17287 0.15365,-0.59155 0.0767,-0.12204 0.0765,0.54705 0.0764,-0.14964 0.0763,-0.3035 0.0762,0.54948 0.0761,-0.19911 0.3034,0.76499 0.15106,0.007 0.0754,-0.3856 0.30043,0.70726 0.14959,0.17593 0.0746,-0.18036 0.0745,0.17215 0.0744,-0.1963 0.22268,0.6624 0.074,-0.0349 0.0739,-0.42861 0.0738,0.51882 0.0737,-0.1434 0.14713,-0.21467 0.36609,1.11303 0.14573,-0.44275 0.0727,0.095 0.0726,0.41999 0.0725,-0.44349 0.0724,0.40399 0.14456,-0.34905 0.14418,0.41773 0.0719,0.64652 0.21526,-1.08191 0.14302,0.48099 0.0714,-0.40586 0.0713,0.21542 0.0712,-0.01 0.0711,0.72818 0.071,-0.7908 0.0709,0.39612 0.0708,0.0884 0.0707,-0.22988 0.14114,0.14085 0.0704,-0.0363 0.0703,-0.2613 0.0702,0.66378 0.0702,-0.44501 0.0701,0.55757 0.07,-0.21489 0.0699,0.28186 0.0698,-0.0794 0.27828,-1.11547 0.0693,0.13738 0.13843,0.70748 0.0691,-0.1706 0.069,0.0447 0.0689,0.28598 0.0688,-0.0567 0.13736,-0.69796 0.20539,0.65526 0.0683,-0.0682 0.13632,0.47006 0.068,-0.22992 0.0679,0.43923 0.13563,-0.64923 0.13529,0.46549 0.20229,-0.33727 0.26855,0.88996 0.0669,0.15838 0.0668,-0.67356 0.13344,0.66689 0.0666,0.0218 0.0665,-0.29582 0.19906,0.72661 0.0662,-0.40867 0.0661,0.0485 0.066,0.0571 0.13181,-0.12429 0.0658,0.1167 0.0657,-0.14866 0.19662,0.74434 0.0654,-0.41456 0.0653,0.21877 0.13037,0.0143 0.0651,0.66452 0.065,-0.0209 0.1945,0.22425 0.0647,-0.0503 0.0646,-0.24559 0.0645,0.97686 0.0644,-0.63593 0.0644,0.61919 0.0643,-0.21282 0.12835,-0.28686 0.31953,1.06893 0.12729,-0.6367 0.19036,0.95306 0.18969,-0.69745 0.0631,0.48495 0.063,-0.0811 0.0629,-0.27377 0.18836,0.79949 0.0626,-0.25074 0.0626,0.26789 0.0625,-0.38987 0.0624,0.30592 0.0623,0.77359 0.0623,-0.41772 0.0622,0.34912 0.0621,-0.49462 0.0621,0.12591 0.062,1.3e-4 0.12377,-0.43216 0.24668,0.53665 0.0615,0.30127 0.0614,-0.2121 0.0614,-0.14756 0.24472,0.77007 0.12194,1.14172 0.0609,-0.1195 0.12153,-0.51975 0.0607,0.0859 0.12112,0.32395 0.0605,-0.0636 0.0604,0.62331 0.0603,-0.29892 0.0603,-0.001 0.1203,0.38208 0.12004,-0.10827 0.11977,-0.37364 0.11951,0.7689 0.0596,-0.52142 0.0596,0.45068 0.0595,0.26421 0.0595,-0.74896 0.0594,0.22158 0.0593,-0.29751 0.0593,0.6999 0.0592,-0.2095 0.11819,-0.30319 0.17681,1.05439 0.17622,-0.72661 0.17565,1.06277 0.0584,0.35374 0.0584,-0.0742 0.0583,-0.7123 0.0582,0.0938 0.0582,1.01082 0.0581,-0.21453 0.058,0.20297 0.058,-1.21561 0.0579,0.59626 0.0579,-0.37867 0.0578,0.11703 0.0577,0.6187 0.0577,-0.20754 0.17264,0.32645 0.0574,-0.0366 0.0574,0.78058 0.0573,-1.00097 0.0572,0.55936 0.0572,-0.41211 0.17118,0.89749 0.22739,-0.98202 0.0567,-0.027 0.0566,-0.25574 0.0566,0.0674 0.0565,0.2472 0.0565,-0.0805 0.0564,-0.41323 0.0563,0.32327 0.0563,0.2577 0.0562,-0.41671 0.16832,0.8413 0.11192,-0.26337 0.22314,1.13501 0.0556,-0.44842 0.0556,0.61139 0.0555,-0.1953 0.0555,0.17038 0.11077,-0.48961 0.11054,0.37183 0.16538,-0.78099 0.055,0.49454 0.055,-0.65202 0.0549,0.38462 0.0548,0.0963 0.0548,-0.16179 0.10941,0.54927 0.0546,0.89859 0.0546,-0.69053 0.16338,0.48018 0.0543,-0.20749 0.10853,-0.56615 0.10831,0.8491 0.0541,-0.65018 0.054,0.60515 0.054,-0.1734 0.0539,0.59657 0.0539,-0.32029 0.0538,0.21556 v 0"
       clip-path="url(#p9442335f24)"
       style="fill:none;stroke:#d62728;stroke-width:3;stroke-linecap:square"
       id="path755" />
  </g>
  <g
     id="patch_5"
     transform="translate(-11.600971,-14.835437)">
    <path
       d="M 55.779096,216.088 V 43.112"
       style="fill:none;stroke:#000000;stroke-width:0.8;stroke-linecap:square;stroke-linejoin:miter"
       id="path758" />
  </g>
  <g
     id="patch_6"
     transform="translate(-11.600971,-14.835437)">
    <path
       d="M 322.56,216.088 V 43.112"
       style="fill:none;stroke:#000000;stroke-width:0.8;stroke-linecap:square;stroke-linejoin:miter"
       id="path761" />
  </g>
  <g
     id="patch_7"
     transform="translate(-11.600971,-14.835437)">
    <path
       d="M 55.779096,216.088 H 322.56"
       style="fill:none;stroke:#000000;stroke-width:0.8;stroke-linecap:square;stroke-linejoin:miter"
       id="path764" />
  </g>
  <g
     id="patch_8"
     transform="translate(-11.600971,-14.835437)">
    <path
       d="M 55.779096,43.112 H 322.56"
       style="fill:none;stroke:#000000;stroke-width:0.8;stroke-linecap:square;stroke-linejoin:miter"
       id="path767" />
  </g>
  <g
     id="line2d_65"
     transform="translate(172.8135,-120.36589)">
    <path
       d="m 64.779096,157.47394 h 10 10"
       style="fill:none;stroke:#1f77b4;stroke-width:3;stroke-linecap:square"
       id="path773" />
  </g>
  <g
     id="text_11"
     transform="translate(172.8135,-120.36589)">
    <!-- 1 GHz -->
    <g
       transform="matrix(0.1,0,0,-0.1,92.779096,160.97394)"
       id="g786">
      <use
         xlink:href="#DejaVuSans-31"
         id="use776" />
      <use
         xlink:href="#DejaVuSans-20"
         x="63.623047"
         id="use778" />
      <use
         xlink:href="#DejaVuSans-47"
         x="95.410156"
         id="use780" />
      <use
         xlink:href="#DejaVuSans-48"
         x="172.90039"
         id="use782" />
      <use
         xlink:href="#DejaVuSans-7a"
         x="248.0957"
         id="use784" />
    </g>
  </g>
  <g
     id="line2d_66"
     transform="translate(172.8135,-120.36589)">
    <path
       d="m 64.779096,172.15206 h 10 10"
       style="fill:none;stroke:#ff7f0e;stroke-width:3;stroke-linecap:square"
       id="path789" />
  </g>
  <g
     id="text_12"
     transform="translate(172.8135,-120.36589)">
    <!-- 2 GHz -->
    <g
       transform="matrix(0.1,0,0,-0.1,92.779096,175.65206)"
       id="g802">
      <use
         xlink:href="#DejaVuSans-32"
         id="use792" />
      <use
         xlink:href="#DejaVuSans-20"
         x="63.623047"
         id="use794" />
      <use
         xlink:href="#DejaVuSans-47"
         x="95.410156"
         id="use796" />
      <use
         xlink:href="#DejaVuSans-48"
         x="172.90039"
         id="use798" />
      <use
         xlink:href="#DejaVuSans-7a"
         x="248.0957"
         id="use800" />
    </g>
  </g>
  <g
     id="line2d_67"
     transform="translate(172.8135,-120.36589)">
    <path
       d="m 64.779096,186.83019 h 10 10"
       style="fill:none;stroke:#2ca02c;stroke-width:3;stroke-linecap:square"
       id="path805" />
  </g>
  <g
     id="text_13"
     transform="translate(172.8135,-120.36589)">
    <!-- 10 GHz -->
    <g
       transform="matrix(0.1,0,0,-0.1,92.779096,190.33019)"
       id="g820">
      <use
         xlink:href="#DejaVuSans-31"
         id="use808" />
      <use
         xlink:href="#DejaVuSans-30"
         x="63.623047"
         id="use810" />
      <use
         xlink:href="#DejaVuSans-20"
         x="127.24609"
         id="use812" />
      <use
         xlink:href="#DejaVuSans-47"
         x="159.0332"
         id="use814" />
      <use
         xlink:href="#DejaVuSans-48"
         x="236.52344"
         id="use816" />
      <use
         xlink:href="#DejaVuSans-7a"
         x="311.71875"
         id="use818" />
    </g>
  </g>
  <g
     id="line2d_68"
     transform="translate(172.8135,-120.36589)">
    <path
       d="m 64.779096,201.50831 h 10 10"
       style="fill:none;stroke:#d62728;stroke-width:3;stroke-linecap:square"
       id="path823" />
  </g>
  <g
     id="text_14"
     transform="translate(172.8135,-120.36589)">
    <!-- 100 GHz -->
    <g
       transform="matrix(0.1,0,0,-0.1,92.779096,205.00831)"
       id="g840">
      <use
         xlink:href="#DejaVuSans-31"
         id="use826" />
      <use
         xlink:href="#DejaVuSans-30"
         x="63.623047"
         id="use828" />
      <use
         xlink:href="#DejaVuSans-30"
         x="127.24609"
         id="use830" />
      <use
         xlink:href="#DejaVuSans-20"
         x="190.86914"
         id="use832" />
      <use
         xlink:href="#DejaVuSans-47"
         x="222.65625"
         id="use834" />
      <use
         xlink:href="#DejaVuSans-48"
         x="300.14648"
         id="use836" />
      <use
         xlink:href="#DejaVuSans-7a"
         x="375.3418"
         id="use838" />
    </g>
  </g>
  <defs
     id="defs849">
    <clipPath
       id="p9442335f24">
      <rect
         x="55.779095"
         y="43.112"
         width="266.78091"
         height="172.976"
         id="rect846" />
    </clipPath>
  </defs>
</svg>
