<?xml version="1.0" encoding="utf-8" standalone="no"?>
<!DOCTYPE svg PUBLIC "-//W3C//DTD SVG 1.1//EN"
  "http://www.w3.org/Graphics/SVG/1.1/DTD/svg11.dtd">
<svg xmlns:xlink="http://www.w3.org/1999/xlink" width="1382.4pt" height="707.76pt" viewBox="0 0 1382.4 707.76" xmlns="http://www.w3.org/2000/svg" version="1.1">
 <metadata>
  <rdf:RDF xmlns:dc="http://purl.org/dc/elements/1.1/" xmlns:cc="http://creativecommons.org/ns#" xmlns:rdf="http://www.w3.org/1999/02/22-rdf-syntax-ns#">
   <cc:Work>
    <dc:type rdf:resource="http://purl.org/dc/dcmitype/StillImage"/>
    <dc:date>2023-08-10T22:12:00.648665</dc:date>
    <dc:format>image/svg+xml</dc:format>
    <dc:creator>
     <cc:Agent>
      <dc:title>Matplotlib v3.7.1, https://matplotlib.org/</dc:title>
     </cc:Agent>
    </dc:creator>
   </cc:Work>
  </rdf:RDF>
 </metadata>
 <defs>
  <style type="text/css">*{stroke-linejoin: round; stroke-linecap: butt}</style>
 </defs>
 <g id="figure_1">
  <g id="patch_1">
   <path d="M 0 707.76 
L 1382.4 707.76 
L 1382.4 0 
L 0 0 
L 0 707.76 
z
" style="fill: none"/>
  </g>
  <g id="axes_1">
   <g id="patch_2">
    <path d="M 128.355954 630.364563 
L 1357.416867 630.364563 
L 1357.416867 55.389913 
L 128.355954 55.389913 
L 128.355954 630.364563 
z
" style="fill: none"/>
   </g>
   <g id="matplotlib.axis_1">
    <g id="xtick_1">
     <g id="line2d_1">
      <defs>
       <path id="ma8ce6cc5cf" d="M 0 0 
L 0 3.5 
" style="stroke: #000000; stroke-width: 0.8"/>
      </defs>
      <g>
       <use xlink:href="#ma8ce6cc5cf" x="233.185113" y="630.364563" style="stroke: #000000; stroke-width: 0.8"/>
      </g>
     </g>
     <g id="text_1">
      <!-- $\mathdefault{10^{2}}$ -->
      <g transform="translate(224.385113 644.963001) scale(0.1 -0.1)">
       <defs>
        <path id="DejaVuSans-31" d="M 794 531 
L 1825 531 
L 1825 4091 
L 703 3866 
L 703 4441 
L 1819 4666 
L 2450 4666 
L 2450 531 
L 3481 531 
L 3481 0 
L 794 0 
L 794 531 
z
" transform="scale(0.015625)"/>
        <path id="DejaVuSans-30" d="M 2034 4250 
Q 1547 4250 1301 3770 
Q 1056 3291 1056 2328 
Q 1056 1369 1301 889 
Q 1547 409 2034 409 
Q 2525 409 2770 889 
Q 3016 1369 3016 2328 
Q 3016 3291 2770 3770 
Q 2525 4250 2034 4250 
z
M 2034 4750 
Q 2819 4750 3233 4129 
Q 3647 3509 3647 2328 
Q 3647 1150 3233 529 
Q 2819 -91 2034 -91 
Q 1250 -91 836 529 
Q 422 1150 422 2328 
Q 422 3509 836 4129 
Q 1250 4750 2034 4750 
z
" transform="scale(0.015625)"/>
        <path id="DejaVuSans-32" d="M 1228 531 
L 3431 531 
L 3431 0 
L 469 0 
L 469 531 
Q 828 903 1448 1529 
Q 2069 2156 2228 2338 
Q 2531 2678 2651 2914 
Q 2772 3150 2772 3378 
Q 2772 3750 2511 3984 
Q 2250 4219 1831 4219 
Q 1534 4219 1204 4116 
Q 875 4013 500 3803 
L 500 4441 
Q 881 4594 1212 4672 
Q 1544 4750 1819 4750 
Q 2544 4750 2975 4387 
Q 3406 4025 3406 3419 
Q 3406 3131 3298 2873 
Q 3191 2616 2906 2266 
Q 2828 2175 2409 1742 
Q 1991 1309 1228 531 
z
" transform="scale(0.015625)"/>
       </defs>
       <use xlink:href="#DejaVuSans-31" transform="translate(0 0.765625)"/>
       <use xlink:href="#DejaVuSans-30" transform="translate(63.623047 0.765625)"/>
       <use xlink:href="#DejaVuSans-32" transform="translate(128.203125 39.046875) scale(0.7)"/>
      </g>
     </g>
    </g>
    <g id="xtick_2">
     <g id="line2d_2">
      <g>
       <use xlink:href="#ma8ce6cc5cf" x="446.858183" y="630.364563" style="stroke: #000000; stroke-width: 0.8"/>
      </g>
     </g>
     <g id="text_2">
      <!-- $\mathdefault{10^{3}}$ -->
      <g transform="translate(438.058183 644.963001) scale(0.1 -0.1)">
       <defs>
        <path id="DejaVuSans-33" d="M 2597 2516 
Q 3050 2419 3304 2112 
Q 3559 1806 3559 1356 
Q 3559 666 3084 287 
Q 2609 -91 1734 -91 
Q 1441 -91 1130 -33 
Q 819 25 488 141 
L 488 750 
Q 750 597 1062 519 
Q 1375 441 1716 441 
Q 2309 441 2620 675 
Q 2931 909 2931 1356 
Q 2931 1769 2642 2001 
Q 2353 2234 1838 2234 
L 1294 2234 
L 1294 2753 
L 1863 2753 
Q 2328 2753 2575 2939 
Q 2822 3125 2822 3475 
Q 2822 3834 2567 4026 
Q 2313 4219 1838 4219 
Q 1578 4219 1281 4162 
Q 984 4106 628 3988 
L 628 4550 
Q 988 4650 1302 4700 
Q 1616 4750 1894 4750 
Q 2613 4750 3031 4423 
Q 3450 4097 3450 3541 
Q 3450 3153 3228 2886 
Q 3006 2619 2597 2516 
z
" transform="scale(0.015625)"/>
       </defs>
       <use xlink:href="#DejaVuSans-31" transform="translate(0 0.765625)"/>
       <use xlink:href="#DejaVuSans-30" transform="translate(63.623047 0.765625)"/>
       <use xlink:href="#DejaVuSans-33" transform="translate(128.203125 39.046875) scale(0.7)"/>
      </g>
     </g>
    </g>
    <g id="xtick_3">
     <g id="line2d_3">
      <g>
       <use xlink:href="#ma8ce6cc5cf" x="660.531253" y="630.364563" style="stroke: #000000; stroke-width: 0.8"/>
      </g>
     </g>
     <g id="text_3">
      <!-- $\mathdefault{10^{4}}$ -->
      <g transform="translate(651.731253 644.963001) scale(0.1 -0.1)">
       <defs>
        <path id="DejaVuSans-34" d="M 2419 4116 
L 825 1625 
L 2419 1625 
L 2419 4116 
z
M 2253 4666 
L 3047 4666 
L 3047 1625 
L 3713 1625 
L 3713 1100 
L 3047 1100 
L 3047 0 
L 2419 0 
L 2419 1100 
L 313 1100 
L 313 1709 
L 2253 4666 
z
" transform="scale(0.015625)"/>
       </defs>
       <use xlink:href="#DejaVuSans-31" transform="translate(0 0.684375)"/>
       <use xlink:href="#DejaVuSans-30" transform="translate(63.623047 0.684375)"/>
       <use xlink:href="#DejaVuSans-34" transform="translate(128.203125 38.965625) scale(0.7)"/>
      </g>
     </g>
    </g>
    <g id="xtick_4">
     <g id="line2d_4">
      <g>
       <use xlink:href="#ma8ce6cc5cf" x="874.204323" y="630.364563" style="stroke: #000000; stroke-width: 0.8"/>
      </g>
     </g>
     <g id="text_4">
      <!-- $\mathdefault{10^{5}}$ -->
      <g transform="translate(865.404323 644.963001) scale(0.1 -0.1)">
       <defs>
        <path id="DejaVuSans-35" d="M 691 4666 
L 3169 4666 
L 3169 4134 
L 1269 4134 
L 1269 2991 
Q 1406 3038 1543 3061 
Q 1681 3084 1819 3084 
Q 2600 3084 3056 2656 
Q 3513 2228 3513 1497 
Q 3513 744 3044 326 
Q 2575 -91 1722 -91 
Q 1428 -91 1123 -41 
Q 819 9 494 109 
L 494 744 
Q 775 591 1075 516 
Q 1375 441 1709 441 
Q 2250 441 2565 725 
Q 2881 1009 2881 1497 
Q 2881 1984 2565 2268 
Q 2250 2553 1709 2553 
Q 1456 2553 1204 2497 
Q 953 2441 691 2322 
L 691 4666 
z
" transform="scale(0.015625)"/>
       </defs>
       <use xlink:href="#DejaVuSans-31" transform="translate(0 0.684375)"/>
       <use xlink:href="#DejaVuSans-30" transform="translate(63.623047 0.684375)"/>
       <use xlink:href="#DejaVuSans-35" transform="translate(128.203125 38.965625) scale(0.7)"/>
      </g>
     </g>
    </g>
    <g id="xtick_5">
     <g id="line2d_5">
      <g>
       <use xlink:href="#ma8ce6cc5cf" x="1087.877392" y="630.364563" style="stroke: #000000; stroke-width: 0.8"/>
      </g>
     </g>
     <g id="text_5">
      <!-- $\mathdefault{10^{6}}$ -->
      <g transform="translate(1079.077392 644.963001) scale(0.1 -0.1)">
       <defs>
        <path id="DejaVuSans-36" d="M 2113 2584 
Q 1688 2584 1439 2293 
Q 1191 2003 1191 1497 
Q 1191 994 1439 701 
Q 1688 409 2113 409 
Q 2538 409 2786 701 
Q 3034 994 3034 1497 
Q 3034 2003 2786 2293 
Q 2538 2584 2113 2584 
z
M 3366 4563 
L 3366 3988 
Q 3128 4100 2886 4159 
Q 2644 4219 2406 4219 
Q 1781 4219 1451 3797 
Q 1122 3375 1075 2522 
Q 1259 2794 1537 2939 
Q 1816 3084 2150 3084 
Q 2853 3084 3261 2657 
Q 3669 2231 3669 1497 
Q 3669 778 3244 343 
Q 2819 -91 2113 -91 
Q 1303 -91 875 529 
Q 447 1150 447 2328 
Q 447 3434 972 4092 
Q 1497 4750 2381 4750 
Q 2619 4750 2861 4703 
Q 3103 4656 3366 4563 
z
" transform="scale(0.015625)"/>
       </defs>
       <use xlink:href="#DejaVuSans-31" transform="translate(0 0.765625)"/>
       <use xlink:href="#DejaVuSans-30" transform="translate(63.623047 0.765625)"/>
       <use xlink:href="#DejaVuSans-36" transform="translate(128.203125 39.046875) scale(0.7)"/>
      </g>
     </g>
    </g>
    <g id="xtick_6">
     <g id="line2d_6">
      <g>
       <use xlink:href="#ma8ce6cc5cf" x="1301.550462" y="630.364563" style="stroke: #000000; stroke-width: 0.8"/>
      </g>
     </g>
     <g id="text_6">
      <!-- $\mathdefault{10^{7}}$ -->
      <g transform="translate(1292.750462 644.963001) scale(0.1 -0.1)">
       <defs>
        <path id="DejaVuSans-37" d="M 525 4666 
L 3525 4666 
L 3525 4397 
L 1831 0 
L 1172 0 
L 2766 4134 
L 525 4134 
L 525 4666 
z
" transform="scale(0.015625)"/>
       </defs>
       <use xlink:href="#DejaVuSans-31" transform="translate(0 0.684375)"/>
       <use xlink:href="#DejaVuSans-30" transform="translate(63.623047 0.684375)"/>
       <use xlink:href="#DejaVuSans-37" transform="translate(128.203125 38.965625) scale(0.7)"/>
      </g>
     </g>
    </g>
    <g id="xtick_7">
     <g id="line2d_7">
      <defs>
       <path id="m0d0f6d1426" d="M 0 0 
L 0 2 
" style="stroke: #000000; stroke-width: 0.6"/>
      </defs>
      <g>
       <use xlink:href="#m0d0f6d1426" x="148.15605" y="630.364563" style="stroke: #000000; stroke-width: 0.6"/>
      </g>
     </g>
    </g>
    <g id="xtick_8">
     <g id="line2d_8">
      <g>
       <use xlink:href="#m0d0f6d1426" x="168.86311" y="630.364563" style="stroke: #000000; stroke-width: 0.6"/>
      </g>
     </g>
    </g>
    <g id="xtick_9">
     <g id="line2d_9">
      <g>
       <use xlink:href="#m0d0f6d1426" x="185.78201" y="630.364563" style="stroke: #000000; stroke-width: 0.6"/>
      </g>
     </g>
    </g>
    <g id="xtick_10">
     <g id="line2d_10">
      <g>
       <use xlink:href="#m0d0f6d1426" x="200.086736" y="630.364563" style="stroke: #000000; stroke-width: 0.6"/>
      </g>
     </g>
    </g>
    <g id="xtick_11">
     <g id="line2d_11">
      <g>
       <use xlink:href="#m0d0f6d1426" x="212.478053" y="630.364563" style="stroke: #000000; stroke-width: 0.6"/>
      </g>
     </g>
    </g>
    <g id="xtick_12">
     <g id="line2d_12">
      <g>
       <use xlink:href="#m0d0f6d1426" x="223.40797" y="630.364563" style="stroke: #000000; stroke-width: 0.6"/>
      </g>
     </g>
    </g>
    <g id="xtick_13">
     <g id="line2d_13">
      <g>
       <use xlink:href="#m0d0f6d1426" x="297.507116" y="630.364563" style="stroke: #000000; stroke-width: 0.6"/>
      </g>
     </g>
    </g>
    <g id="xtick_14">
     <g id="line2d_14">
      <g>
       <use xlink:href="#m0d0f6d1426" x="335.133076" y="630.364563" style="stroke: #000000; stroke-width: 0.6"/>
      </g>
     </g>
    </g>
    <g id="xtick_15">
     <g id="line2d_15">
      <g>
       <use xlink:href="#m0d0f6d1426" x="361.82912" y="630.364563" style="stroke: #000000; stroke-width: 0.6"/>
      </g>
     </g>
    </g>
    <g id="xtick_16">
     <g id="line2d_16">
      <g>
       <use xlink:href="#m0d0f6d1426" x="382.53618" y="630.364563" style="stroke: #000000; stroke-width: 0.6"/>
      </g>
     </g>
    </g>
    <g id="xtick_17">
     <g id="line2d_17">
      <g>
       <use xlink:href="#m0d0f6d1426" x="399.45508" y="630.364563" style="stroke: #000000; stroke-width: 0.6"/>
      </g>
     </g>
    </g>
    <g id="xtick_18">
     <g id="line2d_18">
      <g>
       <use xlink:href="#m0d0f6d1426" x="413.759806" y="630.364563" style="stroke: #000000; stroke-width: 0.6"/>
      </g>
     </g>
    </g>
    <g id="xtick_19">
     <g id="line2d_19">
      <g>
       <use xlink:href="#m0d0f6d1426" x="426.151123" y="630.364563" style="stroke: #000000; stroke-width: 0.6"/>
      </g>
     </g>
    </g>
    <g id="xtick_20">
     <g id="line2d_20">
      <g>
       <use xlink:href="#m0d0f6d1426" x="437.081039" y="630.364563" style="stroke: #000000; stroke-width: 0.6"/>
      </g>
     </g>
    </g>
    <g id="xtick_21">
     <g id="line2d_21">
      <g>
       <use xlink:href="#m0d0f6d1426" x="511.180186" y="630.364563" style="stroke: #000000; stroke-width: 0.6"/>
      </g>
     </g>
    </g>
    <g id="xtick_22">
     <g id="line2d_22">
      <g>
       <use xlink:href="#m0d0f6d1426" x="548.806146" y="630.364563" style="stroke: #000000; stroke-width: 0.6"/>
      </g>
     </g>
    </g>
    <g id="xtick_23">
     <g id="line2d_23">
      <g>
       <use xlink:href="#m0d0f6d1426" x="575.502189" y="630.364563" style="stroke: #000000; stroke-width: 0.6"/>
      </g>
     </g>
    </g>
    <g id="xtick_24">
     <g id="line2d_24">
      <g>
       <use xlink:href="#m0d0f6d1426" x="596.209249" y="630.364563" style="stroke: #000000; stroke-width: 0.6"/>
      </g>
     </g>
    </g>
    <g id="xtick_25">
     <g id="line2d_25">
      <g>
       <use xlink:href="#m0d0f6d1426" x="613.128149" y="630.364563" style="stroke: #000000; stroke-width: 0.6"/>
      </g>
     </g>
    </g>
    <g id="xtick_26">
     <g id="line2d_26">
      <g>
       <use xlink:href="#m0d0f6d1426" x="627.432875" y="630.364563" style="stroke: #000000; stroke-width: 0.6"/>
      </g>
     </g>
    </g>
    <g id="xtick_27">
     <g id="line2d_27">
      <g>
       <use xlink:href="#m0d0f6d1426" x="639.824193" y="630.364563" style="stroke: #000000; stroke-width: 0.6"/>
      </g>
     </g>
    </g>
    <g id="xtick_28">
     <g id="line2d_28">
      <g>
       <use xlink:href="#m0d0f6d1426" x="650.754109" y="630.364563" style="stroke: #000000; stroke-width: 0.6"/>
      </g>
     </g>
    </g>
    <g id="xtick_29">
     <g id="line2d_29">
      <g>
       <use xlink:href="#m0d0f6d1426" x="724.853256" y="630.364563" style="stroke: #000000; stroke-width: 0.6"/>
      </g>
     </g>
    </g>
    <g id="xtick_30">
     <g id="line2d_30">
      <g>
       <use xlink:href="#m0d0f6d1426" x="762.479216" y="630.364563" style="stroke: #000000; stroke-width: 0.6"/>
      </g>
     </g>
    </g>
    <g id="xtick_31">
     <g id="line2d_31">
      <g>
       <use xlink:href="#m0d0f6d1426" x="789.175259" y="630.364563" style="stroke: #000000; stroke-width: 0.6"/>
      </g>
     </g>
    </g>
    <g id="xtick_32">
     <g id="line2d_32">
      <g>
       <use xlink:href="#m0d0f6d1426" x="809.882319" y="630.364563" style="stroke: #000000; stroke-width: 0.6"/>
      </g>
     </g>
    </g>
    <g id="xtick_33">
     <g id="line2d_33">
      <g>
       <use xlink:href="#m0d0f6d1426" x="826.801219" y="630.364563" style="stroke: #000000; stroke-width: 0.6"/>
      </g>
     </g>
    </g>
    <g id="xtick_34">
     <g id="line2d_34">
      <g>
       <use xlink:href="#m0d0f6d1426" x="841.105945" y="630.364563" style="stroke: #000000; stroke-width: 0.6"/>
      </g>
     </g>
    </g>
    <g id="xtick_35">
     <g id="line2d_35">
      <g>
       <use xlink:href="#m0d0f6d1426" x="853.497263" y="630.364563" style="stroke: #000000; stroke-width: 0.6"/>
      </g>
     </g>
    </g>
    <g id="xtick_36">
     <g id="line2d_36">
      <g>
       <use xlink:href="#m0d0f6d1426" x="864.427179" y="630.364563" style="stroke: #000000; stroke-width: 0.6"/>
      </g>
     </g>
    </g>
    <g id="xtick_37">
     <g id="line2d_37">
      <g>
       <use xlink:href="#m0d0f6d1426" x="938.526326" y="630.364563" style="stroke: #000000; stroke-width: 0.6"/>
      </g>
     </g>
    </g>
    <g id="xtick_38">
     <g id="line2d_38">
      <g>
       <use xlink:href="#m0d0f6d1426" x="976.152286" y="630.364563" style="stroke: #000000; stroke-width: 0.6"/>
      </g>
     </g>
    </g>
    <g id="xtick_39">
     <g id="line2d_39">
      <g>
       <use xlink:href="#m0d0f6d1426" x="1002.848329" y="630.364563" style="stroke: #000000; stroke-width: 0.6"/>
      </g>
     </g>
    </g>
    <g id="xtick_40">
     <g id="line2d_40">
      <g>
       <use xlink:href="#m0d0f6d1426" x="1023.555389" y="630.364563" style="stroke: #000000; stroke-width: 0.6"/>
      </g>
     </g>
    </g>
    <g id="xtick_41">
     <g id="line2d_41">
      <g>
       <use xlink:href="#m0d0f6d1426" x="1040.474289" y="630.364563" style="stroke: #000000; stroke-width: 0.6"/>
      </g>
     </g>
    </g>
    <g id="xtick_42">
     <g id="line2d_42">
      <g>
       <use xlink:href="#m0d0f6d1426" x="1054.779015" y="630.364563" style="stroke: #000000; stroke-width: 0.6"/>
      </g>
     </g>
    </g>
    <g id="xtick_43">
     <g id="line2d_43">
      <g>
       <use xlink:href="#m0d0f6d1426" x="1067.170332" y="630.364563" style="stroke: #000000; stroke-width: 0.6"/>
      </g>
     </g>
    </g>
    <g id="xtick_44">
     <g id="line2d_44">
      <g>
       <use xlink:href="#m0d0f6d1426" x="1078.100249" y="630.364563" style="stroke: #000000; stroke-width: 0.6"/>
      </g>
     </g>
    </g>
    <g id="xtick_45">
     <g id="line2d_45">
      <g>
       <use xlink:href="#m0d0f6d1426" x="1152.199396" y="630.364563" style="stroke: #000000; stroke-width: 0.6"/>
      </g>
     </g>
    </g>
    <g id="xtick_46">
     <g id="line2d_46">
      <g>
       <use xlink:href="#m0d0f6d1426" x="1189.825356" y="630.364563" style="stroke: #000000; stroke-width: 0.6"/>
      </g>
     </g>
    </g>
    <g id="xtick_47">
     <g id="line2d_47">
      <g>
       <use xlink:href="#m0d0f6d1426" x="1216.521399" y="630.364563" style="stroke: #000000; stroke-width: 0.6"/>
      </g>
     </g>
    </g>
    <g id="xtick_48">
     <g id="line2d_48">
      <g>
       <use xlink:href="#m0d0f6d1426" x="1237.228459" y="630.364563" style="stroke: #000000; stroke-width: 0.6"/>
      </g>
     </g>
    </g>
    <g id="xtick_49">
     <g id="line2d_49">
      <g>
       <use xlink:href="#m0d0f6d1426" x="1254.147359" y="630.364563" style="stroke: #000000; stroke-width: 0.6"/>
      </g>
     </g>
    </g>
    <g id="xtick_50">
     <g id="line2d_50">
      <g>
       <use xlink:href="#m0d0f6d1426" x="1268.452085" y="630.364563" style="stroke: #000000; stroke-width: 0.6"/>
      </g>
     </g>
    </g>
    <g id="xtick_51">
     <g id="line2d_51">
      <g>
       <use xlink:href="#m0d0f6d1426" x="1280.843402" y="630.364563" style="stroke: #000000; stroke-width: 0.6"/>
      </g>
     </g>
    </g>
    <g id="xtick_52">
     <g id="line2d_52">
      <g>
       <use xlink:href="#m0d0f6d1426" x="1291.773319" y="630.364563" style="stroke: #000000; stroke-width: 0.6"/>
      </g>
     </g>
    </g>
    <g id="text_7">
     <!-- spectral acquisition speed (Hz) -->
     <g transform="translate(665.537192 658.641126) scale(0.1 -0.1)">
      <defs>
       <path id="DejaVuSans-73" d="M 2834 3397 
L 2834 2853 
Q 2591 2978 2328 3040 
Q 2066 3103 1784 3103 
Q 1356 3103 1142 2972 
Q 928 2841 928 2578 
Q 928 2378 1081 2264 
Q 1234 2150 1697 2047 
L 1894 2003 
Q 2506 1872 2764 1633 
Q 3022 1394 3022 966 
Q 3022 478 2636 193 
Q 2250 -91 1575 -91 
Q 1294 -91 989 -36 
Q 684 19 347 128 
L 347 722 
Q 666 556 975 473 
Q 1284 391 1588 391 
Q 1994 391 2212 530 
Q 2431 669 2431 922 
Q 2431 1156 2273 1281 
Q 2116 1406 1581 1522 
L 1381 1569 
Q 847 1681 609 1914 
Q 372 2147 372 2553 
Q 372 3047 722 3315 
Q 1072 3584 1716 3584 
Q 2034 3584 2315 3537 
Q 2597 3491 2834 3397 
z
" transform="scale(0.015625)"/>
       <path id="DejaVuSans-70" d="M 1159 525 
L 1159 -1331 
L 581 -1331 
L 581 3500 
L 1159 3500 
L 1159 2969 
Q 1341 3281 1617 3432 
Q 1894 3584 2278 3584 
Q 2916 3584 3314 3078 
Q 3713 2572 3713 1747 
Q 3713 922 3314 415 
Q 2916 -91 2278 -91 
Q 1894 -91 1617 61 
Q 1341 213 1159 525 
z
M 3116 1747 
Q 3116 2381 2855 2742 
Q 2594 3103 2138 3103 
Q 1681 3103 1420 2742 
Q 1159 2381 1159 1747 
Q 1159 1113 1420 752 
Q 1681 391 2138 391 
Q 2594 391 2855 752 
Q 3116 1113 3116 1747 
z
" transform="scale(0.015625)"/>
       <path id="DejaVuSans-65" d="M 3597 1894 
L 3597 1613 
L 953 1613 
Q 991 1019 1311 708 
Q 1631 397 2203 397 
Q 2534 397 2845 478 
Q 3156 559 3463 722 
L 3463 178 
Q 3153 47 2828 -22 
Q 2503 -91 2169 -91 
Q 1331 -91 842 396 
Q 353 884 353 1716 
Q 353 2575 817 3079 
Q 1281 3584 2069 3584 
Q 2775 3584 3186 3129 
Q 3597 2675 3597 1894 
z
M 3022 2063 
Q 3016 2534 2758 2815 
Q 2500 3097 2075 3097 
Q 1594 3097 1305 2825 
Q 1016 2553 972 2059 
L 3022 2063 
z
" transform="scale(0.015625)"/>
       <path id="DejaVuSans-63" d="M 3122 3366 
L 3122 2828 
Q 2878 2963 2633 3030 
Q 2388 3097 2138 3097 
Q 1578 3097 1268 2742 
Q 959 2388 959 1747 
Q 959 1106 1268 751 
Q 1578 397 2138 397 
Q 2388 397 2633 464 
Q 2878 531 3122 666 
L 3122 134 
Q 2881 22 2623 -34 
Q 2366 -91 2075 -91 
Q 1284 -91 818 406 
Q 353 903 353 1747 
Q 353 2603 823 3093 
Q 1294 3584 2113 3584 
Q 2378 3584 2631 3529 
Q 2884 3475 3122 3366 
z
" transform="scale(0.015625)"/>
       <path id="DejaVuSans-74" d="M 1172 4494 
L 1172 3500 
L 2356 3500 
L 2356 3053 
L 1172 3053 
L 1172 1153 
Q 1172 725 1289 603 
Q 1406 481 1766 481 
L 2356 481 
L 2356 0 
L 1766 0 
Q 1100 0 847 248 
Q 594 497 594 1153 
L 594 3053 
L 172 3053 
L 172 3500 
L 594 3500 
L 594 4494 
L 1172 4494 
z
" transform="scale(0.015625)"/>
       <path id="DejaVuSans-72" d="M 2631 2963 
Q 2534 3019 2420 3045 
Q 2306 3072 2169 3072 
Q 1681 3072 1420 2755 
Q 1159 2438 1159 1844 
L 1159 0 
L 581 0 
L 581 3500 
L 1159 3500 
L 1159 2956 
Q 1341 3275 1631 3429 
Q 1922 3584 2338 3584 
Q 2397 3584 2469 3576 
Q 2541 3569 2628 3553 
L 2631 2963 
z
" transform="scale(0.015625)"/>
       <path id="DejaVuSans-61" d="M 2194 1759 
Q 1497 1759 1228 1600 
Q 959 1441 959 1056 
Q 959 750 1161 570 
Q 1363 391 1709 391 
Q 2188 391 2477 730 
Q 2766 1069 2766 1631 
L 2766 1759 
L 2194 1759 
z
M 3341 1997 
L 3341 0 
L 2766 0 
L 2766 531 
Q 2569 213 2275 61 
Q 1981 -91 1556 -91 
Q 1019 -91 701 211 
Q 384 513 384 1019 
Q 384 1609 779 1909 
Q 1175 2209 1959 2209 
L 2766 2209 
L 2766 2266 
Q 2766 2663 2505 2880 
Q 2244 3097 1772 3097 
Q 1472 3097 1187 3025 
Q 903 2953 641 2809 
L 641 3341 
Q 956 3463 1253 3523 
Q 1550 3584 1831 3584 
Q 2591 3584 2966 3190 
Q 3341 2797 3341 1997 
z
" transform="scale(0.015625)"/>
       <path id="DejaVuSans-6c" d="M 603 4863 
L 1178 4863 
L 1178 0 
L 603 0 
L 603 4863 
z
" transform="scale(0.015625)"/>
       <path id="DejaVuSans-20" transform="scale(0.015625)"/>
       <path id="DejaVuSans-71" d="M 947 1747 
Q 947 1113 1208 752 
Q 1469 391 1925 391 
Q 2381 391 2643 752 
Q 2906 1113 2906 1747 
Q 2906 2381 2643 2742 
Q 2381 3103 1925 3103 
Q 1469 3103 1208 2742 
Q 947 2381 947 1747 
z
M 2906 525 
Q 2725 213 2448 61 
Q 2172 -91 1784 -91 
Q 1150 -91 751 415 
Q 353 922 353 1747 
Q 353 2572 751 3078 
Q 1150 3584 1784 3584 
Q 2172 3584 2448 3432 
Q 2725 3281 2906 2969 
L 2906 3500 
L 3481 3500 
L 3481 -1331 
L 2906 -1331 
L 2906 525 
z
" transform="scale(0.015625)"/>
       <path id="DejaVuSans-75" d="M 544 1381 
L 544 3500 
L 1119 3500 
L 1119 1403 
Q 1119 906 1312 657 
Q 1506 409 1894 409 
Q 2359 409 2629 706 
Q 2900 1003 2900 1516 
L 2900 3500 
L 3475 3500 
L 3475 0 
L 2900 0 
L 2900 538 
Q 2691 219 2414 64 
Q 2138 -91 1772 -91 
Q 1169 -91 856 284 
Q 544 659 544 1381 
z
M 1991 3584 
L 1991 3584 
z
" transform="scale(0.015625)"/>
       <path id="DejaVuSans-69" d="M 603 3500 
L 1178 3500 
L 1178 0 
L 603 0 
L 603 3500 
z
M 603 4863 
L 1178 4863 
L 1178 4134 
L 603 4134 
L 603 4863 
z
" transform="scale(0.015625)"/>
       <path id="DejaVuSans-6f" d="M 1959 3097 
Q 1497 3097 1228 2736 
Q 959 2375 959 1747 
Q 959 1119 1226 758 
Q 1494 397 1959 397 
Q 2419 397 2687 759 
Q 2956 1122 2956 1747 
Q 2956 2369 2687 2733 
Q 2419 3097 1959 3097 
z
M 1959 3584 
Q 2709 3584 3137 3096 
Q 3566 2609 3566 1747 
Q 3566 888 3137 398 
Q 2709 -91 1959 -91 
Q 1206 -91 779 398 
Q 353 888 353 1747 
Q 353 2609 779 3096 
Q 1206 3584 1959 3584 
z
" transform="scale(0.015625)"/>
       <path id="DejaVuSans-6e" d="M 3513 2113 
L 3513 0 
L 2938 0 
L 2938 2094 
Q 2938 2591 2744 2837 
Q 2550 3084 2163 3084 
Q 1697 3084 1428 2787 
Q 1159 2491 1159 1978 
L 1159 0 
L 581 0 
L 581 3500 
L 1159 3500 
L 1159 2956 
Q 1366 3272 1645 3428 
Q 1925 3584 2291 3584 
Q 2894 3584 3203 3211 
Q 3513 2838 3513 2113 
z
" transform="scale(0.015625)"/>
       <path id="DejaVuSans-64" d="M 2906 2969 
L 2906 4863 
L 3481 4863 
L 3481 0 
L 2906 0 
L 2906 525 
Q 2725 213 2448 61 
Q 2172 -91 1784 -91 
Q 1150 -91 751 415 
Q 353 922 353 1747 
Q 353 2572 751 3078 
Q 1150 3584 1784 3584 
Q 2172 3584 2448 3432 
Q 2725 3281 2906 2969 
z
M 947 1747 
Q 947 1113 1208 752 
Q 1469 391 1925 391 
Q 2381 391 2643 752 
Q 2906 1113 2906 1747 
Q 2906 2381 2643 2742 
Q 2381 3103 1925 3103 
Q 1469 3103 1208 2742 
Q 947 2381 947 1747 
z
" transform="scale(0.015625)"/>
       <path id="DejaVuSans-28" d="M 1984 4856 
Q 1566 4138 1362 3434 
Q 1159 2731 1159 2009 
Q 1159 1288 1364 580 
Q 1569 -128 1984 -844 
L 1484 -844 
Q 1016 -109 783 600 
Q 550 1309 550 2009 
Q 550 2706 781 3412 
Q 1013 4119 1484 4856 
L 1984 4856 
z
" transform="scale(0.015625)"/>
       <path id="DejaVuSans-48" d="M 628 4666 
L 1259 4666 
L 1259 2753 
L 3553 2753 
L 3553 4666 
L 4184 4666 
L 4184 0 
L 3553 0 
L 3553 2222 
L 1259 2222 
L 1259 0 
L 628 0 
L 628 4666 
z
" transform="scale(0.015625)"/>
       <path id="DejaVuSans-7a" d="M 353 3500 
L 3084 3500 
L 3084 2975 
L 922 459 
L 3084 459 
L 3084 0 
L 275 0 
L 275 525 
L 2438 3041 
L 353 3041 
L 353 3500 
z
" transform="scale(0.015625)"/>
       <path id="DejaVuSans-29" d="M 513 4856 
L 1013 4856 
Q 1481 4119 1714 3412 
Q 1947 2706 1947 2009 
Q 1947 1309 1714 600 
Q 1481 -109 1013 -844 
L 513 -844 
Q 928 -128 1133 580 
Q 1338 1288 1338 2009 
Q 1338 2731 1133 3434 
Q 928 4138 513 4856 
z
" transform="scale(0.015625)"/>
      </defs>
      <use xlink:href="#DejaVuSans-73"/>
      <use xlink:href="#DejaVuSans-70" x="52.099609"/>
      <use xlink:href="#DejaVuSans-65" x="115.576172"/>
      <use xlink:href="#DejaVuSans-63" x="177.099609"/>
      <use xlink:href="#DejaVuSans-74" x="232.080078"/>
      <use xlink:href="#DejaVuSans-72" x="271.289062"/>
      <use xlink:href="#DejaVuSans-61" x="312.402344"/>
      <use xlink:href="#DejaVuSans-6c" x="373.681641"/>
      <use xlink:href="#DejaVuSans-20" x="401.464844"/>
      <use xlink:href="#DejaVuSans-61" x="433.251953"/>
      <use xlink:href="#DejaVuSans-63" x="494.53125"/>
      <use xlink:href="#DejaVuSans-71" x="549.511719"/>
      <use xlink:href="#DejaVuSans-75" x="612.988281"/>
      <use xlink:href="#DejaVuSans-69" x="676.367188"/>
      <use xlink:href="#DejaVuSans-73" x="704.150391"/>
      <use xlink:href="#DejaVuSans-69" x="756.25"/>
      <use xlink:href="#DejaVuSans-74" x="784.033203"/>
      <use xlink:href="#DejaVuSans-69" x="823.242188"/>
      <use xlink:href="#DejaVuSans-6f" x="851.025391"/>
      <use xlink:href="#DejaVuSans-6e" x="912.207031"/>
      <use xlink:href="#DejaVuSans-20" x="975.585938"/>
      <use xlink:href="#DejaVuSans-73" x="1007.373047"/>
      <use xlink:href="#DejaVuSans-70" x="1059.472656"/>
      <use xlink:href="#DejaVuSans-65" x="1122.949219"/>
      <use xlink:href="#DejaVuSans-65" x="1184.472656"/>
      <use xlink:href="#DejaVuSans-64" x="1245.996094"/>
      <use xlink:href="#DejaVuSans-20" x="1309.472656"/>
      <use xlink:href="#DejaVuSans-28" x="1341.259766"/>
      <use xlink:href="#DejaVuSans-48" x="1380.273438"/>
      <use xlink:href="#DejaVuSans-7a" x="1455.46875"/>
      <use xlink:href="#DejaVuSans-29" x="1507.958984"/>
     </g>
    </g>
   </g>
   <g id="matplotlib.axis_2">
    <g id="ytick_1">
     <g id="line2d_53">
      <defs>
       <path id="mcd488580a3" d="M 0 0 
L -3.5 0 
" style="stroke: #000000; stroke-width: 0.8"/>
      </defs>
      <g>
       <use xlink:href="#mcd488580a3" x="128.355954" y="514.747058" style="stroke: #000000; stroke-width: 0.8"/>
      </g>
     </g>
     <g id="text_8">
      <!-- $\mathdefault{10^{1}}$ -->
      <g transform="translate(103.755954 518.546277) scale(0.1 -0.1)">
       <use xlink:href="#DejaVuSans-31" transform="translate(0 0.684375)"/>
       <use xlink:href="#DejaVuSans-30" transform="translate(63.623047 0.684375)"/>
       <use xlink:href="#DejaVuSans-31" transform="translate(128.203125 38.965625) scale(0.7)"/>
      </g>
     </g>
    </g>
    <g id="ytick_2">
     <g id="line2d_54">
      <g>
       <use xlink:href="#mcd488580a3" x="128.355954" y="343.613129" style="stroke: #000000; stroke-width: 0.8"/>
      </g>
     </g>
     <g id="text_9">
      <!-- $\mathdefault{10^{2}}$ -->
      <g transform="translate(103.755954 347.412348) scale(0.1 -0.1)">
       <use xlink:href="#DejaVuSans-31" transform="translate(0 0.765625)"/>
       <use xlink:href="#DejaVuSans-30" transform="translate(63.623047 0.765625)"/>
       <use xlink:href="#DejaVuSans-32" transform="translate(128.203125 39.046875) scale(0.7)"/>
      </g>
     </g>
    </g>
    <g id="ytick_3">
     <g id="line2d_55">
      <g>
       <use xlink:href="#mcd488580a3" x="128.355954" y="172.4792" style="stroke: #000000; stroke-width: 0.8"/>
      </g>
     </g>
     <g id="text_10">
      <!-- $\mathdefault{10^{3}}$ -->
      <g transform="translate(103.755954 176.278418) scale(0.1 -0.1)">
       <use xlink:href="#DejaVuSans-31" transform="translate(0 0.765625)"/>
       <use xlink:href="#DejaVuSans-30" transform="translate(63.623047 0.765625)"/>
       <use xlink:href="#DejaVuSans-33" transform="translate(128.203125 39.046875) scale(0.7)"/>
      </g>
     </g>
    </g>
    <g id="ytick_4">
     <g id="line2d_56">
      <defs>
       <path id="mb56979ddc0" d="M 0 0 
L -2 0 
" style="stroke: #000000; stroke-width: 0.6"/>
      </defs>
      <g>
       <use xlink:href="#mb56979ddc0" x="128.355954" y="604.229352" style="stroke: #000000; stroke-width: 0.6"/>
      </g>
     </g>
    </g>
    <g id="ytick_5">
     <g id="line2d_57">
      <g>
       <use xlink:href="#mb56979ddc0" x="128.355954" y="582.848095" style="stroke: #000000; stroke-width: 0.6"/>
      </g>
     </g>
    </g>
    <g id="ytick_6">
     <g id="line2d_58">
      <g>
       <use xlink:href="#mb56979ddc0" x="128.355954" y="566.263504" style="stroke: #000000; stroke-width: 0.6"/>
      </g>
     </g>
    </g>
    <g id="ytick_7">
     <g id="line2d_59">
      <g>
       <use xlink:href="#mb56979ddc0" x="128.355954" y="552.712906" style="stroke: #000000; stroke-width: 0.6"/>
      </g>
     </g>
    </g>
    <g id="ytick_8">
     <g id="line2d_60">
      <g>
       <use xlink:href="#mb56979ddc0" x="128.355954" y="541.256039" style="stroke: #000000; stroke-width: 0.6"/>
      </g>
     </g>
    </g>
    <g id="ytick_9">
     <g id="line2d_61">
      <g>
       <use xlink:href="#mb56979ddc0" x="128.355954" y="531.331649" style="stroke: #000000; stroke-width: 0.6"/>
      </g>
     </g>
    </g>
    <g id="ytick_10">
     <g id="line2d_62">
      <g>
       <use xlink:href="#mb56979ddc0" x="128.355954" y="522.577717" style="stroke: #000000; stroke-width: 0.6"/>
      </g>
     </g>
    </g>
    <g id="ytick_11">
     <g id="line2d_63">
      <g>
       <use xlink:href="#mb56979ddc0" x="128.355954" y="463.230612" style="stroke: #000000; stroke-width: 0.6"/>
      </g>
     </g>
    </g>
    <g id="ytick_12">
     <g id="line2d_64">
      <g>
       <use xlink:href="#mb56979ddc0" x="128.355954" y="433.095423" style="stroke: #000000; stroke-width: 0.6"/>
      </g>
     </g>
    </g>
    <g id="ytick_13">
     <g id="line2d_65">
      <g>
       <use xlink:href="#mb56979ddc0" x="128.355954" y="411.714166" style="stroke: #000000; stroke-width: 0.6"/>
      </g>
     </g>
    </g>
    <g id="ytick_14">
     <g id="line2d_66">
      <g>
       <use xlink:href="#mb56979ddc0" x="128.355954" y="395.129575" style="stroke: #000000; stroke-width: 0.6"/>
      </g>
     </g>
    </g>
    <g id="ytick_15">
     <g id="line2d_67">
      <g>
       <use xlink:href="#mb56979ddc0" x="128.355954" y="381.578977" style="stroke: #000000; stroke-width: 0.6"/>
      </g>
     </g>
    </g>
    <g id="ytick_16">
     <g id="line2d_68">
      <g>
       <use xlink:href="#mb56979ddc0" x="128.355954" y="370.12211" style="stroke: #000000; stroke-width: 0.6"/>
      </g>
     </g>
    </g>
    <g id="ytick_17">
     <g id="line2d_69">
      <g>
       <use xlink:href="#mb56979ddc0" x="128.355954" y="360.19772" style="stroke: #000000; stroke-width: 0.6"/>
      </g>
     </g>
    </g>
    <g id="ytick_18">
     <g id="line2d_70">
      <g>
       <use xlink:href="#mb56979ddc0" x="128.355954" y="351.443788" style="stroke: #000000; stroke-width: 0.6"/>
      </g>
     </g>
    </g>
    <g id="ytick_19">
     <g id="line2d_71">
      <g>
       <use xlink:href="#mb56979ddc0" x="128.355954" y="292.096683" style="stroke: #000000; stroke-width: 0.6"/>
      </g>
     </g>
    </g>
    <g id="ytick_20">
     <g id="line2d_72">
      <g>
       <use xlink:href="#mb56979ddc0" x="128.355954" y="261.961494" style="stroke: #000000; stroke-width: 0.6"/>
      </g>
     </g>
    </g>
    <g id="ytick_21">
     <g id="line2d_73">
      <g>
       <use xlink:href="#mb56979ddc0" x="128.355954" y="240.580237" style="stroke: #000000; stroke-width: 0.6"/>
      </g>
     </g>
    </g>
    <g id="ytick_22">
     <g id="line2d_74">
      <g>
       <use xlink:href="#mb56979ddc0" x="128.355954" y="223.995646" style="stroke: #000000; stroke-width: 0.6"/>
      </g>
     </g>
    </g>
    <g id="ytick_23">
     <g id="line2d_75">
      <g>
       <use xlink:href="#mb56979ddc0" x="128.355954" y="210.445048" style="stroke: #000000; stroke-width: 0.6"/>
      </g>
     </g>
    </g>
    <g id="ytick_24">
     <g id="line2d_76">
      <g>
       <use xlink:href="#mb56979ddc0" x="128.355954" y="198.988181" style="stroke: #000000; stroke-width: 0.6"/>
      </g>
     </g>
    </g>
    <g id="ytick_25">
     <g id="line2d_77">
      <g>
       <use xlink:href="#mb56979ddc0" x="128.355954" y="189.063791" style="stroke: #000000; stroke-width: 0.6"/>
      </g>
     </g>
    </g>
    <g id="ytick_26">
     <g id="line2d_78">
      <g>
       <use xlink:href="#mb56979ddc0" x="128.355954" y="180.309859" style="stroke: #000000; stroke-width: 0.6"/>
      </g>
     </g>
    </g>
    <g id="ytick_27">
     <g id="line2d_79">
      <g>
       <use xlink:href="#mb56979ddc0" x="128.355954" y="120.962754" style="stroke: #000000; stroke-width: 0.6"/>
      </g>
     </g>
    </g>
    <g id="ytick_28">
     <g id="line2d_80">
      <g>
       <use xlink:href="#mb56979ddc0" x="128.355954" y="90.827565" style="stroke: #000000; stroke-width: 0.6"/>
      </g>
     </g>
    </g>
    <g id="ytick_29">
     <g id="line2d_81">
      <g>
       <use xlink:href="#mb56979ddc0" x="128.355954" y="69.446308" style="stroke: #000000; stroke-width: 0.6"/>
      </g>
     </g>
    </g>
    <g id="text_11">
     <!-- optical bandwidth ($\mathrm{cm^{-1}}$) -->
     <g transform="translate(97.655954 406.077238) rotate(-90) scale(0.1 -0.1)">
      <defs>
       <path id="DejaVuSans-62" d="M 3116 1747 
Q 3116 2381 2855 2742 
Q 2594 3103 2138 3103 
Q 1681 3103 1420 2742 
Q 1159 2381 1159 1747 
Q 1159 1113 1420 752 
Q 1681 391 2138 391 
Q 2594 391 2855 752 
Q 3116 1113 3116 1747 
z
M 1159 2969 
Q 1341 3281 1617 3432 
Q 1894 3584 2278 3584 
Q 2916 3584 3314 3078 
Q 3713 2572 3713 1747 
Q 3713 922 3314 415 
Q 2916 -91 2278 -91 
Q 1894 -91 1617 61 
Q 1341 213 1159 525 
L 1159 0 
L 581 0 
L 581 4863 
L 1159 4863 
L 1159 2969 
z
" transform="scale(0.015625)"/>
       <path id="DejaVuSans-77" d="M 269 3500 
L 844 3500 
L 1563 769 
L 2278 3500 
L 2956 3500 
L 3675 769 
L 4391 3500 
L 4966 3500 
L 4050 0 
L 3372 0 
L 2619 2869 
L 1863 0 
L 1184 0 
L 269 3500 
z
" transform="scale(0.015625)"/>
       <path id="DejaVuSans-68" d="M 3513 2113 
L 3513 0 
L 2938 0 
L 2938 2094 
Q 2938 2591 2744 2837 
Q 2550 3084 2163 3084 
Q 1697 3084 1428 2787 
Q 1159 2491 1159 1978 
L 1159 0 
L 581 0 
L 581 4863 
L 1159 4863 
L 1159 2956 
Q 1366 3272 1645 3428 
Q 1925 3584 2291 3584 
Q 2894 3584 3203 3211 
Q 3513 2838 3513 2113 
z
" transform="scale(0.015625)"/>
       <path id="DejaVuSans-6d" d="M 3328 2828 
Q 3544 3216 3844 3400 
Q 4144 3584 4550 3584 
Q 5097 3584 5394 3201 
Q 5691 2819 5691 2113 
L 5691 0 
L 5113 0 
L 5113 2094 
Q 5113 2597 4934 2840 
Q 4756 3084 4391 3084 
Q 3944 3084 3684 2787 
Q 3425 2491 3425 1978 
L 3425 0 
L 2847 0 
L 2847 2094 
Q 2847 2600 2669 2842 
Q 2491 3084 2119 3084 
Q 1678 3084 1418 2786 
Q 1159 2488 1159 1978 
L 1159 0 
L 581 0 
L 581 3500 
L 1159 3500 
L 1159 2956 
Q 1356 3278 1631 3431 
Q 1906 3584 2284 3584 
Q 2666 3584 2933 3390 
Q 3200 3197 3328 2828 
z
" transform="scale(0.015625)"/>
       <path id="DejaVuSans-2212" d="M 678 2272 
L 4684 2272 
L 4684 1741 
L 678 1741 
L 678 2272 
z
" transform="scale(0.015625)"/>
      </defs>
      <use xlink:href="#DejaVuSans-6f" transform="translate(0 0.684375)"/>
      <use xlink:href="#DejaVuSans-70" transform="translate(61.181641 0.684375)"/>
      <use xlink:href="#DejaVuSans-74" transform="translate(124.658203 0.684375)"/>
      <use xlink:href="#DejaVuSans-69" transform="translate(163.867188 0.684375)"/>
      <use xlink:href="#DejaVuSans-63" transform="translate(191.650391 0.684375)"/>
      <use xlink:href="#DejaVuSans-61" transform="translate(246.630859 0.684375)"/>
      <use xlink:href="#DejaVuSans-6c" transform="translate(307.910156 0.684375)"/>
      <use xlink:href="#DejaVuSans-20" transform="translate(335.693359 0.684375)"/>
      <use xlink:href="#DejaVuSans-62" transform="translate(367.480469 0.684375)"/>
      <use xlink:href="#DejaVuSans-61" transform="translate(430.957031 0.684375)"/>
      <use xlink:href="#DejaVuSans-6e" transform="translate(492.236328 0.684375)"/>
      <use xlink:href="#DejaVuSans-64" transform="translate(555.615234 0.684375)"/>
      <use xlink:href="#DejaVuSans-77" transform="translate(619.091797 0.684375)"/>
      <use xlink:href="#DejaVuSans-69" transform="translate(700.878906 0.684375)"/>
      <use xlink:href="#DejaVuSans-64" transform="translate(728.662109 0.684375)"/>
      <use xlink:href="#DejaVuSans-74" transform="translate(792.138672 0.684375)"/>
      <use xlink:href="#DejaVuSans-68" transform="translate(831.347656 0.684375)"/>
      <use xlink:href="#DejaVuSans-20" transform="translate(894.726562 0.684375)"/>
      <use xlink:href="#DejaVuSans-28" transform="translate(926.513672 0.684375)"/>
      <use xlink:href="#DejaVuSans-63" transform="translate(965.527344 0.684375)"/>
      <use xlink:href="#DejaVuSans-6d" transform="translate(1020.507812 0.684375)"/>
      <use xlink:href="#DejaVuSans-2212" transform="translate(1118.876953 38.965625) scale(0.7)"/>
      <use xlink:href="#DejaVuSans-31" transform="translate(1177.529297 38.965625) scale(0.7)"/>
      <use xlink:href="#DejaVuSans-29" transform="translate(1224.799805 0.684375)"/>
     </g>
    </g>
   </g>
   <g id="line2d_82">
    <defs>
     <path id="m6485bb7763" d="M 0 3 
C 0.795609 3 1.55874 2.683901 2.12132 2.12132 
C 2.683901 1.55874 3 0.795609 3 0 
C 3 -0.795609 2.683901 -1.55874 2.12132 -2.12132 
C 1.55874 -2.683901 0.795609 -3 0 -3 
C -0.795609 -3 -1.55874 -2.683901 -2.12132 -2.12132 
C -2.683901 -1.55874 -3 -0.795609 -3 0 
C -3 0.795609 -2.683901 1.55874 -2.12132 2.12132 
C -1.55874 2.683901 -0.795609 3 0 3 
z
" style="stroke: #1f77b4"/>
    </defs>
    <g clip-path="url(#p11f5f185c8)">
     <use xlink:href="#m6485bb7763" x="184.222359" y="104.378163" style="fill: #1f77b4; stroke: #1f77b4"/>
    </g>
   </g>
   <g id="line2d_83">
    <defs>
     <path id="m632aa93dc0" d="M 0 3 
C 0.795609 3 1.55874 2.683901 2.12132 2.12132 
C 2.683901 1.55874 3 0.795609 3 0 
C 3 -0.795609 2.683901 -1.55874 2.12132 -2.12132 
C 1.55874 -2.683901 0.795609 -3 0 -3 
C -0.795609 -3 -1.55874 -2.683901 -2.12132 -2.12132 
C -2.683901 -1.55874 -3 -0.795609 -3 0 
C -3 0.795609 -2.683901 1.55874 -2.12132 2.12132 
C -1.55874 2.683901 -0.795609 3 0 3 
z
" style="stroke: #ff7f0e"/>
    </defs>
    <g clip-path="url(#p11f5f185c8)">
     <use xlink:href="#m632aa93dc0" x="382.53618" y="81.525124" style="fill: #ff7f0e; stroke: #ff7f0e"/>
    </g>
   </g>
   <g id="line2d_84">
    <defs>
     <path id="m17484ea1c3" d="M 0 3 
C 0.795609 3 1.55874 2.683901 2.12132 2.12132 
C 2.683901 1.55874 3 0.795609 3 0 
C 3 -0.795609 2.683901 -1.55874 2.12132 -2.12132 
C 1.55874 -2.683901 0.795609 -3 0 -3 
C -0.795609 -3 -1.55874 -2.683901 -2.12132 -2.12132 
C -2.683901 -1.55874 -3 -0.795609 -3 0 
C -3 0.795609 -2.683901 1.55874 -2.12132 2.12132 
C -1.55874 2.683901 -0.795609 3 0 3 
z
" style="stroke: #2ca02c"/>
    </defs>
    <g clip-path="url(#p11f5f185c8)">
     <use xlink:href="#m17484ea1c3" x="1258.083876" y="604.229352" style="fill: #2ca02c; stroke: #2ca02c"/>
    </g>
   </g>
   <g id="line2d_85">
    <defs>
     <path id="m8d2bb77182" d="M 0 3 
C 0.795609 3 1.55874 2.683901 2.12132 2.12132 
C 2.683901 1.55874 3 0.795609 3 0 
C 3 -0.795609 2.683901 -1.55874 2.12132 -2.12132 
C 1.55874 -2.683901 0.795609 -3 0 -3 
C -0.795609 -3 -1.55874 -2.683901 -2.12132 -2.12132 
C -2.683901 -1.55874 -3 -0.795609 -3 0 
C -3 0.795609 -2.683901 1.55874 -2.12132 2.12132 
C -1.55874 2.683901 -0.795609 3 0 3 
z
" style="stroke: #9467bd"/>
    </defs>
    <g clip-path="url(#p11f5f185c8)">
     <use xlink:href="#m8d2bb77182" x="1301.550462" y="604.229352" style="fill: #9467bd; stroke: #9467bd"/>
    </g>
   </g>
   <g id="line2d_86">
    <defs>
     <path id="mf49e013639" d="M 0 3 
C 0.795609 3 1.55874 2.683901 2.12132 2.12132 
C 2.683901 1.55874 3 0.795609 3 0 
C 3 -0.795609 2.683901 -1.55874 2.12132 -2.12132 
C 1.55874 -2.683901 0.795609 -3 0 -3 
C -0.795609 -3 -1.55874 -2.683901 -2.12132 -2.12132 
C -2.683901 -1.55874 -3 -0.795609 -3 0 
C -3 0.795609 -2.683901 1.55874 -2.12132 2.12132 
C -1.55874 2.683901 -0.795609 3 0 3 
z
" style="stroke: #8c564b"/>
    </defs>
    <g clip-path="url(#p11f5f185c8)">
     <use xlink:href="#mf49e013639" x="596.209249" y="343.613129" style="fill: #8c564b; stroke: #8c564b"/>
    </g>
   </g>
   <g id="line2d_87">
    <g clip-path="url(#p11f5f185c8)">
     <use xlink:href="#mf49e013639" x="766.415733" y="299.927342" style="fill: #8c564b; stroke: #8c564b"/>
    </g>
   </g>
   <g id="line2d_88">
    <defs>
     <path id="m0b74acc186" d="M 0 3 
C 0.795609 3 1.55874 2.683901 2.12132 2.12132 
C 2.683901 1.55874 3 0.795609 3 0 
C 3 -0.795609 2.683901 -1.55874 2.12132 -2.12132 
C 1.55874 -2.683901 0.795609 -3 0 -3 
C -0.795609 -3 -1.55874 -2.683901 -2.12132 -2.12132 
C -2.683901 -1.55874 -3 -0.795609 -3 0 
C -3 0.795609 -2.683901 1.55874 -2.12132 2.12132 
C -1.55874 2.683901 -0.795609 3 0 3 
z
" style="stroke: #e377c2"/>
    </defs>
    <g clip-path="url(#p11f5f185c8)">
     <use xlink:href="#m0b74acc186" x="446.858183" y="104.378163" style="fill: #e377c2; stroke: #e377c2"/>
    </g>
   </g>
   <g id="line2d_89">
    <path d="M 1271.066259 604.229352 
L 1269.172181 522.073834 
L 1267.238636 484.007617 
L 1265.263944 458.957179 
L 1263.246316 440.254994 
L 1261.183844 425.32546 
L 1259.074487 412.899071 
L 1256.916066 402.25575 
L 1254.706242 392.947418 
L 1252.442509 384.676197 
L 1250.122169 377.233977 
L 1247.74232 370.469615 
L 1245.299827 364.269871 
L 1242.791304 358.547707 
L 1240.213081 353.234779 
L 1237.561174 348.276437 
L 1234.831247 343.628298 
L 1232.01857 339.253824 
L 1229.117968 335.122572 
L 1226.123768 331.208917 
L 1223.029726 327.491077 
L 1219.828954 323.950388 
L 1216.513823 320.570734 
L 1213.07586 317.338101 
L 1209.50561 314.240229 
L 1205.792483 311.26633 
L 1201.924566 308.406864 
L 1197.88839 305.653348 
L 1193.668647 302.998211 
L 1189.247842 300.434665 
L 1184.60585 297.956601 
L 1179.719369 295.558502 
L 1174.561203 293.235367 
L 1169.099356 290.982652 
L 1163.295819 288.796213 
L 1157.104971 286.672262 
L 1150.471396 284.607325 
L 1143.326861 282.598211 
L 1135.586033 280.641983 
L 1127.140239 278.735926 
L 1117.84809 276.877531 
L 1107.520873 275.064474 
L 1095.898748 273.294593 
L 1082.609793 271.565882 
L 1067.094549 269.876467 
L 1048.453948 268.224602 
L 1025.102919 266.608654 
L 993.825637 265.027094 
L 946.297217 263.478489 
L 843.720119 261.961494 
" clip-path="url(#p11f5f185c8)" style="fill: none; stroke: #7f7f7f; stroke-opacity: 0.6; stroke-width: 5; stroke-linecap: square"/>
   </g>
   <g id="line2d_90">
    <path d="M 953.095808 514.747058 
L 951.20173 480.195371 
L 949.268185 456.700535 
L 947.293494 438.876058 
L 945.275866 424.510214 
L 943.213393 412.476455 
L 941.104037 402.122316 
L 938.945615 393.035844 
L 936.735792 384.94022 
L 934.472058 377.640439 
L 932.151719 370.993938 
L 929.771869 364.893335 
L 927.329376 359.255724 
L 924.820853 354.015758 
L 922.24263 349.12102 
L 919.590723 344.528818 
L 916.860796 340.203921 
L 914.048119 336.116914 
L 911.147518 332.242986 
L 908.153318 328.561015 
L 905.059276 325.052873 
L 901.858503 321.702884 
L 898.543373 318.497401 
L 895.105409 315.424471 
L 891.535159 312.473566 
L 887.822032 309.635363 
L 883.954115 306.90157 
L 879.917939 304.264776 
L 875.698197 301.718333 
L 871.277391 299.256254 
L 866.6354 296.873127 
L 861.748918 294.564047 
L 856.590753 292.32455 
L 851.128905 290.150564 
L 845.325368 288.038366 
L 839.13452 285.98454 
L 832.500945 283.985947 
L 825.35641 282.039693 
L 817.615583 280.143107 
L 809.169788 278.293716 
L 799.877639 276.48923 
L 789.550423 274.727519 
L 777.928298 273.006601 
L 764.639343 271.32463 
L 749.124098 269.679883 
L 730.483497 268.070748 
L 707.132468 266.495714 
L 675.855187 264.953366 
L 628.326767 263.442376 
L 525.749669 261.961494 
" clip-path="url(#p11f5f185c8)" style="fill: none; stroke: #bcbd22; stroke-opacity: 0.6; stroke-width: 5; stroke-linecap: square"/>
   </g>
   <g id="line2d_91">
    <defs>
     <path id="m88202d9fc5" d="M 0 3 
C 0.795609 3 1.55874 2.683901 2.12132 2.12132 
C 2.683901 1.55874 3 0.795609 3 0 
C 3 -0.795609 2.683901 -1.55874 2.12132 -2.12132 
C 1.55874 -2.683901 0.795609 -3 0 -3 
C -0.795609 -3 -1.55874 -2.683901 -2.12132 -2.12132 
C -2.683901 -1.55874 -3 -0.795609 -3 0 
C -3 0.795609 -2.683901 1.55874 -2.12132 2.12132 
C -1.55874 2.683901 -0.795609 3 0 3 
z
" style="stroke: #bcbd22"/>
    </defs>
    <g clip-path="url(#p11f5f185c8)">
     <use xlink:href="#m88202d9fc5" x="818.726821" y="292.096683" style="fill: #bcbd22; stroke: #bcbd22"/>
    </g>
   </g>
   <g id="line2d_92">
    <path d="M 874.204323 514.747058 
L 872.310245 502.214593 
L 870.3767 491.493598 
L 868.402008 482.125934 
L 866.38438 473.807912 
L 864.321907 466.327832 
L 862.212551 459.532211 
L 860.05413 453.306222 
L 857.844306 447.56171 
L 855.580573 442.229522 
L 853.260233 437.254411 
L 850.880383 432.59154 
L 848.43789 428.204019 
L 845.929367 424.061134 
L 843.351144 420.13704 
L 840.699237 416.409781 
L 837.96931 412.860552 
L 835.156633 409.473116 
L 832.256032 406.233365 
L 829.261832 403.128957 
L 826.16779 400.149036 
L 822.967017 397.284002 
L 819.651887 394.525323 
L 816.213924 391.865387 
L 812.643673 389.297366 
L 808.930547 386.815122 
L 805.06263 384.413108 
L 801.026454 382.0863 
L 796.806711 379.830131 
L 792.385906 377.640439 
L 787.743914 375.513417 
L 782.857432 373.445578 
L 777.699267 371.433718 
L 772.237419 369.474885 
L 766.433882 367.566356 
L 760.243035 365.705611 
L 753.60946 363.890317 
L 746.464925 362.118306 
L 738.724097 360.387561 
L 730.278302 358.696204 
L 720.986153 357.042483 
L 710.658937 355.424758 
L 699.036812 353.841497 
L 685.747857 352.29126 
L 670.232613 350.7727 
L 651.592011 349.284546 
L 628.240982 347.825606 
L 596.963701 346.394754 
L 549.435281 344.990929 
L 446.858183 343.613129 
" clip-path="url(#p11f5f185c8)" style="fill: none; stroke: #17becf; stroke-opacity: 0.6; stroke-width: 5; stroke-linecap: square"/>
   </g>
   <g id="line2d_93">
    <defs>
     <path id="m9b67f139c2" d="M 0 3 
C 0.795609 3 1.55874 2.683901 2.12132 2.12132 
C 2.683901 1.55874 3 0.795609 3 0 
C 3 -0.795609 2.683901 -1.55874 2.12132 -2.12132 
C 1.55874 -2.683901 0.795609 -3 0 -3 
C -0.795609 -3 -1.55874 -2.683901 -2.12132 -2.12132 
C -2.683901 -1.55874 -3 -0.795609 -3 0 
C -3 0.795609 -2.683901 1.55874 -2.12132 2.12132 
C -1.55874 2.683901 -0.795609 3 0 3 
z
" style="stroke: #ffd700"/>
    </defs>
    <g clip-path="url(#p11f5f185c8)">
     <use xlink:href="#m9b67f139c2" x="233.185113" y="158.928602" style="fill: #ffd700; stroke: #ffd700"/>
    </g>
   </g>
   <g id="line2d_94">
    <defs>
     <path id="m058fbfb50a" d="M 0 3 
C 0.795609 3 1.55874 2.683901 2.12132 2.12132 
C 2.683901 1.55874 3 0.795609 3 0 
C 3 -0.795609 2.683901 -1.55874 2.12132 -2.12132 
C 1.55874 -2.683901 0.795609 -3 0 -3 
C -0.795609 -3 -1.55874 -2.683901 -2.12132 -2.12132 
C -2.683901 -1.55874 -3 -0.795609 -3 0 
C -3 0.795609 -2.683901 1.55874 -2.12132 2.12132 
C -1.55874 2.683901 -0.795609 3 0 3 
z
" style="stroke: #483d8b"/>
    </defs>
    <g clip-path="url(#p11f5f185c8)">
     <use xlink:href="#m058fbfb50a" x="537.294428" y="90.827565" style="fill: #483d8b; stroke: #483d8b"/>
    </g>
   </g>
   <g id="line2d_95">
    <defs>
     <path id="ma8a729cc5d" d="M 0 3 
C 0.795609 3 1.55874 2.683901 2.12132 2.12132 
C 2.683901 1.55874 3 0.795609 3 0 
C 3 -0.795609 2.683901 -1.55874 2.12132 -2.12132 
C 1.55874 -2.683901 0.795609 -3 0 -3 
C -0.795609 -3 -1.55874 -2.683901 -2.12132 -2.12132 
C -2.683901 -1.55874 -3 -0.795609 -3 0 
C -3 0.795609 -2.683901 1.55874 -2.12132 2.12132 
C -1.55874 2.683901 -0.795609 3 0 3 
z
" style="stroke: #808000"/>
    </defs>
    <g clip-path="url(#p11f5f185c8)">
     <use xlink:href="#ma8a729cc5d" x="855.675428" y="560.543565" style="fill: #808000; stroke: #808000"/>
    </g>
   </g>
   <g id="line2d_96">
    <defs>
     <path id="m4285acd24d" d="M 0 3 
C 0.795609 3 1.55874 2.683901 2.12132 2.12132 
C 2.683901 1.55874 3 0.795609 3 0 
C 3 -0.795609 2.683901 -1.55874 2.12132 -2.12132 
C 1.55874 -2.683901 0.795609 -3 0 -3 
C -0.795609 -3 -1.55874 -2.683901 -2.12132 -2.12132 
C -2.683901 -1.55874 -3 -0.795609 -3 0 
C -3 0.795609 -2.683901 1.55874 -2.12132 2.12132 
C -1.55874 2.683901 -0.795609 3 0 3 
z
" style="stroke: #dc143c"/>
    </defs>
    <g clip-path="url(#p11f5f185c8)">
     <use xlink:href="#m4285acd24d" x="684.161296" y="172.4792" style="fill: #dc143c; stroke: #dc143c"/>
    </g>
   </g>
   <g id="line2d_97">
    <path d="M -1 413.830828 
L 858.227532 708.76 
" clip-path="url(#p11f5f185c8)" style="fill: none; stroke-dasharray: 5.55,2.4; stroke-dashoffset: 0; stroke: #808080; stroke-opacity: 0.5; stroke-width: 1.5"/>
   </g>
   <g id="line2d_98">
    <path d="M -1 328.263864 
L 1107.51278 708.76 
" clip-path="url(#p11f5f185c8)" style="fill: none; stroke-dasharray: 5.55,2.4; stroke-dashoffset: 0; stroke: #808080; stroke-opacity: 0.5; stroke-width: 1.5"/>
   </g>
   <g id="line2d_99">
    <path d="M -1 242.696899 
L 1301.550462 689.796317 
" clip-path="url(#p11f5f185c8)" style="fill: none; stroke-dasharray: 5.55,2.4; stroke-dashoffset: 0; stroke: #808080; stroke-opacity: 0.5; stroke-width: 1.5"/>
   </g>
   <g id="line2d_100">
    <path d="M -1 157.129935 
L 1301.550462 604.229352 
" clip-path="url(#p11f5f185c8)" style="fill: none; stroke-dasharray: 5.55,2.4; stroke-dashoffset: 0; stroke: #808080; stroke-opacity: 0.5; stroke-width: 1.5"/>
   </g>
   <g id="line2d_101">
    <path d="M -1 71.56297 
L 1301.550462 518.662388 
" clip-path="url(#p11f5f185c8)" style="fill: none; stroke-dasharray: 5.55,2.4; stroke-dashoffset: 0; stroke: #808080; stroke-opacity: 0.5; stroke-width: 1.5"/>
   </g>
   <g id="line2d_102">
    <path d="M 36.884995 -1 
L 1301.550462 433.095423 
" clip-path="url(#p11f5f185c8)" style="fill: none; stroke-dasharray: 5.55,2.4; stroke-dashoffset: 0; stroke: #808080; stroke-opacity: 0.5; stroke-width: 1.5"/>
   </g>
   <g id="line2d_103">
    <path d="M 286.170243 -1 
L 1301.550462 347.528458 
" clip-path="url(#p11f5f185c8)" style="fill: none; stroke-dasharray: 5.55,2.4; stroke-dashoffset: 0; stroke: #808080; stroke-opacity: 0.5; stroke-width: 1.5"/>
   </g>
   <g id="patch_3">
    <path d="M 128.355954 630.364563 
L 128.355954 55.389913 
" style="fill: none; stroke: #000000; stroke-width: 0.8; stroke-linejoin: miter; stroke-linecap: square"/>
   </g>
   <g id="patch_4">
    <path d="M 128.355954 630.364563 
L 1357.416867 630.364563 
" style="fill: none; stroke: #000000; stroke-width: 0.8; stroke-linejoin: miter; stroke-linecap: square"/>
   </g>
   <g id="legend_1">
    <g id="patch_5">
     <path d="M 1173.376242 254.205538 
L 1350.416867 254.205538 
Q 1352.416867 254.205538 1352.416867 252.205538 
L 1352.416867 62.389913 
Q 1352.416867 60.389913 1350.416867 60.389913 
L 1173.376242 60.389913 
Q 1171.376242 60.389913 1171.376242 62.389913 
L 1171.376242 252.205538 
Q 1171.376242 254.205538 1173.376242 254.205538 
z
" style="fill: #ffffff; opacity: 0.8; stroke: #cccccc; stroke-linejoin: miter"/>
    </g>
    <g id="line2d_104">
     <g>
      <use xlink:href="#m6485bb7763" x="1185.376242" y="68.488351" style="fill: #1f77b4; stroke: #1f77b4"/>
     </g>
    </g>
    <g id="text_12">
     <!-- b-CARS -->
     <g transform="translate(1203.376242 71.988351) scale(0.1 -0.1)">
      <defs>
       <path id="DejaVuSans-2d" d="M 313 2009 
L 1997 2009 
L 1997 1497 
L 313 1497 
L 313 2009 
z
" transform="scale(0.015625)"/>
       <path id="DejaVuSans-43" d="M 4122 4306 
L 4122 3641 
Q 3803 3938 3442 4084 
Q 3081 4231 2675 4231 
Q 1875 4231 1450 3742 
Q 1025 3253 1025 2328 
Q 1025 1406 1450 917 
Q 1875 428 2675 428 
Q 3081 428 3442 575 
Q 3803 722 4122 1019 
L 4122 359 
Q 3791 134 3420 21 
Q 3050 -91 2638 -91 
Q 1578 -91 968 557 
Q 359 1206 359 2328 
Q 359 3453 968 4101 
Q 1578 4750 2638 4750 
Q 3056 4750 3426 4639 
Q 3797 4528 4122 4306 
z
" transform="scale(0.015625)"/>
       <path id="DejaVuSans-41" d="M 2188 4044 
L 1331 1722 
L 3047 1722 
L 2188 4044 
z
M 1831 4666 
L 2547 4666 
L 4325 0 
L 3669 0 
L 3244 1197 
L 1141 1197 
L 716 0 
L 50 0 
L 1831 4666 
z
" transform="scale(0.015625)"/>
       <path id="DejaVuSans-52" d="M 2841 2188 
Q 3044 2119 3236 1894 
Q 3428 1669 3622 1275 
L 4263 0 
L 3584 0 
L 2988 1197 
Q 2756 1666 2539 1819 
Q 2322 1972 1947 1972 
L 1259 1972 
L 1259 0 
L 628 0 
L 628 4666 
L 2053 4666 
Q 2853 4666 3247 4331 
Q 3641 3997 3641 3322 
Q 3641 2881 3436 2590 
Q 3231 2300 2841 2188 
z
M 1259 4147 
L 1259 2491 
L 2053 2491 
Q 2509 2491 2742 2702 
Q 2975 2913 2975 3322 
Q 2975 3731 2742 3939 
Q 2509 4147 2053 4147 
L 1259 4147 
z
" transform="scale(0.015625)"/>
       <path id="DejaVuSans-53" d="M 3425 4513 
L 3425 3897 
Q 3066 4069 2747 4153 
Q 2428 4238 2131 4238 
Q 1616 4238 1336 4038 
Q 1056 3838 1056 3469 
Q 1056 3159 1242 3001 
Q 1428 2844 1947 2747 
L 2328 2669 
Q 3034 2534 3370 2195 
Q 3706 1856 3706 1288 
Q 3706 609 3251 259 
Q 2797 -91 1919 -91 
Q 1588 -91 1214 -16 
Q 841 59 441 206 
L 441 856 
Q 825 641 1194 531 
Q 1563 422 1919 422 
Q 2459 422 2753 634 
Q 3047 847 3047 1241 
Q 3047 1584 2836 1778 
Q 2625 1972 2144 2069 
L 1759 2144 
Q 1053 2284 737 2584 
Q 422 2884 422 3419 
Q 422 4038 858 4394 
Q 1294 4750 2059 4750 
Q 2388 4750 2728 4690 
Q 3069 4631 3425 4513 
z
" transform="scale(0.015625)"/>
      </defs>
      <use xlink:href="#DejaVuSans-62"/>
      <use xlink:href="#DejaVuSans-2d" x="63.476562"/>
      <use xlink:href="#DejaVuSans-43" x="99.560547"/>
      <use xlink:href="#DejaVuSans-41" x="169.384766"/>
      <use xlink:href="#DejaVuSans-52" x="237.792969"/>
      <use xlink:href="#DejaVuSans-53" x="307.275391"/>
     </g>
    </g>
    <g id="line2d_105">
     <g>
      <use xlink:href="#m632aa93dc0" x="1185.376242" y="83.166476" style="fill: #ff7f0e; stroke: #ff7f0e"/>
     </g>
    </g>
    <g id="text_13">
     <!-- f-SRM -->
     <g transform="translate(1203.376242 86.666476) scale(0.1 -0.1)">
      <defs>
       <path id="DejaVuSans-66" d="M 2375 4863 
L 2375 4384 
L 1825 4384 
Q 1516 4384 1395 4259 
Q 1275 4134 1275 3809 
L 1275 3500 
L 2222 3500 
L 2222 3053 
L 1275 3053 
L 1275 0 
L 697 0 
L 697 3053 
L 147 3053 
L 147 3500 
L 697 3500 
L 697 3744 
Q 697 4328 969 4595 
Q 1241 4863 1831 4863 
L 2375 4863 
z
" transform="scale(0.015625)"/>
       <path id="DejaVuSans-4d" d="M 628 4666 
L 1569 4666 
L 2759 1491 
L 3956 4666 
L 4897 4666 
L 4897 0 
L 4281 0 
L 4281 4097 
L 3078 897 
L 2444 897 
L 1241 4097 
L 1241 0 
L 628 0 
L 628 4666 
z
" transform="scale(0.015625)"/>
      </defs>
      <use xlink:href="#DejaVuSans-66"/>
      <use xlink:href="#DejaVuSans-2d" x="29.705078"/>
      <use xlink:href="#DejaVuSans-53" x="65.789062"/>
      <use xlink:href="#DejaVuSans-52" x="129.265625"/>
      <use xlink:href="#DejaVuSans-4d" x="198.748047"/>
     </g>
    </g>
    <g id="line2d_106">
     <g>
      <use xlink:href="#m17484ea1c3" x="1185.376242" y="97.844601" style="fill: #2ca02c; stroke: #2ca02c"/>
     </g>
    </g>
    <g id="text_14">
     <!-- CARS -->
     <g transform="translate(1203.376242 101.344601) scale(0.1 -0.1)">
      <use xlink:href="#DejaVuSans-43"/>
      <use xlink:href="#DejaVuSans-41" x="69.824219"/>
      <use xlink:href="#DejaVuSans-52" x="138.232422"/>
      <use xlink:href="#DejaVuSans-53" x="207.714844"/>
     </g>
    </g>
    <g id="line2d_107">
     <g>
      <use xlink:href="#m8d2bb77182" x="1185.376242" y="112.522726" style="fill: #9467bd; stroke: #9467bd"/>
     </g>
    </g>
    <g id="text_15">
     <!-- SRS -->
     <g transform="translate(1203.376242 116.022726) scale(0.1 -0.1)">
      <use xlink:href="#DejaVuSans-53"/>
      <use xlink:href="#DejaVuSans-52" x="63.476562"/>
      <use xlink:href="#DejaVuSans-53" x="132.958984"/>
     </g>
    </g>
    <g id="line2d_108">
     <g>
      <use xlink:href="#mf49e013639" x="1185.376242" y="127.200851" style="fill: #8c564b; stroke: #8c564b"/>
     </g>
    </g>
    <g id="text_16">
     <!-- m-SRS -->
     <g transform="translate(1203.376242 130.700851) scale(0.1 -0.1)">
      <use xlink:href="#DejaVuSans-6d"/>
      <use xlink:href="#DejaVuSans-2d" x="97.412109"/>
      <use xlink:href="#DejaVuSans-53" x="133.496094"/>
      <use xlink:href="#DejaVuSans-52" x="196.972656"/>
      <use xlink:href="#DejaVuSans-53" x="266.455078"/>
     </g>
    </g>
    <g id="line2d_109">
     <g>
      <use xlink:href="#m0b74acc186" x="1185.376242" y="141.878976" style="fill: #e377c2; stroke: #e377c2"/>
     </g>
    </g>
    <g id="text_17">
     <!-- NIVI -->
     <g transform="translate(1203.376242 145.378976) scale(0.1 -0.1)">
      <defs>
       <path id="DejaVuSans-4e" d="M 628 4666 
L 1478 4666 
L 3547 763 
L 3547 4666 
L 4159 4666 
L 4159 0 
L 3309 0 
L 1241 3903 
L 1241 0 
L 628 0 
L 628 4666 
z
" transform="scale(0.015625)"/>
       <path id="DejaVuSans-49" d="M 628 4666 
L 1259 4666 
L 1259 0 
L 628 0 
L 628 4666 
z
" transform="scale(0.015625)"/>
       <path id="DejaVuSans-56" d="M 1831 0 
L 50 4666 
L 709 4666 
L 2188 738 
L 3669 4666 
L 4325 4666 
L 2547 0 
L 1831 0 
z
" transform="scale(0.015625)"/>
      </defs>
      <use xlink:href="#DejaVuSans-4e"/>
      <use xlink:href="#DejaVuSans-49" x="74.804688"/>
      <use xlink:href="#DejaVuSans-56" x="104.296875"/>
      <use xlink:href="#DejaVuSans-49" x="172.705078"/>
     </g>
    </g>
    <g id="line2d_110">
     <path d="M 1175.376242 156.557101 
L 1185.376242 156.557101 
L 1195.376242 156.557101 
" style="fill: none; stroke: #7f7f7f; stroke-opacity: 0.6; stroke-width: 5; stroke-linecap: square"/>
    </g>
    <g id="text_18">
     <!-- swept-source-SRS -->
     <g transform="translate(1203.376242 160.057101) scale(0.1 -0.1)">
      <use xlink:href="#DejaVuSans-73"/>
      <use xlink:href="#DejaVuSans-77" x="52.099609"/>
      <use xlink:href="#DejaVuSans-65" x="133.886719"/>
      <use xlink:href="#DejaVuSans-70" x="195.410156"/>
      <use xlink:href="#DejaVuSans-74" x="258.886719"/>
      <use xlink:href="#DejaVuSans-2d" x="298.095703"/>
      <use xlink:href="#DejaVuSans-73" x="334.179688"/>
      <use xlink:href="#DejaVuSans-6f" x="386.279297"/>
      <use xlink:href="#DejaVuSans-75" x="447.460938"/>
      <use xlink:href="#DejaVuSans-72" x="510.839844"/>
      <use xlink:href="#DejaVuSans-63" x="549.703125"/>
      <use xlink:href="#DejaVuSans-65" x="604.683594"/>
      <use xlink:href="#DejaVuSans-2d" x="666.207031"/>
      <use xlink:href="#DejaVuSans-53" x="702.291016"/>
      <use xlink:href="#DejaVuSans-52" x="765.767578"/>
      <use xlink:href="#DejaVuSans-53" x="835.25"/>
     </g>
    </g>
    <g id="line2d_111">
     <path d="M 1175.376242 171.235226 
L 1185.376242 171.235226 
L 1195.376242 171.235226 
" style="fill: none; stroke: #bcbd22; stroke-opacity: 0.6; stroke-width: 5; stroke-linecap: square"/>
    </g>
    <g id="text_19">
     <!-- spectral-focusing-SRS -->
     <g transform="translate(1203.376242 174.735226) scale(0.1 -0.1)">
      <defs>
       <path id="DejaVuSans-67" d="M 2906 1791 
Q 2906 2416 2648 2759 
Q 2391 3103 1925 3103 
Q 1463 3103 1205 2759 
Q 947 2416 947 1791 
Q 947 1169 1205 825 
Q 1463 481 1925 481 
Q 2391 481 2648 825 
Q 2906 1169 2906 1791 
z
M 3481 434 
Q 3481 -459 3084 -895 
Q 2688 -1331 1869 -1331 
Q 1566 -1331 1297 -1286 
Q 1028 -1241 775 -1147 
L 775 -588 
Q 1028 -725 1275 -790 
Q 1522 -856 1778 -856 
Q 2344 -856 2625 -561 
Q 2906 -266 2906 331 
L 2906 616 
Q 2728 306 2450 153 
Q 2172 0 1784 0 
Q 1141 0 747 490 
Q 353 981 353 1791 
Q 353 2603 747 3093 
Q 1141 3584 1784 3584 
Q 2172 3584 2450 3431 
Q 2728 3278 2906 2969 
L 2906 3500 
L 3481 3500 
L 3481 434 
z
" transform="scale(0.015625)"/>
      </defs>
      <use xlink:href="#DejaVuSans-73"/>
      <use xlink:href="#DejaVuSans-70" x="52.099609"/>
      <use xlink:href="#DejaVuSans-65" x="115.576172"/>
      <use xlink:href="#DejaVuSans-63" x="177.099609"/>
      <use xlink:href="#DejaVuSans-74" x="232.080078"/>
      <use xlink:href="#DejaVuSans-72" x="271.289062"/>
      <use xlink:href="#DejaVuSans-61" x="312.402344"/>
      <use xlink:href="#DejaVuSans-6c" x="373.681641"/>
      <use xlink:href="#DejaVuSans-2d" x="401.464844"/>
      <use xlink:href="#DejaVuSans-66" x="437.548828"/>
      <use xlink:href="#DejaVuSans-6f" x="472.753906"/>
      <use xlink:href="#DejaVuSans-63" x="533.935547"/>
      <use xlink:href="#DejaVuSans-75" x="588.916016"/>
      <use xlink:href="#DejaVuSans-73" x="652.294922"/>
      <use xlink:href="#DejaVuSans-69" x="704.394531"/>
      <use xlink:href="#DejaVuSans-6e" x="732.177734"/>
      <use xlink:href="#DejaVuSans-67" x="795.556641"/>
      <use xlink:href="#DejaVuSans-2d" x="859.033203"/>
      <use xlink:href="#DejaVuSans-53" x="895.117188"/>
      <use xlink:href="#DejaVuSans-52" x="958.59375"/>
      <use xlink:href="#DejaVuSans-53" x="1028.076172"/>
     </g>
    </g>
    <g id="line2d_112">
     <path d="M 1175.376242 185.913351 
L 1185.376242 185.913351 
L 1195.376242 185.913351 
" style="fill: none; stroke: #17becf; stroke-opacity: 0.6; stroke-width: 5; stroke-linecap: square"/>
    </g>
    <g id="text_20">
     <!-- spectral-focusing-CARS -->
     <g transform="translate(1203.376242 189.413351) scale(0.1 -0.1)">
      <use xlink:href="#DejaVuSans-73"/>
      <use xlink:href="#DejaVuSans-70" x="52.099609"/>
      <use xlink:href="#DejaVuSans-65" x="115.576172"/>
      <use xlink:href="#DejaVuSans-63" x="177.099609"/>
      <use xlink:href="#DejaVuSans-74" x="232.080078"/>
      <use xlink:href="#DejaVuSans-72" x="271.289062"/>
      <use xlink:href="#DejaVuSans-61" x="312.402344"/>
      <use xlink:href="#DejaVuSans-6c" x="373.681641"/>
      <use xlink:href="#DejaVuSans-2d" x="401.464844"/>
      <use xlink:href="#DejaVuSans-66" x="437.548828"/>
      <use xlink:href="#DejaVuSans-6f" x="472.753906"/>
      <use xlink:href="#DejaVuSans-63" x="533.935547"/>
      <use xlink:href="#DejaVuSans-75" x="588.916016"/>
      <use xlink:href="#DejaVuSans-73" x="652.294922"/>
      <use xlink:href="#DejaVuSans-69" x="704.394531"/>
      <use xlink:href="#DejaVuSans-6e" x="732.177734"/>
      <use xlink:href="#DejaVuSans-67" x="795.556641"/>
      <use xlink:href="#DejaVuSans-2d" x="859.033203"/>
      <use xlink:href="#DejaVuSans-43" x="895.117188"/>
      <use xlink:href="#DejaVuSans-41" x="964.941406"/>
      <use xlink:href="#DejaVuSans-52" x="1033.349609"/>
      <use xlink:href="#DejaVuSans-53" x="1102.832031"/>
     </g>
    </g>
    <g id="line2d_113">
     <g>
      <use xlink:href="#m9b67f139c2" x="1185.376242" y="200.591476" style="fill: #ffd700; stroke: #ffd700"/>
     </g>
    </g>
    <g id="text_21">
     <!-- comb-CARS -->
     <g transform="translate(1203.376242 204.091476) scale(0.1 -0.1)">
      <use xlink:href="#DejaVuSans-63"/>
      <use xlink:href="#DejaVuSans-6f" x="54.980469"/>
      <use xlink:href="#DejaVuSans-6d" x="116.162109"/>
      <use xlink:href="#DejaVuSans-62" x="213.574219"/>
      <use xlink:href="#DejaVuSans-2d" x="277.050781"/>
      <use xlink:href="#DejaVuSans-43" x="313.134766"/>
      <use xlink:href="#DejaVuSans-41" x="382.958984"/>
      <use xlink:href="#DejaVuSans-52" x="451.367188"/>
      <use xlink:href="#DejaVuSans-53" x="520.849609"/>
     </g>
    </g>
    <g id="line2d_114">
     <g>
      <use xlink:href="#m058fbfb50a" x="1185.376242" y="215.269601" style="fill: #483d8b; stroke: #483d8b"/>
     </g>
    </g>
    <g id="text_22">
     <!-- multi-beam synchrotron FTIR -->
     <g transform="translate(1203.376242 218.769601) scale(0.1 -0.1)">
      <defs>
       <path id="DejaVuSans-79" d="M 2059 -325 
Q 1816 -950 1584 -1140 
Q 1353 -1331 966 -1331 
L 506 -1331 
L 506 -850 
L 844 -850 
Q 1081 -850 1212 -737 
Q 1344 -625 1503 -206 
L 1606 56 
L 191 3500 
L 800 3500 
L 1894 763 
L 2988 3500 
L 3597 3500 
L 2059 -325 
z
" transform="scale(0.015625)"/>
       <path id="DejaVuSans-46" d="M 628 4666 
L 3309 4666 
L 3309 4134 
L 1259 4134 
L 1259 2759 
L 3109 2759 
L 3109 2228 
L 1259 2228 
L 1259 0 
L 628 0 
L 628 4666 
z
" transform="scale(0.015625)"/>
       <path id="DejaVuSans-54" d="M -19 4666 
L 3928 4666 
L 3928 4134 
L 2272 4134 
L 2272 0 
L 1638 0 
L 1638 4134 
L -19 4134 
L -19 4666 
z
" transform="scale(0.015625)"/>
      </defs>
      <use xlink:href="#DejaVuSans-6d"/>
      <use xlink:href="#DejaVuSans-75" x="97.412109"/>
      <use xlink:href="#DejaVuSans-6c" x="160.791016"/>
      <use xlink:href="#DejaVuSans-74" x="188.574219"/>
      <use xlink:href="#DejaVuSans-69" x="227.783203"/>
      <use xlink:href="#DejaVuSans-2d" x="255.566406"/>
      <use xlink:href="#DejaVuSans-62" x="291.650391"/>
      <use xlink:href="#DejaVuSans-65" x="355.126953"/>
      <use xlink:href="#DejaVuSans-61" x="416.650391"/>
      <use xlink:href="#DejaVuSans-6d" x="477.929688"/>
      <use xlink:href="#DejaVuSans-20" x="575.341797"/>
      <use xlink:href="#DejaVuSans-73" x="607.128906"/>
      <use xlink:href="#DejaVuSans-79" x="659.228516"/>
      <use xlink:href="#DejaVuSans-6e" x="718.408203"/>
      <use xlink:href="#DejaVuSans-63" x="781.787109"/>
      <use xlink:href="#DejaVuSans-68" x="836.767578"/>
      <use xlink:href="#DejaVuSans-72" x="900.146484"/>
      <use xlink:href="#DejaVuSans-6f" x="939.009766"/>
      <use xlink:href="#DejaVuSans-74" x="1000.191406"/>
      <use xlink:href="#DejaVuSans-72" x="1039.400391"/>
      <use xlink:href="#DejaVuSans-6f" x="1078.263672"/>
      <use xlink:href="#DejaVuSans-6e" x="1139.445312"/>
      <use xlink:href="#DejaVuSans-20" x="1202.824219"/>
      <use xlink:href="#DejaVuSans-46" x="1234.611328"/>
      <use xlink:href="#DejaVuSans-54" x="1290.380859"/>
      <use xlink:href="#DejaVuSans-49" x="1351.464844"/>
      <use xlink:href="#DejaVuSans-52" x="1380.957031"/>
     </g>
    </g>
    <g id="line2d_115">
     <g>
      <use xlink:href="#ma8a729cc5d" x="1185.376242" y="229.947726" style="fill: #808000; stroke: #808000"/>
     </g>
    </g>
    <g id="text_23">
     <!-- MIR DCS EOM DFG -->
     <g transform="translate(1203.376242 233.447726) scale(0.1 -0.1)">
      <defs>
       <path id="DejaVuSans-44" d="M 1259 4147 
L 1259 519 
L 2022 519 
Q 2988 519 3436 956 
Q 3884 1394 3884 2338 
Q 3884 3275 3436 3711 
Q 2988 4147 2022 4147 
L 1259 4147 
z
M 628 4666 
L 1925 4666 
Q 3281 4666 3915 4102 
Q 4550 3538 4550 2338 
Q 4550 1131 3912 565 
Q 3275 0 1925 0 
L 628 0 
L 628 4666 
z
" transform="scale(0.015625)"/>
       <path id="DejaVuSans-45" d="M 628 4666 
L 3578 4666 
L 3578 4134 
L 1259 4134 
L 1259 2753 
L 3481 2753 
L 3481 2222 
L 1259 2222 
L 1259 531 
L 3634 531 
L 3634 0 
L 628 0 
L 628 4666 
z
" transform="scale(0.015625)"/>
       <path id="DejaVuSans-4f" d="M 2522 4238 
Q 1834 4238 1429 3725 
Q 1025 3213 1025 2328 
Q 1025 1447 1429 934 
Q 1834 422 2522 422 
Q 3209 422 3611 934 
Q 4013 1447 4013 2328 
Q 4013 3213 3611 3725 
Q 3209 4238 2522 4238 
z
M 2522 4750 
Q 3503 4750 4090 4092 
Q 4678 3434 4678 2328 
Q 4678 1225 4090 567 
Q 3503 -91 2522 -91 
Q 1538 -91 948 565 
Q 359 1222 359 2328 
Q 359 3434 948 4092 
Q 1538 4750 2522 4750 
z
" transform="scale(0.015625)"/>
       <path id="DejaVuSans-47" d="M 3809 666 
L 3809 1919 
L 2778 1919 
L 2778 2438 
L 4434 2438 
L 4434 434 
Q 4069 175 3628 42 
Q 3188 -91 2688 -91 
Q 1594 -91 976 548 
Q 359 1188 359 2328 
Q 359 3472 976 4111 
Q 1594 4750 2688 4750 
Q 3144 4750 3555 4637 
Q 3966 4525 4313 4306 
L 4313 3634 
Q 3963 3931 3569 4081 
Q 3175 4231 2741 4231 
Q 1884 4231 1454 3753 
Q 1025 3275 1025 2328 
Q 1025 1384 1454 906 
Q 1884 428 2741 428 
Q 3075 428 3337 486 
Q 3600 544 3809 666 
z
" transform="scale(0.015625)"/>
      </defs>
      <use xlink:href="#DejaVuSans-4d"/>
      <use xlink:href="#DejaVuSans-49" x="86.279297"/>
      <use xlink:href="#DejaVuSans-52" x="115.771484"/>
      <use xlink:href="#DejaVuSans-20" x="185.253906"/>
      <use xlink:href="#DejaVuSans-44" x="217.041016"/>
      <use xlink:href="#DejaVuSans-43" x="294.042969"/>
      <use xlink:href="#DejaVuSans-53" x="363.867188"/>
      <use xlink:href="#DejaVuSans-20" x="427.34375"/>
      <use xlink:href="#DejaVuSans-45" x="459.130859"/>
      <use xlink:href="#DejaVuSans-4f" x="522.314453"/>
      <use xlink:href="#DejaVuSans-4d" x="601.025391"/>
      <use xlink:href="#DejaVuSans-20" x="687.304688"/>
      <use xlink:href="#DejaVuSans-44" x="719.091797"/>
      <use xlink:href="#DejaVuSans-46" x="796.09375"/>
      <use xlink:href="#DejaVuSans-47" x="853.613281"/>
     </g>
    </g>
    <g id="line2d_116">
     <g>
      <use xlink:href="#m4285acd24d" x="1185.376242" y="244.625851" style="fill: #dc143c; stroke: #dc143c"/>
     </g>
    </g>
    <g id="text_24">
     <!-- 1 GHz MIR DCS -->
     <g transform="translate(1203.376242 248.125851) scale(0.1 -0.1)">
      <use xlink:href="#DejaVuSans-31"/>
      <use xlink:href="#DejaVuSans-20" x="63.623047"/>
      <use xlink:href="#DejaVuSans-47" x="95.410156"/>
      <use xlink:href="#DejaVuSans-48" x="172.900391"/>
      <use xlink:href="#DejaVuSans-7a" x="248.095703"/>
      <use xlink:href="#DejaVuSans-20" x="300.585938"/>
      <use xlink:href="#DejaVuSans-4d" x="332.373047"/>
      <use xlink:href="#DejaVuSans-49" x="418.652344"/>
      <use xlink:href="#DejaVuSans-52" x="448.144531"/>
      <use xlink:href="#DejaVuSans-20" x="517.626953"/>
      <use xlink:href="#DejaVuSans-44" x="549.414062"/>
      <use xlink:href="#DejaVuSans-43" x="626.416016"/>
      <use xlink:href="#DejaVuSans-53" x="696.240234"/>
     </g>
    </g>
   </g>
  </g>
  <g id="text_25">
   <!-- bandwidth vs. spectral acquisition speed -->
   <g transform="translate(568.598437 23.273325) scale(0.12 -0.12)">
    <defs>
     <path id="DejaVuSans-76" d="M 191 3500 
L 800 3500 
L 1894 563 
L 2988 3500 
L 3597 3500 
L 2284 0 
L 1503 0 
L 191 3500 
z
" transform="scale(0.015625)"/>
     <path id="DejaVuSans-2e" d="M 684 794 
L 1344 794 
L 1344 0 
L 684 0 
L 684 794 
z
" transform="scale(0.015625)"/>
    </defs>
    <use xlink:href="#DejaVuSans-62"/>
    <use xlink:href="#DejaVuSans-61" x="63.476562"/>
    <use xlink:href="#DejaVuSans-6e" x="124.755859"/>
    <use xlink:href="#DejaVuSans-64" x="188.134766"/>
    <use xlink:href="#DejaVuSans-77" x="251.611328"/>
    <use xlink:href="#DejaVuSans-69" x="333.398438"/>
    <use xlink:href="#DejaVuSans-64" x="361.181641"/>
    <use xlink:href="#DejaVuSans-74" x="424.658203"/>
    <use xlink:href="#DejaVuSans-68" x="463.867188"/>
    <use xlink:href="#DejaVuSans-20" x="527.246094"/>
    <use xlink:href="#DejaVuSans-76" x="559.033203"/>
    <use xlink:href="#DejaVuSans-73" x="618.212891"/>
    <use xlink:href="#DejaVuSans-2e" x="670.3125"/>
    <use xlink:href="#DejaVuSans-20" x="702.099609"/>
    <use xlink:href="#DejaVuSans-73" x="733.886719"/>
    <use xlink:href="#DejaVuSans-70" x="785.986328"/>
    <use xlink:href="#DejaVuSans-65" x="849.462891"/>
    <use xlink:href="#DejaVuSans-63" x="910.986328"/>
    <use xlink:href="#DejaVuSans-74" x="965.966797"/>
    <use xlink:href="#DejaVuSans-72" x="1005.175781"/>
    <use xlink:href="#DejaVuSans-61" x="1046.289062"/>
    <use xlink:href="#DejaVuSans-6c" x="1107.568359"/>
    <use xlink:href="#DejaVuSans-20" x="1135.351562"/>
    <use xlink:href="#DejaVuSans-61" x="1167.138672"/>
    <use xlink:href="#DejaVuSans-63" x="1228.417969"/>
    <use xlink:href="#DejaVuSans-71" x="1283.398438"/>
    <use xlink:href="#DejaVuSans-75" x="1346.875"/>
    <use xlink:href="#DejaVuSans-69" x="1410.253906"/>
    <use xlink:href="#DejaVuSans-73" x="1438.037109"/>
    <use xlink:href="#DejaVuSans-69" x="1490.136719"/>
    <use xlink:href="#DejaVuSans-74" x="1517.919922"/>
    <use xlink:href="#DejaVuSans-69" x="1557.128906"/>
    <use xlink:href="#DejaVuSans-6f" x="1584.912109"/>
    <use xlink:href="#DejaVuSans-6e" x="1646.09375"/>
    <use xlink:href="#DejaVuSans-20" x="1709.472656"/>
    <use xlink:href="#DejaVuSans-73" x="1741.259766"/>
    <use xlink:href="#DejaVuSans-70" x="1793.359375"/>
    <use xlink:href="#DejaVuSans-65" x="1856.835938"/>
    <use xlink:href="#DejaVuSans-65" x="1918.359375"/>
    <use xlink:href="#DejaVuSans-64" x="1979.882812"/>
   </g>
  </g>
 </g>
 <defs>
  <clipPath id="p11f5f185c8">
   <rect x="128.355954" y="55.389913" width="1229.060914" height="574.97465"/>
  </clipPath>
 </defs>
</svg>
